<svg width="124" height="43" viewBox="0 0 124 43" fill="none" xmlns="http://www.w3.org/2000/svg">
<path d="M52.3766 32.5953V20.2023H47.8549V17.5796H60.0686V20.2023H55.5213V32.5953H52.3766Z" fill="white"/>
<path d="M64.001 32.8902C63.0948 32.8902 62.291 32.7461 61.5801 32.4611C60.8724 32.1761 60.2703 31.7758 59.7804 31.2634C59.2904 30.751 58.9157 30.133 58.6595 29.4093C58.4034 28.6855 58.2753 27.8946 58.2753 27.0331C58.2753 26.1589 58.4066 25.3583 58.6724 24.6346C58.935 23.9108 59.316 23.2928 59.8156 22.7804C60.312 22.268 60.914 21.871 61.6153 21.5924C62.3166 21.3138 63.1108 21.1729 64.001 21.1729C64.8753 21.1729 65.6599 21.3138 66.3548 21.5924C67.0465 21.871 67.6389 22.2648 68.1289 22.7676C68.6188 23.2736 68.9967 23.8884 69.2593 24.6122C69.5219 25.3359 69.6564 26.1429 69.6564 27.0331C69.6564 27.9234 69.5251 28.7272 69.2593 29.4413C68.9967 30.1586 68.6188 30.7735 68.1289 31.2858C67.6389 31.7982 67.0433 32.1953 66.342 32.4739C65.6406 32.7493 64.8593 32.8902 64.001 32.8902ZM64.001 30.4244C65.7944 30.4244 66.691 29.294 66.691 27.0331C66.691 24.7851 65.7944 23.6643 64.001 23.6643C62.2077 23.6643 61.3111 24.7883 61.3111 27.0331C61.3111 29.294 62.2077 30.4244 64.001 30.4244Z" fill="white"/>
<path d="M70.7195 32.5958V21.4677H73.4799V22.8031C73.7201 22.4252 73.9731 22.1338 74.2389 21.9224C74.5014 21.7111 74.7736 21.5477 75.0522 21.4357C75.3308 21.3236 75.6127 21.2499 75.9009 21.2211C76.1859 21.1923 76.4805 21.1763 76.7815 21.1763H77.1658V24.1833C76.8936 24.1384 76.6214 24.116 76.3524 24.116C74.5591 24.116 73.6624 25.0127 73.6624 26.8092V32.599H70.7195V32.5958Z" fill="white"/>
<path d="M86.4143 22.0119C86.3407 21.2434 86.0589 20.6702 85.5785 20.2923C85.0949 19.9144 84.3808 19.7255 83.4297 19.7255C82.5395 19.7255 81.8702 19.876 81.4155 20.177C80.9639 20.478 80.7366 20.9167 80.7366 21.49C80.7366 21.9735 80.9127 22.3578 81.2682 22.6428C81.6236 22.931 82.2225 23.1776 83.0679 23.389C83.9261 23.6003 84.7459 23.8085 85.5209 24.0102C86.2958 24.2152 86.9651 24.4425 87.5223 24.6987C87.8554 24.8492 88.1628 25.0221 88.451 25.2175C88.736 25.4128 88.9858 25.6562 89.1971 25.9412C89.4085 26.2294 89.575 26.5689 89.6935 26.9596C89.8152 27.3502 89.8728 27.8114 89.8728 28.3398C89.8728 29.1692 89.7255 29.8833 89.4309 30.4757C89.1363 31.0714 88.7232 31.5645 88.1884 31.9584C87.6536 32.3491 87.0196 32.6405 86.2894 32.8294C85.5561 33.0184 84.7555 33.1112 83.8813 33.1112C82.9462 33.1112 82.0944 33.0088 81.3258 32.807C80.5572 32.6021 79.8944 32.2914 79.3372 31.8687C78.7799 31.446 78.3412 30.9241 78.0242 30.2964C77.7072 29.6719 77.5406 28.9354 77.5278 28.09H80.5572C80.5861 28.8585 80.8999 29.467 81.4955 29.9121C82.0912 30.3572 82.8949 30.5782 83.9037 30.5782C84.8388 30.5782 85.5593 30.3925 86.0621 30.0242C86.568 29.6559 86.821 29.1307 86.821 28.4518C86.821 28.2245 86.7858 28.0227 86.7185 27.8402C86.6513 27.6609 86.5296 27.4911 86.3567 27.331C86.1838 27.1709 85.9468 27.03 85.6458 26.9019C85.3447 26.7738 84.9605 26.6585 84.4929 26.5529C83.5578 26.3415 82.7701 26.1558 82.1296 25.9989C81.4891 25.8419 80.9031 25.6402 80.3779 25.4C79.5645 25.0382 78.9433 24.5674 78.5109 23.9878C78.0786 23.4082 77.8673 22.6428 77.8673 21.6917C77.8673 21.0128 77.9794 20.3916 78.2067 19.8248C78.4341 19.2579 78.7767 18.7744 79.2347 18.3677C79.6958 17.961 80.2658 17.644 80.9543 17.4166C81.6396 17.1892 82.4434 17.0771 83.3625 17.0771C84.3104 17.0771 85.1558 17.1988 85.8955 17.439C86.6353 17.6792 87.2565 18.0186 87.7625 18.4574C88.2685 18.8961 88.6592 19.4149 88.9378 20.0169C89.2164 20.6189 89.3701 21.285 89.4021 22.0055H86.4143V22.0119Z" fill="white"/>
<path d="M93.4016 27.8019C93.4465 28.6473 93.693 29.3166 94.135 29.8162C94.5769 30.3157 95.1629 30.5623 95.8866 30.5623C96.3702 30.5623 96.7961 30.4534 97.1644 30.2357C97.5326 30.0179 97.7696 29.7137 97.8753 29.3198H100.905C100.559 30.4662 99.9536 31.3469 99.0954 31.9649C98.2372 32.583 97.2092 32.8936 96.0179 32.8936C92.3096 32.8936 90.4523 30.8729 90.4523 26.8316C90.4523 25.9734 90.574 25.1952 90.8141 24.5035C91.0543 23.8086 91.4066 23.213 91.8645 22.7166C92.3224 22.2202 92.8861 21.8392 93.5489 21.5734C94.2118 21.3108 94.974 21.1763 95.8322 21.1763C97.5519 21.1763 98.852 21.7271 99.7326 22.8287C100.616 23.9303 101.055 25.5891 101.055 27.8051H93.4016V27.8019ZM98.0386 25.9478C98.0226 25.5411 97.9521 25.1824 97.8241 24.875C97.696 24.5675 97.5262 24.3082 97.3149 24.1064C97.1035 23.9015 96.8634 23.7509 96.5912 23.6549C96.319 23.5556 96.0403 23.5076 95.7553 23.5076C95.1661 23.5076 94.6569 23.7221 94.2278 24.1512C93.7987 24.5804 93.5521 25.1792 93.4945 25.9478H98.0386Z" fill="white"/>
<path d="M109.212 32.5959V25.8549C109.212 24.9967 109.068 24.4139 108.783 24.1129C108.498 23.8118 108.004 23.6613 107.313 23.6613C105.788 23.6613 105.029 24.5132 105.029 26.2168V32.5959H102.09V21.4677H104.895V23.0945C105.241 22.4605 105.702 21.9833 106.275 21.6567C106.848 21.3332 107.588 21.1699 108.491 21.1699C109.02 21.1699 109.51 21.25 109.961 21.4069C110.413 21.5638 110.8 21.804 111.127 22.1178C111.45 22.4348 111.706 22.8223 111.895 23.2835C112.084 23.7446 112.177 24.2762 112.177 24.8782V32.5894H109.212V32.5959Z" fill="white"/>
<path d="M121.176 32.5953L121.153 31.2375C120.474 32.3391 119.44 32.8899 118.053 32.8899C117.346 32.8899 116.695 32.7554 116.109 32.4832C115.52 32.211 115.017 31.8203 114.595 31.3079C114.172 30.7955 113.839 30.1711 113.599 29.4314C113.359 28.6916 113.237 27.8558 113.237 26.9207C113.237 26.0753 113.339 25.3035 113.541 24.6022C113.746 23.9009 114.044 23.2957 114.435 22.7801C114.825 22.2677 115.306 21.8706 115.869 21.592C116.436 21.3134 117.08 21.1725 117.803 21.1725C119.174 21.1725 120.276 21.7521 121.105 22.9146V17.397H124V32.5953H121.176ZM118.732 30.4913C119.44 30.4913 120.032 30.1967 120.506 29.6107C120.98 29.0215 121.217 28.2529 121.217 27.305C121.217 24.8936 120.394 23.6864 118.751 23.6864C117.061 23.6864 116.218 24.8328 116.218 27.1257C116.218 28.1216 116.452 28.9318 116.92 29.5562C117.39 30.1775 117.996 30.4913 118.732 30.4913Z" fill="white"/>
<path d="M19.6678 42.1844L18.595 41.5887C8.74145 36.1256 4.20694 28.2862 2.14143 22.6725C-0.103405 16.5785 -0.00413239 11.7622 0.00227228 11.5604L0.037498 10.2603L19.6678 0L39.3013 10.2603L39.3366 11.5604C39.343 11.7622 39.439 16.5785 37.1974 22.6725C35.1319 28.2862 30.5974 36.1256 20.7406 41.5919L19.6678 42.1844ZM4.46953 12.9278C4.59122 14.5802 4.99792 17.7057 6.35251 21.3148C8.85993 28.0076 13.3368 33.3139 19.6678 37.1087C32.6181 29.3366 34.5779 16.8923 34.8693 12.9278L19.6678 4.98604L4.46953 12.9278Z" fill="white"/>
<path fill-rule="evenodd" clip-rule="evenodd" d="M13.4265 24.7765H15.777H16.1197C16.4527 24.7765 16.7249 24.5043 16.7249 24.1712C16.7249 23.8382 16.4527 23.566 16.1197 23.566H15.777H12.9045H11.3962C11.0632 23.566 10.791 23.2938 10.791 22.9607C10.791 22.6277 11.0632 22.3555 11.3962 22.3555H12.9013H14.6402C14.9732 22.3555 15.2454 22.0833 15.2454 21.7502C15.2454 21.4172 14.9732 21.145 14.6402 21.145H13.4425H13.4233C13.0999 21.1354 12.8405 20.8664 12.8405 20.543C12.8405 20.2099 13.1127 19.9377 13.4457 19.9377H15.5881C15.7674 17.8178 17.4807 16.1558 19.5686 16.1558C21.4323 16.1558 22.9951 17.4783 23.4402 19.2684C23.738 19.1756 24.0551 19.1243 24.3849 19.1243C26.2038 19.1243 27.6801 20.6582 27.6801 22.5476C27.6801 24.4402 26.2038 25.9709 24.3849 25.9709H15.777H15.7546H13.4265C13.0935 25.9709 12.8213 25.6987 12.8213 25.3657C12.8213 25.0486 13.0935 24.7765 13.4265 24.7765ZM11.5691 19.9473H10.7974C10.4643 19.9473 10.1921 20.2195 10.1921 20.5526C10.1921 20.8856 10.4643 21.1578 10.7974 21.1578H11.5691C11.9022 21.1578 12.1744 20.8856 12.1744 20.5526C12.1744 20.2195 11.9022 19.9473 11.5691 19.9473ZM17.2341 22.3619C17.5671 22.3619 17.8393 22.0897 17.8393 21.7566C17.8393 21.4236 17.5671 21.1514 17.2341 21.1514H16.5136C16.1805 21.1514 15.9083 21.4236 15.9083 21.7566C15.9083 22.0897 16.1805 22.3619 16.5136 22.3619H17.2341Z" fill="white"/>
</svg>
