<svg width="619" height="524" viewBox="0 0 619 524" fill="none" xmlns="http://www.w3.org/2000/svg">
<g clip-path="url(#clip0_54_2165)">
<path d="M291.576 524C289.597 524 287.518 523.52 285.878 522.579L24.5713 371.596C22.9319 370.655 21.9922 369.355 21.9922 368.054C21.9922 366.954 22.6719 365.953 23.8915 365.233L179.816 275.135C182.415 273.635 186.954 273.815 189.933 275.536L451.24 426.519C452.879 427.479 453.819 428.76 453.819 430.06C453.819 431.161 453.139 432.161 451.919 432.862L295.995 522.959C294.815 523.66 293.216 524 291.576 524ZM25.0111 370.836L286.318 521.819C289.057 523.4 293.196 523.58 295.535 522.219L451.46 432.121C452.399 431.581 452.919 430.861 452.919 430.08C452.919 429.1 452.139 428.1 450.78 427.299L189.473 276.316C186.754 274.735 182.615 274.555 180.256 275.916L24.3314 366.014C23.3917 366.554 22.8719 367.274 22.8719 368.054C22.8719 369.035 23.6516 370.035 25.0111 370.836Z" fill="#42E8E0"/>
<path d="M453.379 403.97L438.984 401.889L189.693 257.868C186.834 256.208 182.515 256.028 180.036 257.468L31.5688 343.244L22.432 341.924V354.069H22.452C22.472 355.149 23.2317 356.29 24.7912 357.19L286.098 508.173C288.957 509.834 293.276 510.014 295.755 508.574L451.679 418.476C452.819 417.816 453.339 416.935 453.319 416.015H453.339V403.97H453.379Z" fill="url(#paint0_linear_54_2165)"/>
<path d="M24.7911 345.125L286.098 496.108C288.957 497.769 293.276 497.949 295.755 496.508L451.679 406.411C454.159 404.97 453.839 402.489 450.98 400.828L189.673 249.845C186.814 248.184 182.495 248.004 180.016 249.445L24.1114 339.543C21.6322 340.983 21.9321 343.484 24.7911 345.125Z" fill="url(#paint1_linear_54_2165)"/>
<path opacity="0.3" d="M47.4232 348.086L280.98 483.043C283.539 484.524 287.398 484.684 289.617 483.403L428.988 402.869C431.207 401.589 430.927 399.348 428.368 397.887L194.811 262.931C192.252 261.45 188.393 261.29 186.174 262.57L46.8034 343.104C44.5842 344.385 44.8641 346.606 47.4232 348.086Z" fill="#24126A"/>
<path d="M451.699 405.11L295.775 495.208C293.296 496.648 288.977 496.468 286.118 494.808L24.7912 343.824C23.5316 343.104 22.8119 342.204 22.552 341.323C22.1521 342.604 22.9119 344.044 24.7912 345.145L286.098 496.128C288.957 497.789 293.276 497.969 295.755 496.528L451.68 406.431C453.079 405.63 453.559 404.49 453.219 403.349C453.039 403.99 452.539 404.61 451.699 405.11Z" fill="white"/>
<path d="M189.233 202.785L222.261 6.66274L219.602 5.54227L223.6 3.26132V3.28132C224.38 2.76111 225.46 2.80112 226.679 3.50142L490.666 156.025C492.825 157.286 494.464 160.487 494.084 162.728L460.796 360.411C460.616 361.432 460.116 362.132 459.397 362.432L455.498 364.693L454.818 361.052L455.038 361.112L192.651 209.488C190.492 208.247 188.853 205.026 189.233 202.785Z" fill="url(#paint2_linear_54_2165)"/>
<path d="M489.186 161.388L493.525 159.467C494.004 160.587 494.244 161.748 494.084 162.728L460.796 360.411C460.616 361.432 460.116 362.132 459.397 362.432L455.498 364.693L454.818 361.051L455.038 361.111L441.763 353.448L489.186 161.388Z" fill="url(#paint3_linear_54_2165)"/>
<path d="M188.513 211.869L452.499 364.393C454.539 365.573 456.278 364.893 456.638 362.772L489.926 165.089C490.306 162.848 488.666 159.627 486.507 158.387L222.521 5.8625C220.482 4.682 218.742 5.36229 218.382 7.48318L185.094 205.166C184.714 207.407 186.354 210.608 188.513 211.869Z" fill="#24126A"/>
<g opacity="0.51">
<path opacity="0.51" d="M221.641 9.54395L486.867 162.708L453.379 360.911L188.313 207.827L221.641 9.54395Z" fill="#453C9E"/>
</g>
<path d="M22.572 305.468L36.9868 312.991L181.456 229.516C183.875 228.116 188.093 228.296 190.892 229.916L440.044 373.877C442.423 372.536 453.299 367.314 453.299 367.314L448.021 375.898L448.001 375.878C447.781 376.498 447.321 377.058 446.521 377.518L294.375 465.435C291.956 466.836 287.738 466.656 284.939 465.035L29.9693 317.713C28.8297 317.053 28.13 316.253 27.8301 315.432L27.8101 315.452L22.572 305.468Z" fill="url(#paint4_linear_54_2165)"/>
<path d="M24.7912 307.829L286.098 458.812C288.957 460.473 293.276 460.653 295.755 459.213L451.679 369.115C454.159 367.674 453.839 365.193 450.98 363.532L189.673 212.549C186.814 210.888 182.495 210.708 180.016 212.149L24.0915 302.247C21.6323 303.687 21.9322 306.188 24.7912 307.829Z" fill="url(#paint5_linear_54_2165)"/>
<path d="M24.7912 307.829L286.098 458.812C288.957 460.473 293.276 460.653 295.755 459.213L451.679 369.115C454.159 367.674 453.839 365.193 450.98 363.532L189.673 212.549C186.814 210.888 182.495 210.708 180.016 212.149L24.0915 302.247C21.6323 303.687 21.9322 306.188 24.7912 307.829Z" fill="#24126A"/>
<path opacity="0.51" d="M24.7912 307.829L286.098 458.812C288.957 460.473 293.276 460.653 295.755 459.213L451.679 369.115C454.159 367.674 453.839 365.193 450.98 363.532L189.673 212.549C186.814 210.888 182.495 210.708 180.016 212.149L24.0915 302.247C21.6323 303.687 21.9322 306.188 24.7912 307.829Z" fill="#453C9E"/>
<g opacity="0.3">
<path opacity="0.5" d="M24.7912 302.267L286.098 453.25C288.957 454.911 293.276 455.091 295.755 453.65L451.679 363.552C454.159 362.112 453.839 359.631 450.98 357.97L189.673 206.987C186.814 205.326 182.495 205.146 180.016 206.587L24.0915 296.684C21.6323 298.125 21.9322 300.626 24.7912 302.267Z" fill="url(#paint6_radial_54_2165)"/>
<g opacity="0.3">
<g opacity="0.3">
<path opacity="0.3" d="M245.833 258.428L218.662 242.742V274.135L245.833 289.841L273.003 274.135V242.742L245.833 258.428Z" fill="#42E8E0"/>
<path opacity="0.3" d="M245.833 289.841L218.662 274.135V242.742L245.833 258.428V289.841Z" fill="#42E8E0"/>
<path opacity="0.3" d="M273.003 274.135L245.833 289.841V258.428L273.003 242.742V274.135Z" fill="#2FD3C7"/>
<path opacity="0.3" d="M245.833 258.428L218.662 242.742L245.833 227.035L273.003 242.742L245.833 258.428Z" fill="#42E8E0"/>
<path opacity="0.3" d="M245.833 258.428L219.842 243.422L218.662 244.102L245.833 259.789L273.003 244.102L271.823 243.422L245.833 258.428Z" fill="white"/>
</g>
<g opacity="0.3">
<path opacity="0.3" d="M281.14 278.597L253.95 262.89V294.303L281.14 309.99L308.31 294.303V262.89L281.14 278.597Z" fill="#42E8E0"/>
<path opacity="0.3" d="M281.14 309.99L253.95 294.303V262.89L281.14 278.597V309.99Z" fill="#42E8E0"/>
<path opacity="0.3" d="M308.31 294.303L281.14 309.99V278.597L308.31 262.89V294.303Z" fill="#2FD3C7"/>
<path opacity="0.3" d="M281.14 278.597L253.95 262.89L281.14 247.184L308.311 262.89L281.14 278.597Z" fill="#42E8E0"/>
<path opacity="0.3" d="M281.14 278.597L255.129 263.571L253.95 264.251L281.14 279.957L308.31 264.251L307.131 263.571L281.14 278.597Z" fill="white"/>
</g>
<g opacity="0.3">
<path opacity="0.3" d="M316.428 298.745L289.257 283.039V314.452L316.428 330.158L343.618 314.452V283.039L316.428 298.745Z" fill="#42E8E0"/>
<path opacity="0.3" d="M316.428 330.158L289.257 314.452V283.039L316.428 298.745V330.158Z" fill="#42E8E0"/>
<path opacity="0.3" d="M343.618 314.452L316.428 330.158V298.745L343.618 283.039V314.452Z" fill="#2FD3C7"/>
<path opacity="0.3" d="M316.428 298.745L289.257 283.039L316.428 267.352L343.618 283.039L316.428 298.745Z" fill="#42E8E0"/>
<path opacity="0.3" d="M316.428 298.745L290.437 283.739L289.257 284.419L316.428 300.106L343.618 284.419V283.039L316.428 298.745Z" fill="white"/>
</g>
<g opacity="0.3">
<path opacity="0.3" d="M210.525 279.957L183.355 264.251V295.664L210.525 311.35L237.716 295.664V264.251L210.525 279.957Z" fill="#42E8E0"/>
<path opacity="0.3" d="M210.525 311.35L183.355 295.664V264.251L210.525 279.957V311.35Z" fill="#42E8E0"/>
<path opacity="0.3" d="M237.716 295.664L210.525 311.35V279.957L237.716 264.251V295.664Z" fill="#2FD3C7"/>
<path opacity="0.3" d="M210.525 279.957L183.355 264.251L210.525 248.544L237.716 264.251L210.525 279.957Z" fill="#42E8E0"/>
<path opacity="0.3" d="M210.525 279.957L184.534 264.931L183.355 265.611L210.525 281.318L237.716 265.611L236.536 264.931L210.525 279.957Z" fill="white"/>
</g>
<g opacity="0.3">
<path opacity="0.3" d="M245.833 300.106L218.662 284.419V315.812L245.833 331.519L273.003 315.812V284.419L245.833 300.106Z" fill="#42E8E0"/>
<path opacity="0.3" d="M245.833 331.519L218.662 315.812V284.419L245.833 300.106V331.519Z" fill="#42E8E0"/>
<path opacity="0.3" d="M273.003 315.812L245.833 331.519V300.106L273.003 284.419V315.812Z" fill="#2FD3C7"/>
<path opacity="0.3" d="M245.833 300.106L218.662 284.419L245.833 268.713L273.003 284.419L245.833 300.106Z" fill="#42E8E0"/>
<path opacity="0.3" d="M245.833 300.106L219.842 285.1L218.662 285.78L245.833 301.466L273.003 285.78L271.823 285.1L245.833 300.106Z" fill="white"/>
</g>
<g opacity="0.3">
<path opacity="0.3" d="M281.14 320.274L253.95 304.568V335.981L281.14 351.667L308.31 335.981V304.568L281.14 320.274Z" fill="#42E8E0"/>
<path opacity="0.3" d="M281.14 351.667L253.95 335.981V304.568L281.14 320.274V351.667Z" fill="#42E8E0"/>
<path opacity="0.3" d="M308.31 335.981L281.14 351.667V320.274L308.31 304.568V335.981Z" fill="#2FD3C7"/>
<path opacity="0.3" d="M281.14 320.274L253.95 304.568L281.14 288.861L308.311 304.568L281.14 320.274Z" fill="#42E8E0"/>
<path opacity="0.3" d="M281.14 320.274L255.129 305.248L253.95 305.928L281.14 321.635L308.31 305.928V304.568L281.14 320.274Z" fill="white"/>
</g>
<g opacity="0.3">
<path opacity="0.3" d="M175.238 301.466L148.047 285.78V317.173L175.238 332.88L202.408 317.173V285.78L175.238 301.466Z" fill="#42E8E0"/>
<path opacity="0.3" d="M175.238 332.88L148.047 317.173V285.78L175.238 301.466V332.88Z" fill="#42E8E0"/>
<path opacity="0.3" d="M202.408 317.173L175.238 332.88V301.466L202.408 285.78V317.173Z" fill="#2FD3C7"/>
<path opacity="0.3" d="M175.238 301.466L148.047 285.78L175.238 270.073L202.408 285.78L175.238 301.466Z" fill="#42E8E0"/>
<path opacity="0.3" d="M175.238 301.466L148.047 285.78V287.14L175.238 302.847L202.408 287.14L201.229 286.46L175.238 301.466Z" fill="white"/>
</g>
<g opacity="0.3">
<path opacity="0.3" d="M210.525 321.635L183.355 305.928V337.341L210.525 353.028L237.716 337.341V305.928L210.525 321.635Z" fill="#42E8E0"/>
<path opacity="0.3" d="M210.525 353.028L183.355 337.341V305.928L210.525 321.635V353.028Z" fill="#42E8E0"/>
<path opacity="0.3" d="M237.716 337.341L210.525 353.028V321.635L237.716 305.928V337.341Z" fill="#2FD3C7"/>
<path opacity="0.3" d="M210.525 321.635L183.355 305.928L210.525 290.222L237.716 305.928L210.525 321.635Z" fill="#42E8E0"/>
<path opacity="0.3" d="M210.525 321.635L183.355 305.928V307.289L210.525 322.995L237.716 307.289L236.536 306.609L210.525 321.635Z" fill="white"/>
</g>
<g opacity="0.3">
<path opacity="0.3" d="M245.833 341.783L218.662 326.077V357.49L245.833 373.196L273.003 357.49V326.077L245.833 341.783Z" fill="#42E8E0"/>
<path opacity="0.3" d="M245.833 373.196L218.662 357.49V326.077L245.833 341.783V373.196Z" fill="#42E8E0"/>
<path opacity="0.3" d="M273.003 357.49L245.833 373.196V341.783L273.003 326.077V357.49Z" fill="#2FD3C7"/>
<path opacity="0.3" d="M245.833 341.783L218.662 326.077L245.833 310.39L273.003 326.097L245.833 341.783Z" fill="#42E8E0"/>
<path opacity="0.3" d="M245.833 341.783L218.662 326.077V327.457L245.833 343.144L273.003 327.457V326.077L245.833 341.783Z" fill="white"/>
</g>
<g opacity="0.3">
<path opacity="0.3" d="M245.833 216.751L218.662 201.064V232.457L245.833 248.164L273.003 232.457V201.064L245.833 216.751Z" fill="#42E8E0"/>
<path opacity="0.3" d="M245.833 248.164L218.662 232.457V201.064L245.833 216.751V248.164Z" fill="#42E8E0"/>
<path opacity="0.3" d="M273.003 232.457L245.833 248.164V216.751L273.003 201.064V232.457Z" fill="#2FD3C7"/>
<path opacity="0.3" d="M245.833 216.751L218.662 201.064L245.833 185.358L273.003 201.064L245.833 216.751Z" fill="#42E8E0"/>
<path opacity="0.3" d="M245.833 216.751L219.842 201.745L218.662 202.425L245.833 218.132L273.003 202.425L271.823 201.745L245.833 216.751Z" fill="white"/>
</g>
<g opacity="0.3">
<path opacity="0.7" d="M245.833 336.681L227.299 325.957L245.833 315.252L264.366 325.957L245.833 336.681Z" fill="#18B2A3"/>
<path opacity="0.7" d="M210.525 316.513L191.992 305.808L210.525 295.104L229.079 305.808L210.525 316.513Z" fill="#18B2A3"/>
<path opacity="0.7" d="M281.14 315.152L262.587 304.448L281.14 293.723L299.674 304.448L281.14 315.152Z" fill="#18B2A3"/>
<path opacity="0.7" d="M316.508 293.883L297.954 283.179L316.508 272.454L335.041 283.179L316.508 293.883Z" fill="#18B2A3"/>
<path opacity="0.7" d="M175.238 296.364L156.704 285.64L175.238 274.935L193.771 285.64L175.238 296.364Z" fill="#18B2A3"/>
</g>
<g opacity="0.3">
<path opacity="0.3" d="M281.14 236.919L253.95 221.213V252.626L281.14 268.312L308.31 252.626V221.213L281.14 236.919Z" fill="#42E8E0"/>
<path opacity="0.3" d="M281.14 268.312L253.95 252.626V221.213L281.14 236.919V268.312Z" fill="#42E8E0"/>
<path opacity="0.3" d="M308.31 252.626L281.14 268.312V236.919L308.31 221.213V252.626Z" fill="#2FD3C7"/>
<path opacity="0.3" d="M281.14 236.919L253.95 221.213L281.14 205.506L308.311 221.213L281.14 236.919Z" fill="#42E8E0"/>
<path opacity="0.3" d="M281.14 236.919L255.129 221.893L253.95 222.573L281.14 238.28L308.31 222.573L307.131 221.893L281.14 236.919Z" fill="white"/>
</g>
<g opacity="0.3">
<path opacity="0.3" d="M316.428 257.068L289.257 241.381V272.774L316.428 288.481L343.618 272.774V241.381L316.428 257.068Z" fill="#42E8E0"/>
<path opacity="0.3" d="M316.428 288.481L289.257 272.774V241.381L316.428 257.068V288.481Z" fill="#42E8E0"/>
<path opacity="0.3" d="M343.618 272.774L316.428 288.481V257.068L343.618 241.381V272.774Z" fill="#2FD3C7"/>
<path opacity="0.3" d="M316.428 257.068L289.257 241.381L316.428 225.675L343.618 241.381L316.428 257.068Z" fill="#42E8E0"/>
<path opacity="0.3" d="M316.428 257.068L290.437 242.061L289.257 242.742L316.428 258.428L343.618 242.742V241.381L316.428 257.068Z" fill="white"/>
</g>
<g opacity="0.3">
<path opacity="0.3" d="M210.525 238.28L183.355 222.573V253.986L210.525 269.693L237.716 253.986V222.573L210.525 238.28Z" fill="#42E8E0"/>
<path opacity="0.3" d="M210.525 269.693L183.355 253.986V222.573L210.525 238.28V269.693Z" fill="#42E8E0"/>
<path opacity="0.3" d="M237.716 253.986L210.525 269.693V238.28L237.716 222.573V253.986Z" fill="#2FD3C7"/>
<path opacity="0.3" d="M210.525 238.28L183.355 222.573L210.525 206.867L237.716 222.573L210.525 238.28Z" fill="#42E8E0"/>
<path opacity="0.3" d="M210.525 238.28L184.534 223.254L183.355 223.934L210.525 239.641L237.716 223.934L236.536 223.254L210.525 238.28Z" fill="white"/>
</g>
<g opacity="0.3">
<path opacity="0.3" d="M245.833 258.428L218.662 242.742V274.135L245.833 289.841L273.003 274.135V242.742L245.833 258.428Z" fill="#42E8E0"/>
<path opacity="0.3" d="M245.833 289.841L218.662 274.135V242.742L245.833 258.428V289.841Z" fill="#42E8E0"/>
<path opacity="0.3" d="M273.003 274.135L245.833 289.841V258.428L273.003 242.742V274.135Z" fill="#2FD3C7"/>
<path opacity="0.3" d="M245.833 258.428L218.662 242.742L245.833 227.035L273.003 242.742L245.833 258.428Z" fill="#42E8E0"/>
<path opacity="0.3" d="M245.833 258.428L219.842 243.422L218.662 244.102L245.833 259.789L273.003 244.102L271.823 243.422L245.833 258.428Z" fill="white"/>
</g>
<g opacity="0.3">
<path opacity="0.3" d="M281.14 278.597L253.95 262.89V294.303L281.14 309.99L308.31 294.303V262.89L281.14 278.597Z" fill="#42E8E0"/>
<path opacity="0.3" d="M281.14 309.99L253.95 294.303V262.89L281.14 278.597V309.99Z" fill="#42E8E0"/>
<path opacity="0.3" d="M308.31 294.303L281.14 309.99V278.597L308.31 262.89V294.303Z" fill="#2FD3C7"/>
<path opacity="0.3" d="M281.14 278.597L253.95 262.89L281.14 247.184L308.311 262.89L281.14 278.597Z" fill="#42E8E0"/>
<path opacity="0.3" d="M281.14 278.597L255.129 263.57L253.95 264.251L281.14 279.957L308.31 264.251V262.89L281.14 278.597Z" fill="white"/>
</g>
<g opacity="0.3">
<path opacity="0.3" d="M175.238 259.809L148.047 244.102V275.495L175.238 291.202L202.408 275.495V244.102L175.238 259.809Z" fill="#42E8E0"/>
<path opacity="0.3" d="M175.238 291.202L148.047 275.495V244.102L175.238 259.809V291.202Z" fill="#42E8E0"/>
<path opacity="0.3" d="M202.408 275.495L175.238 291.202V259.809L202.408 244.102V275.495Z" fill="#2FD3C7"/>
<path opacity="0.3" d="M175.238 259.809L148.047 244.102L175.238 228.396L202.408 244.102L175.238 259.809Z" fill="#42E8E0"/>
<path opacity="0.3" d="M175.238 259.809L149.227 244.783L148.047 245.463L175.238 261.17L202.408 245.463L201.229 244.783L175.238 259.809Z" fill="white"/>
</g>
<g opacity="0.3">
<path opacity="0.3" d="M210.525 279.957L183.355 264.251V295.664L210.525 311.35L237.716 295.664V264.251L210.525 279.957Z" fill="#42E8E0"/>
<path opacity="0.3" d="M210.525 311.35L183.355 295.664V264.251L210.525 279.957V311.35Z" fill="#42E8E0"/>
<path opacity="0.3" d="M237.716 295.664L210.525 311.35V279.957L237.716 264.251V295.664Z" fill="#2FD3C7"/>
<path opacity="0.3" d="M210.525 279.957L183.355 264.251L210.525 248.544L237.716 264.251L210.525 279.957Z" fill="#42E8E0"/>
<path opacity="0.3" d="M210.525 279.957L183.355 264.251V265.611L210.525 281.318L237.716 265.611L236.536 264.931L210.525 279.957Z" fill="white"/>
</g>
<g opacity="0.3">
<path opacity="0.3" d="M245.833 300.106L218.662 284.419V315.812L245.833 331.519L273.003 315.812V284.419L245.833 300.106Z" fill="#42E8E0"/>
<path opacity="0.3" d="M245.833 331.519L218.662 315.812V284.419L245.833 300.106V331.519Z" fill="#42E8E0"/>
<path opacity="0.3" d="M273.003 315.812L245.833 331.519V300.106L273.003 284.419V315.812Z" fill="#2FD3C7"/>
<path opacity="0.3" d="M245.833 300.106L218.662 284.419L245.833 268.713L273.003 284.419L245.833 300.106Z" fill="#42E8E0"/>
<path opacity="0.3" d="M245.833 300.106L218.662 284.419V285.78L245.833 301.466L273.003 285.78V284.419L245.833 300.106Z" fill="white"/>
</g>
<g opacity="0.3">
<path opacity="0.7" d="M316.508 252.386L297.954 241.681L316.508 230.977L335.041 241.681L316.508 252.386Z" fill="#18B2A3"/>
<path opacity="0.7" d="M175.238 254.867L156.704 244.162L175.238 233.438L193.771 244.162L175.238 254.867Z" fill="#18B2A3"/>
</g>
<g opacity="0.3">
<path opacity="0.3" d="M245.833 175.093L218.662 159.387V190.78L245.833 206.486L273.003 190.78V159.387L245.833 175.093Z" fill="#42E8E0"/>
<path opacity="0.3" d="M245.833 206.486L218.662 190.78V159.387L245.833 175.093V206.486Z" fill="#42E8E0"/>
<path opacity="0.3" d="M273.003 190.78L245.833 206.486V175.093L273.003 159.387V190.78Z" fill="#2FD3C7"/>
<path opacity="0.3" d="M245.833 175.093L218.662 159.387L245.833 143.68L273.003 159.387L245.833 175.093Z" fill="#42E8E0"/>
<path opacity="0.3" d="M245.833 175.093L218.662 159.387V160.747L245.833 176.454L273.003 160.747V159.387L245.833 175.093Z" fill="white"/>
</g>
<g opacity="0.3">
<path opacity="0.3" d="M281.14 195.242L253.95 179.535V210.948L281.14 226.655L308.31 210.948V179.535L281.14 195.242Z" fill="#42E8E0"/>
<path opacity="0.3" d="M281.14 226.655L253.95 210.948V179.535L281.14 195.242V226.655Z" fill="#42E8E0"/>
<path opacity="0.3" d="M308.31 210.948L281.14 226.655V195.242L308.31 179.535V210.948Z" fill="#2FD3C7"/>
<path opacity="0.3" d="M281.14 195.242L253.95 179.535L281.14 163.829L308.311 179.535L281.14 195.242Z" fill="#42E8E0"/>
<path opacity="0.3" d="M281.14 195.242L253.95 179.535V180.896L281.14 196.602L308.31 180.896V179.535L281.14 195.242Z" fill="white"/>
</g>
<g opacity="0.3">
<path opacity="0.3" d="M316.428 215.39L289.257 199.704V231.097L316.428 246.803L343.618 231.097V199.704L316.428 215.39Z" fill="#42E8E0"/>
<path opacity="0.3" d="M316.428 246.803L289.257 231.097V199.704L316.428 215.39V246.803Z" fill="#42E8E0"/>
<path opacity="0.3" d="M343.618 231.097L316.428 246.803V215.39L343.618 199.704V231.097Z" fill="#2FD3C7"/>
<path opacity="0.3" d="M316.428 215.39L289.257 199.704L316.428 183.997L343.618 199.704L316.428 215.39Z" fill="#42E8E0"/>
<path opacity="0.3" d="M316.428 215.39L289.257 199.704V201.064L316.428 216.751L343.618 201.064V199.704L316.428 215.39Z" fill="white"/>
</g>
<g opacity="0.3">
<path opacity="0.3" d="M210.525 196.602L183.355 180.896V212.309L210.525 228.016L237.716 212.309V180.896L210.525 196.602Z" fill="#42E8E0"/>
<path opacity="0.3" d="M210.525 228.016L183.355 212.309V180.896L210.525 196.602V228.016Z" fill="#42E8E0"/>
<path opacity="0.3" d="M237.716 212.309L210.525 228.016V196.602L237.716 180.896V212.309Z" fill="#2FD3C7"/>
<path opacity="0.3" d="M210.525 196.602L183.355 180.896L210.525 165.209L237.716 180.896L210.525 196.602Z" fill="#42E8E0"/>
<path opacity="0.3" d="M210.525 196.602L183.355 180.896V182.256L210.525 197.963L237.716 182.256V180.896L210.525 196.602Z" fill="white"/>
</g>
<g opacity="0.3">
<path opacity="0.3" d="M175.238 218.131L148.047 202.425V233.818L175.238 249.525L202.408 233.818V202.425L175.238 218.131Z" fill="#42E8E0"/>
<path opacity="0.3" d="M175.238 249.525L148.047 233.818V202.425L175.238 218.131V249.525Z" fill="#42E8E0"/>
<path opacity="0.3" d="M202.408 233.818L175.238 249.525V218.131L202.408 202.425V233.818Z" fill="#2FD3C7"/>
<path opacity="0.3" d="M175.238 218.131L148.047 202.425L175.238 186.718L202.408 202.425L175.238 218.131Z" fill="#42E8E0"/>
<path opacity="0.3" d="M175.238 218.131L148.047 202.425V203.785L175.238 219.492L202.408 203.785V202.425L175.238 218.131Z" fill="white"/>
</g>
</g>
<g opacity="0.3">
<g opacity="0.3">
<path opacity="0.3" d="M245.833 387.883L218.662 372.176V403.589L245.833 419.276L273.003 403.589V372.176L245.833 387.883Z" fill="#42E8E0"/>
<path opacity="0.3" d="M245.833 419.296L218.662 403.589V372.176L245.833 387.883V419.296Z" fill="#42E8E0"/>
<path opacity="0.3" d="M273.003 403.589L245.833 419.296V387.883L273.003 372.176V403.589Z" fill="#2FD3C7"/>
<path opacity="0.3" d="M245.833 387.883L218.662 372.176L245.833 356.469L273.003 372.176L245.833 387.883Z" fill="#42E8E0"/>
<path opacity="0.3" d="M245.833 387.883L219.842 372.856L218.662 373.537L245.833 389.243L273.003 373.537L271.823 372.856L245.833 387.883Z" fill="white"/>
</g>
<g opacity="0.3">
<path opacity="0.3" d="M281.14 408.031L253.95 392.344V423.738L281.14 439.444L308.31 423.738V392.344L281.14 408.031Z" fill="#42E8E0"/>
<path opacity="0.3" d="M281.14 439.444L253.95 423.738V392.344L281.14 408.031V439.444Z" fill="#42E8E0"/>
<path opacity="0.3" d="M308.31 423.738L281.14 439.444V408.031L308.31 392.344V423.738Z" fill="#2FD3C7"/>
<path opacity="0.3" d="M281.14 408.031L253.95 392.345L281.14 376.638L308.311 392.345L281.14 408.031Z" fill="#42E8E0"/>
<path opacity="0.3" d="M281.14 408.031L255.129 393.025L253.95 393.705L281.14 409.392L308.31 393.705L307.131 393.025L281.14 408.031Z" fill="white"/>
</g>
<g opacity="0.3">
<path opacity="0.3" d="M316.428 428.199L289.257 412.493V443.906L316.428 459.593L343.618 443.906V412.493L316.428 428.199Z" fill="#42E8E0"/>
<path opacity="0.3" d="M316.428 459.593L289.257 443.906V412.493L316.428 428.199V459.593Z" fill="#42E8E0"/>
<path opacity="0.3" d="M343.618 443.906L316.428 459.593V428.199L343.618 412.493V443.906Z" fill="#2FD3C7"/>
<path opacity="0.3" d="M316.428 428.2L289.257 412.493L316.428 396.786L343.618 412.493L316.428 428.2Z" fill="#42E8E0"/>
<path opacity="0.3" d="M316.428 428.2L290.437 413.173L289.257 413.853L316.428 429.56L343.618 413.853V412.493L316.428 428.2Z" fill="white"/>
</g>
<g opacity="0.3">
<path opacity="0.3" d="M210.525 409.392L183.355 393.705V425.098L210.525 440.805L237.716 425.098V393.705L210.525 409.392Z" fill="#42E8E0"/>
<path opacity="0.3" d="M210.525 440.805L183.355 425.098V393.705L210.525 409.392V440.805Z" fill="#42E8E0"/>
<path opacity="0.3" d="M237.716 425.098L210.525 440.805V409.392L237.716 393.705V425.098Z" fill="#2FD3C7"/>
<path opacity="0.3" d="M210.525 409.392L183.355 393.705L210.525 377.999L237.716 393.705L210.525 409.392Z" fill="#42E8E0"/>
<path opacity="0.3" d="M210.525 409.392L184.534 394.385L183.355 395.066L210.525 410.772L237.716 395.066L236.536 394.385L210.525 409.392Z" fill="white"/>
</g>
<g opacity="0.3">
<path opacity="0.3" d="M245.833 429.56L218.662 413.854V445.267L245.833 460.953L273.003 445.267V413.854L245.833 429.56Z" fill="#42E8E0"/>
<path opacity="0.3" d="M245.833 460.953L218.662 445.267V413.854L245.833 429.56V460.953Z" fill="#42E8E0"/>
<path opacity="0.3" d="M273.003 445.267L245.833 460.953V429.56L273.003 413.854V445.267Z" fill="#2FD3C7"/>
<path opacity="0.3" d="M245.833 429.56L218.662 413.854L245.833 398.147L273.003 413.854L245.833 429.56Z" fill="#42E8E0"/>
<path opacity="0.3" d="M245.833 429.56L219.842 414.534L218.662 415.214L245.833 430.921L273.003 415.214L271.823 414.534L245.833 429.56Z" fill="white"/>
</g>
<g opacity="0.3">
<path opacity="0.3" d="M281.14 449.709L253.95 434.022V465.415L281.14 481.122L308.31 465.415V434.022L281.14 449.709Z" fill="#42E8E0"/>
<path opacity="0.3" d="M281.14 481.122L253.95 465.415V434.022L281.14 449.709V481.122Z" fill="#42E8E0"/>
<path opacity="0.3" d="M308.31 465.415L281.14 481.122V449.709L308.31 434.022V465.415Z" fill="#2FD3C7"/>
<path opacity="0.3" d="M281.14 449.709L253.95 434.022L281.14 418.315L308.311 434.022L281.14 449.709Z" fill="#42E8E0"/>
<path opacity="0.3" d="M281.14 449.709L255.129 434.702L253.95 435.383L281.14 451.069L308.31 435.383V434.022L281.14 449.709Z" fill="white"/>
</g>
<g opacity="0.3">
<path opacity="0.3" d="M175.238 430.921L148.047 415.214V446.627L175.238 462.334L202.408 446.627V415.214L175.238 430.921Z" fill="#42E8E0"/>
<path opacity="0.3" d="M175.238 462.334L148.047 446.627V415.214L175.238 430.921V462.334Z" fill="#42E8E0"/>
<path opacity="0.3" d="M202.408 446.627L175.238 462.334V430.921L202.408 415.214V446.627Z" fill="#2FD3C7"/>
<path opacity="0.3" d="M175.238 430.921L148.047 415.214L175.238 399.508L202.408 415.214L175.238 430.921Z" fill="#42E8E0"/>
<path opacity="0.3" d="M175.238 430.921L148.047 415.214V416.575L175.238 432.281L202.408 416.575L201.229 415.894L175.238 430.921Z" fill="white"/>
</g>
<g opacity="0.3">
<path opacity="0.3" d="M210.525 451.069L183.355 435.383V466.776L210.525 482.482L237.716 466.776V435.383L210.525 451.069Z" fill="#42E8E0"/>
<path opacity="0.3" d="M210.525 482.482L183.355 466.776V435.383L210.525 451.069V482.482Z" fill="#42E8E0"/>
<path opacity="0.3" d="M237.716 466.776L210.525 482.482V451.069L237.716 435.383V466.776Z" fill="#2FD3C7"/>
<path opacity="0.3" d="M210.525 451.069L183.355 435.383L210.525 419.676L237.716 435.383L210.525 451.069Z" fill="#42E8E0"/>
<path opacity="0.3" d="M210.525 451.069L183.355 435.383V436.743L210.525 452.43L237.716 436.743L236.536 436.063L210.525 451.069Z" fill="white"/>
</g>
<g opacity="0.3">
<path opacity="0.3" d="M245.833 471.238L218.662 455.531V486.944L245.833 502.631L273.003 486.944V455.531L245.833 471.238Z" fill="#42E8E0"/>
<path opacity="0.3" d="M245.833 502.631L218.662 486.944V455.531L245.833 471.238V502.631Z" fill="#42E8E0"/>
<path opacity="0.3" d="M273.003 486.944L245.833 502.631V471.238L273.003 455.531V486.944Z" fill="#2FD3C7"/>
<path opacity="0.3" d="M245.833 471.238L218.662 455.531L245.833 439.824L273.003 455.531L245.833 471.238Z" fill="#42E8E0"/>
<path opacity="0.3" d="M245.833 471.238L218.662 455.531V456.892L245.833 472.598L273.003 456.892V455.531L245.833 471.238Z" fill="white"/>
</g>
<g opacity="0.3">
<path opacity="0.3" d="M245.833 346.205L218.662 330.499V361.912L245.833 377.618L273.003 361.912V330.499L245.833 346.205Z" fill="#42E8E0"/>
<path opacity="0.3" d="M245.833 377.618L218.662 361.912V330.499L245.833 346.205V377.618Z" fill="#42E8E0"/>
<path opacity="0.3" d="M273.003 361.912L245.833 377.618V346.205L273.003 330.499V361.912Z" fill="#2FD3C7"/>
<path opacity="0.3" d="M245.833 346.205L218.662 330.499L245.833 314.812L273.003 330.499L245.833 346.205Z" fill="#42E8E0"/>
<path opacity="0.3" d="M245.833 346.205L219.842 331.179L218.662 331.859L245.833 347.566L273.003 331.859L271.823 331.179L245.833 346.205Z" fill="white"/>
</g>
<g opacity="0.3">
<path opacity="0.7" d="M245.833 466.116L227.299 455.411L245.833 444.707L264.366 455.411L245.833 466.116Z" fill="#18B2A3"/>
<path opacity="0.7" d="M210.525 445.967L191.992 435.243L210.525 424.538L229.079 435.243L210.525 445.967Z" fill="#18B2A3"/>
<path opacity="0.7" d="M281.14 444.607L262.587 433.882L281.14 423.177L299.674 433.882L281.14 444.607Z" fill="#18B2A3"/>
<path opacity="0.7" d="M316.508 423.337L297.954 412.613L316.508 401.908L335.041 412.613L316.508 423.337Z" fill="#18B2A3"/>
<path opacity="0.7" d="M175.238 425.799L156.704 415.094L175.238 404.39L193.771 415.094L175.238 425.799Z" fill="#18B2A3"/>
</g>
<g opacity="0.3">
<path opacity="0.3" d="M281.14 366.354L253.95 350.667V382.06L281.14 397.767L308.31 382.06V350.667L281.14 366.354Z" fill="#42E8E0"/>
<path opacity="0.3" d="M281.14 397.767L253.95 382.06V350.667L281.14 366.354V397.767Z" fill="#42E8E0"/>
<path opacity="0.3" d="M308.31 382.06L281.14 397.767V366.354L308.31 350.667V382.06Z" fill="#2FD3C7"/>
<path opacity="0.3" d="M281.14 366.354L253.95 350.667L281.14 334.96L308.311 350.667L281.14 366.354Z" fill="#42E8E0"/>
<path opacity="0.3" d="M281.14 366.354L255.129 351.347L253.95 352.028L281.14 367.734L308.31 352.028L307.131 351.347L281.14 366.354Z" fill="white"/>
</g>
<g opacity="0.3">
<path opacity="0.3" d="M316.428 386.522L289.257 370.815V402.229L316.428 417.915L343.618 402.229V370.815L316.428 386.522Z" fill="#42E8E0"/>
<path opacity="0.3" d="M316.428 417.915L289.257 402.229V370.815L316.428 386.522V417.915Z" fill="#42E8E0"/>
<path opacity="0.3" d="M343.618 402.229L316.428 417.915V386.522L343.618 370.815V402.229Z" fill="#2FD3C7"/>
<path opacity="0.3" d="M316.428 386.522L289.257 370.815L316.428 355.109L343.618 370.815L316.428 386.522Z" fill="#42E8E0"/>
<path opacity="0.3" d="M316.428 386.522L290.437 371.496L289.257 372.176L316.428 387.883L343.618 372.176V370.815L316.428 386.522Z" fill="white"/>
</g>
<g opacity="0.3">
<path opacity="0.3" d="M210.525 367.734L183.355 352.028V383.421L210.525 399.127L237.716 383.421V352.028L210.525 367.734Z" fill="#42E8E0"/>
<path opacity="0.3" d="M210.525 399.127L183.355 383.421V352.028L210.525 367.734V399.127Z" fill="#42E8E0"/>
<path opacity="0.3" d="M237.716 383.421L210.525 399.127V367.734L237.716 352.028V383.421Z" fill="#2FD3C7"/>
<path opacity="0.3" d="M210.525 367.734L183.355 352.028L210.525 336.321L237.716 352.028L210.525 367.734Z" fill="#42E8E0"/>
<path opacity="0.3" d="M210.525 367.734L184.534 352.708L183.355 353.388L210.525 369.095L237.716 353.388L236.536 352.708L210.525 367.734Z" fill="white"/>
</g>
<g opacity="0.3">
<path opacity="0.3" d="M245.833 387.883L218.662 372.176V403.589L245.833 419.296L273.003 403.589V372.176L245.833 387.883Z" fill="#42E8E0"/>
<path opacity="0.3" d="M245.833 419.296L218.662 403.589V372.176L245.833 387.883V419.296Z" fill="#42E8E0"/>
<path opacity="0.3" d="M273.003 403.589L245.833 419.296V387.883L273.003 372.176V403.589Z" fill="#2FD3C7"/>
<path opacity="0.3" d="M245.833 387.883L218.662 372.176L245.833 356.469L273.003 372.176L245.833 387.883Z" fill="#42E8E0"/>
<path opacity="0.3" d="M245.833 387.883L219.842 372.856L218.662 373.537L245.833 389.243L273.003 373.537L271.823 372.856L245.833 387.883Z" fill="white"/>
</g>
<g opacity="0.3">
<path opacity="0.3" d="M281.14 408.031L253.95 392.344V423.738L281.14 439.444L308.31 423.738V392.344L281.14 408.031Z" fill="#42E8E0"/>
<path opacity="0.3" d="M281.14 439.444L253.95 423.738V392.344L281.14 408.031V439.444Z" fill="#42E8E0"/>
<path opacity="0.3" d="M308.31 423.738L281.14 439.444V408.031L308.31 392.344V423.738Z" fill="#2FD3C7"/>
<path opacity="0.3" d="M281.14 408.031L253.95 392.345L281.14 376.638L308.311 392.345L281.14 408.031Z" fill="#42E8E0"/>
<path opacity="0.3" d="M281.14 408.031L255.129 393.025L253.95 393.705L281.14 409.392L308.31 393.705V392.344L281.14 408.031Z" fill="white"/>
</g>
<g opacity="0.3">
<path opacity="0.3" d="M175.238 389.243L148.047 373.537V404.95L175.238 420.656L202.408 404.95V373.537L175.238 389.243Z" fill="#42E8E0"/>
<path opacity="0.3" d="M175.238 420.656L148.047 404.95V373.537L175.238 389.243V420.656Z" fill="#42E8E0"/>
<path opacity="0.3" d="M202.408 404.95L175.238 420.656V389.243L202.408 373.537V404.95Z" fill="#2FD3C7"/>
<path opacity="0.3" d="M175.238 389.243L148.047 373.537L175.238 357.85L202.408 373.537L175.238 389.243Z" fill="#42E8E0"/>
<path opacity="0.3" d="M175.238 389.243L149.227 374.217L148.047 374.897L175.238 390.604L202.408 374.897L201.229 374.217L175.238 389.243Z" fill="white"/>
</g>
<g opacity="0.3">
<path opacity="0.3" d="M210.525 409.412L183.355 393.705V425.098L210.525 440.805L237.716 425.098V393.705L210.525 409.412Z" fill="#42E8E0"/>
<path opacity="0.3" d="M210.525 440.805L183.355 425.098V393.705L210.525 409.392V440.805Z" fill="#42E8E0"/>
<path opacity="0.3" d="M237.716 425.098L210.525 440.805V409.392L237.716 393.705V425.098Z" fill="#2FD3C7"/>
<path opacity="0.3" d="M210.525 409.392L183.355 393.705L210.525 377.999L237.716 393.705L210.525 409.392Z" fill="#42E8E0"/>
<path opacity="0.3" d="M210.525 409.412L183.355 393.705V395.066L210.525 410.772L237.716 395.066L236.536 394.385L210.525 409.412Z" fill="white"/>
</g>
<g opacity="0.3">
<path opacity="0.3" d="M245.833 429.56L218.662 413.854V445.267L245.833 460.953L273.003 445.267V413.854L245.833 429.56Z" fill="#42E8E0"/>
<path opacity="0.3" d="M245.833 460.953L218.662 445.267V413.854L245.833 429.56V460.953Z" fill="#42E8E0"/>
<path opacity="0.3" d="M273.003 445.267L245.833 460.953V429.56L273.003 413.854V445.267Z" fill="#2FD3C7"/>
<path opacity="0.3" d="M245.833 429.56L218.662 413.854L245.833 398.147L273.003 413.854L245.833 429.56Z" fill="#42E8E0"/>
<path opacity="0.3" d="M245.833 429.56L218.662 413.854V415.214L245.833 430.921L273.003 415.214V413.854L245.833 429.56Z" fill="white"/>
</g>
<g opacity="0.3">
<path opacity="0.7" d="M316.508 381.84L297.954 371.116L316.508 360.411L335.041 371.116L316.508 381.84Z" fill="#18B2A3"/>
<path opacity="0.7" d="M175.238 384.321L156.704 373.597L175.238 362.892L193.771 373.597L175.238 384.321Z" fill="#18B2A3"/>
</g>
<g opacity="0.3">
<path opacity="0.3" d="M245.833 304.528L218.662 288.821V320.234L245.833 335.941L273.003 320.234V288.821L245.833 304.528Z" fill="#42E8E0"/>
<path opacity="0.3" d="M245.833 335.941L218.662 320.234V288.821L245.833 304.528V335.941Z" fill="#42E8E0"/>
<path opacity="0.3" d="M273.003 320.234L245.833 335.941V304.528L273.003 288.821V320.234Z" fill="#2FD3C7"/>
<path opacity="0.3" d="M245.833 304.528L218.662 288.821L245.833 273.135L273.003 288.821L245.833 304.528Z" fill="#42E8E0"/>
<path opacity="0.3" d="M245.833 304.528L218.662 288.821V290.182L245.833 305.888L273.003 290.182V288.821L245.833 304.528Z" fill="white"/>
</g>
<g opacity="0.3">
<path opacity="0.3" d="M281.14 324.696L253.95 308.99V340.383L281.14 356.089L308.31 340.383V308.99L281.14 324.696Z" fill="#42E8E0"/>
<path opacity="0.3" d="M281.14 356.089L253.95 340.383V308.99L281.14 324.696V356.089Z" fill="#42E8E0"/>
<path opacity="0.3" d="M308.31 340.383L281.14 356.089V324.696L308.31 308.99V340.383Z" fill="#2FD3C7"/>
<path opacity="0.3" d="M281.14 324.696L253.95 308.99L281.14 293.283L308.311 308.99L281.14 324.696Z" fill="#42E8E0"/>
<path opacity="0.3" d="M281.14 324.696L253.95 308.99V310.35L281.14 326.057L308.31 310.35V308.99L281.14 324.696Z" fill="white"/>
</g>
<g opacity="0.3">
<path opacity="0.3" d="M316.428 344.845L289.257 329.138V360.551L316.428 376.238L343.618 360.551V329.138L316.428 344.845Z" fill="#42E8E0"/>
<path opacity="0.3" d="M316.428 376.258L289.257 360.551V329.138L316.428 344.845V376.258Z" fill="#42E8E0"/>
<path opacity="0.3" d="M343.618 360.551L316.428 376.258V344.845L343.618 329.138V360.551Z" fill="#2FD3C7"/>
<path opacity="0.3" d="M316.428 344.845L289.257 329.138L316.428 313.431L343.618 329.138L316.428 344.845Z" fill="#42E8E0"/>
<path opacity="0.3" d="M316.428 344.845L289.257 329.138V330.498L316.428 346.205L343.618 330.498V329.138L316.428 344.845Z" fill="white"/>
</g>
<g opacity="0.3">
<path opacity="0.3" d="M210.525 326.057L183.355 310.35V341.743L210.525 357.45L237.716 341.743V310.35L210.525 326.057Z" fill="#42E8E0"/>
<path opacity="0.3" d="M210.525 357.45L183.355 341.743V310.35L210.525 326.057V357.45Z" fill="#42E8E0"/>
<path opacity="0.3" d="M237.716 341.743L210.525 357.45V326.057L237.716 310.35V341.743Z" fill="#2FD3C7"/>
<path opacity="0.3" d="M210.525 326.057L183.355 310.35L210.525 294.644L237.716 310.35L210.525 326.057Z" fill="#42E8E0"/>
<path opacity="0.3" d="M210.525 326.057L183.355 310.35V311.711L210.525 327.417L237.716 311.711V310.35L210.525 326.057Z" fill="white"/>
</g>
<g opacity="0.3">
<path opacity="0.3" d="M175.238 347.566L148.047 331.859V363.272L175.238 378.979L202.408 363.272V331.859L175.238 347.566Z" fill="#42E8E0"/>
<path opacity="0.3" d="M175.238 378.979L148.047 363.272V331.859L175.238 347.566V378.979Z" fill="#42E8E0"/>
<path opacity="0.3" d="M202.408 363.272L175.238 378.979V347.566L202.408 331.859V363.272Z" fill="#2FD3C7"/>
<path opacity="0.3" d="M175.238 347.566L148.047 331.859L175.238 316.173L202.408 331.859L175.238 347.566Z" fill="#42E8E0"/>
<path opacity="0.3" d="M175.238 347.566L148.047 331.859V333.22L175.238 348.926L202.408 333.22V331.859L175.238 347.566Z" fill="white"/>
</g>
<g opacity="0.3">
<path opacity="0.3" d="M245.833 346.885L218.662 331.179V362.592L245.833 378.298L273.003 362.592V331.179L245.833 346.885Z" fill="#42E8E0"/>
<path opacity="0.3" d="M245.833 378.298L218.662 362.592V331.179L245.833 346.885V378.298Z" fill="#42E8E0"/>
<path opacity="0.3" d="M273.003 362.592L245.833 378.298V346.885L273.003 331.179V362.592Z" fill="#2FD3C7"/>
<path opacity="0.3" d="M245.833 346.885L218.662 331.179L245.833 315.492L273.003 331.179L245.833 346.885Z" fill="#42E8E0"/>
<path opacity="0.3" d="M245.833 346.885L219.842 331.859L218.662 332.539L245.833 348.246L273.003 332.539L271.823 331.859L245.833 346.885Z" fill="white"/>
</g>
<g opacity="0.3">
<path opacity="0.3" d="M281.14 367.054L253.95 351.347V382.74L281.14 398.447L308.31 382.74V351.347L281.14 367.054Z" fill="#42E8E0"/>
<path opacity="0.3" d="M281.14 398.447L253.95 382.74V351.347L281.14 367.054V398.447Z" fill="#42E8E0"/>
<path opacity="0.3" d="M308.31 382.74L281.14 398.447V367.054L308.31 351.347V382.74Z" fill="#2FD3C7"/>
<path opacity="0.3" d="M281.14 367.054L253.95 351.347L281.14 335.641L308.311 351.347L281.14 367.054Z" fill="#42E8E0"/>
<path opacity="0.3" d="M281.14 367.054L255.129 352.027L253.95 352.708L281.14 368.414L308.31 352.708V351.347L281.14 367.054Z" fill="white"/>
</g>
<g opacity="0.3">
<path opacity="0.3" d="M210.525 368.414L183.355 352.708V384.101L210.525 399.808L237.716 384.101V352.708L210.525 368.414Z" fill="#42E8E0"/>
<path opacity="0.3" d="M210.525 399.808L183.355 384.101V352.708L210.525 368.414V399.808Z" fill="#42E8E0"/>
<path opacity="0.3" d="M237.716 384.101L210.525 399.808V368.414L237.716 352.708V384.101Z" fill="#2FD3C7"/>
<path opacity="0.3" d="M210.525 368.414L183.355 352.708L210.525 337.001L237.716 352.708L210.525 368.414Z" fill="#42E8E0"/>
<path opacity="0.3" d="M210.525 368.414L183.355 352.708V354.068L210.525 369.775L237.716 354.068V352.708L210.525 368.414Z" fill="white"/>
</g>
<g opacity="0.3">
<path opacity="0.3" d="M245.833 388.563L218.662 372.856V404.27L245.833 419.976L273.003 404.27V372.856L245.833 388.563Z" fill="#42E8E0"/>
<path opacity="0.3" d="M245.833 419.976L218.662 404.27V372.856L245.833 388.563V419.976Z" fill="#42E8E0"/>
<path opacity="0.3" d="M273.003 404.27L245.833 419.976V388.563L273.003 372.856V404.27Z" fill="#2FD3C7"/>
<path opacity="0.3" d="M245.833 388.563L218.662 372.856L245.833 357.15L273.003 372.856L245.833 388.563Z" fill="#42E8E0"/>
<path opacity="0.3" d="M245.833 388.563L218.662 372.856V374.217L245.833 389.924L273.003 374.217V372.856L245.833 388.563Z" fill="white"/>
</g>
</g>
</g>
<path opacity="0.8" d="M291.556 455.251C289.557 455.251 287.458 454.751 285.798 453.79L24.4913 302.807C22.7919 301.826 21.8123 300.486 21.8123 299.125C21.8123 297.945 22.512 296.904 23.7916 296.164L179.716 206.066C182.395 204.506 186.914 204.686 189.992 206.466L451.3 357.45C452.999 358.43 453.979 359.771 453.979 361.131C453.979 362.312 453.279 363.352 451.999 364.093L296.075 454.19C294.855 454.911 293.236 455.251 291.556 455.251ZM184.235 206.226C182.775 206.226 181.376 206.526 180.356 207.127L24.4313 297.225C23.8115 297.585 23.0718 298.205 23.0718 299.125C23.0718 300.046 23.8315 300.986 25.1311 301.746L286.438 452.73C289.117 454.27 293.176 454.451 295.495 453.13L451.42 363.032C452.039 362.672 452.779 362.052 452.779 361.131C452.779 360.211 452.019 359.271 450.72 358.51L189.413 207.527C187.913 206.667 186.014 206.226 184.235 206.226Z" fill="url(#paint7_linear_54_2165)"/>
<path d="M24.7912 306.669L286.098 457.652C288.957 459.313 293.276 459.493 295.755 458.052L451.68 367.954C452.559 367.454 453.059 366.814 453.259 366.134C453.539 367.254 453.039 368.355 451.68 369.135L295.755 459.233C293.276 460.673 288.957 460.493 286.098 458.833L24.7912 307.829C22.9319 306.749 22.1722 305.328 22.532 304.068C22.752 304.988 23.5117 305.908 24.7912 306.669Z" fill="white"/>
<g opacity="0.15">
<g opacity="0.15">
<g opacity="0.15">
<path opacity="0.15" d="M188.193 210.588L202.608 218.111L347.077 134.636C349.496 133.236 353.714 133.416 356.513 135.036L605.665 278.997C608.044 277.656 618.92 272.434 618.92 272.434L613.642 281.018L613.622 280.998C613.402 281.618 612.942 282.178 612.142 282.638L459.997 370.555C457.577 371.956 453.359 371.776 450.56 370.155L195.59 222.833C194.451 222.173 193.751 221.373 193.451 220.552L193.431 220.572L188.193 210.588Z" fill="url(#paint8_linear_54_2165)"/>
<path opacity="0.15" d="M190.412 212.969L451.719 363.953C454.578 365.613 458.897 365.793 461.376 364.353L617.301 274.255C619.78 272.814 619.46 270.333 616.601 268.673L355.294 117.689C352.435 116.028 348.116 115.848 345.637 117.289L189.733 207.387C187.253 208.807 187.553 211.308 190.412 212.969Z" fill="url(#paint9_linear_54_2165)"/>
<path opacity="0.15" d="M190.412 212.969L451.719 363.953C454.578 365.613 458.897 365.793 461.376 364.353L617.301 274.255C619.78 272.814 619.46 270.333 616.601 268.673L355.294 117.689C352.435 116.028 348.116 115.848 345.637 117.289L189.733 207.387C187.253 208.807 187.553 211.308 190.412 212.969Z" fill="#24126A"/>
<path opacity="0.51" d="M190.412 212.969L451.719 363.953C454.578 365.613 458.897 365.793 461.376 364.353L617.301 274.255C619.78 272.814 619.46 270.333 616.601 268.673L355.294 117.689C352.435 116.028 348.116 115.848 345.637 117.289L189.733 207.387C187.253 208.807 187.553 211.308 190.412 212.969Z" fill="#453C9E"/>
<path opacity="0.15" d="M616.621 268.673L355.314 117.689C353.474 116.629 351.035 116.188 348.856 116.369C350.456 116.489 352.075 116.929 353.394 117.689L614.702 268.673C617.561 270.333 617.88 272.834 615.401 274.255L459.477 364.353C458.597 364.853 457.477 365.153 456.278 365.273C458.177 365.413 460.077 365.133 461.416 364.353L617.341 274.255C619.8 272.814 619.48 270.313 616.621 268.673Z" fill="white"/>
</g>
</g>
<path opacity="0.4" d="M382.984 298.445L307.991 255.107C300.373 250.705 300.373 243.542 307.991 239.16L382.984 195.822C390.601 191.42 402.977 191.42 410.594 195.822L485.587 239.16C493.205 243.562 493.205 250.725 485.587 255.107L410.594 298.445C402.997 302.847 390.601 302.847 382.984 298.445Z" fill="#24126A"/>
<g opacity="0.15">
<g opacity="0.15">
<path opacity="0.15" d="M378.905 182.937L351.735 167.23V198.643L378.905 214.33L406.096 198.643V167.23L378.905 182.937Z" fill="#42E8E0"/>
<path opacity="0.15" d="M378.905 214.33L351.735 198.643V167.23L378.905 182.937V214.33Z" fill="#42E8E0"/>
<path opacity="0.15" d="M406.096 198.643L378.905 214.33V182.937L406.096 167.23V198.643Z" fill="#2FD3C7"/>
<path opacity="0.15" d="M378.905 182.937L351.735 167.23L378.905 151.523L406.076 167.23L378.905 182.937Z" fill="#42E8E0"/>
<path opacity="0.15" d="M378.905 182.937L352.915 167.91L351.735 168.591L378.905 184.297L406.076 168.591L404.916 167.91L378.905 182.937Z" fill="white"/>
</g>
<g opacity="0.15">
<path opacity="0.15" d="M414.213 203.085L387.042 187.398V218.792L414.213 234.498L441.383 218.792V187.398L414.213 203.085Z" fill="#42E8E0"/>
<path opacity="0.15" d="M414.213 234.498L387.042 218.792V187.398L414.213 203.085V234.498Z" fill="#42E8E0"/>
<path opacity="0.15" d="M441.383 218.792L414.213 234.498V203.085L441.383 187.398V218.792Z" fill="#2FD3C7"/>
<path opacity="0.15" d="M414.213 203.085L387.042 187.398L414.213 171.692L441.383 187.398L414.213 203.085Z" fill="#42E8E0"/>
<path opacity="0.15" d="M414.213 203.085L388.222 188.079L387.042 188.759L414.213 204.446L441.383 188.759L440.204 188.079L414.213 203.085Z" fill="white"/>
</g>
<g opacity="0.15">
<path opacity="0.15" d="M449.5 223.253L422.33 207.547V238.96L449.5 254.647L476.691 238.96V207.547L449.5 223.253Z" fill="#42E8E0"/>
<path opacity="0.15" d="M449.5 254.647L422.33 238.96V207.547L449.5 223.253V254.647Z" fill="#42E8E0"/>
<path opacity="0.15" d="M476.691 238.96L449.5 254.647V223.253L476.691 207.547V238.96Z" fill="#2FD3C7"/>
<path opacity="0.15" d="M449.5 223.254L422.33 207.547L449.5 191.84L476.691 207.547L449.5 223.254Z" fill="#42E8E0"/>
<path opacity="0.15" d="M449.5 223.253L423.509 208.227L422.33 208.907L449.5 224.614L476.691 208.907V207.547L449.5 223.253Z" fill="white"/>
</g>
<g opacity="0.15">
<path opacity="0.15" d="M343.618 204.446L316.428 188.759V220.152L343.618 235.859L370.788 220.152V188.759L343.618 204.446Z" fill="#42E8E0"/>
<path opacity="0.15" d="M343.618 235.859L316.428 220.152V188.759L343.618 204.446V235.859Z" fill="#42E8E0"/>
<path opacity="0.15" d="M370.788 220.152L343.618 235.859V204.446L370.788 188.759V220.152Z" fill="#2FD3C7"/>
<path opacity="0.15" d="M343.618 204.446L316.428 188.759L343.618 173.052L370.788 188.759L343.618 204.446Z" fill="#42E8E0"/>
<path opacity="0.15" d="M343.618 204.446L317.607 189.439L316.428 190.12L343.618 205.826L370.788 190.12L369.609 189.439L343.618 204.446Z" fill="white"/>
</g>
<g opacity="0.15">
<path opacity="0.15" d="M378.905 224.614L351.735 208.907V240.321L378.905 256.007L406.096 240.321V208.907L378.905 224.614Z" fill="#42E8E0"/>
<path opacity="0.15" d="M378.905 256.007L351.735 240.321V208.907L378.905 224.614V256.007Z" fill="#42E8E0"/>
<path opacity="0.15" d="M406.096 240.321L378.905 256.007V224.614L406.096 208.907V240.321Z" fill="#2FD3C7"/>
<path opacity="0.15" d="M378.905 224.614L351.735 208.908L378.905 193.201L406.076 208.908L378.905 224.614Z" fill="#42E8E0"/>
<path opacity="0.15" d="M378.905 224.614L352.915 209.588L351.735 210.268L378.905 225.975L406.076 210.268L404.916 209.588L378.905 224.614Z" fill="white"/>
</g>
<g opacity="0.15">
<path opacity="0.15" d="M414.213 244.763L387.042 229.076V260.469L414.213 276.176L441.383 260.469V229.076L414.213 244.763Z" fill="#42E8E0"/>
<path opacity="0.15" d="M414.213 276.176L387.042 260.469V229.076L414.213 244.763V276.176Z" fill="#42E8E0"/>
<path opacity="0.15" d="M441.383 260.469L414.213 276.176V244.763L441.383 229.076V260.469Z" fill="#2FD3C7"/>
<path opacity="0.15" d="M414.213 244.763L387.042 229.076L414.213 213.369L441.383 229.076L414.213 244.763Z" fill="#42E8E0"/>
<path opacity="0.15" d="M414.213 244.763L388.222 229.756L387.042 230.436L414.213 246.123L441.383 230.436V229.076L414.213 244.763Z" fill="white"/>
</g>
<g opacity="0.15">
<path opacity="0.15" d="M308.31 225.975L281.14 210.268V241.681L308.31 257.368L335.481 241.681V210.268L308.31 225.975Z" fill="#42E8E0"/>
<path opacity="0.15" d="M308.31 257.368L281.14 241.681V210.268L308.31 225.975V257.368Z" fill="#42E8E0"/>
<path opacity="0.15" d="M335.481 241.681L308.31 257.368V225.975L335.481 210.268V241.681Z" fill="#2FD3C7"/>
<path opacity="0.15" d="M308.31 225.975L281.14 210.268L308.31 194.562L335.481 210.268L308.31 225.975Z" fill="#42E8E0"/>
<path opacity="0.15" d="M308.31 225.975L281.14 210.268V211.629L308.31 227.335L335.481 211.629L334.301 210.948L308.31 225.975Z" fill="white"/>
</g>
<g opacity="0.15">
<path opacity="0.15" d="M343.618 246.123L316.428 230.437V261.83L343.618 277.536L370.788 261.83V230.437L343.618 246.123Z" fill="#42E8E0"/>
<path opacity="0.15" d="M343.618 277.536L316.428 261.83V230.437L343.618 246.123V277.536Z" fill="#42E8E0"/>
<path opacity="0.15" d="M370.788 261.83L343.618 277.536V246.123L370.788 230.437V261.83Z" fill="#2FD3C7"/>
<path opacity="0.15" d="M343.618 246.123L316.428 230.437L343.618 214.73L370.788 230.437L343.618 246.123Z" fill="#42E8E0"/>
<path opacity="0.15" d="M343.618 246.123L316.428 230.437V231.797L343.618 247.484L370.788 231.797L369.609 231.117L343.618 246.123Z" fill="white"/>
</g>
<g opacity="0.15">
<path opacity="0.15" d="M378.905 266.292L351.735 250.585V281.998L378.905 297.685L406.096 281.998V250.585L378.905 266.292Z" fill="#42E8E0"/>
<path opacity="0.15" d="M378.905 297.685L351.735 281.998V250.585L378.905 266.292V297.685Z" fill="#42E8E0"/>
<path opacity="0.15" d="M406.096 281.998L378.905 297.685V266.292L406.096 250.585V281.998Z" fill="#2FD3C7"/>
<path opacity="0.15" d="M378.905 266.292L351.735 250.585L378.905 234.878L406.076 250.585L378.905 266.292Z" fill="#42E8E0"/>
<path opacity="0.15" d="M378.905 266.292L351.735 250.585V251.946L378.905 267.652L406.076 251.946L406.096 250.585L378.905 266.292Z" fill="white"/>
</g>
<g opacity="0.15">
<path opacity="0.15" d="M378.905 141.259L351.735 125.552V156.966L378.905 172.672L406.096 156.966V125.552L378.905 141.259Z" fill="#42E8E0"/>
<path opacity="0.15" d="M378.905 172.672L351.735 156.966V125.552L378.905 141.259V172.672Z" fill="#42E8E0"/>
<path opacity="0.15" d="M406.096 156.966L378.905 172.672V141.259L406.096 125.552V156.966Z" fill="#2FD3C7"/>
<path opacity="0.15" d="M378.905 141.259L351.735 125.553L378.905 109.846L406.076 125.553L378.905 141.259Z" fill="#42E8E0"/>
<path opacity="0.15" d="M378.905 141.259L352.915 126.233L351.735 126.913L378.905 142.62L406.076 126.913L404.916 126.233L378.905 141.259Z" fill="white"/>
</g>
<g opacity="0.15">
<path opacity="0.7" d="M378.905 261.169L360.372 250.465L378.905 239.76L397.439 250.465L378.905 261.169Z" fill="#18B2A3"/>
<path opacity="0.7" d="M343.618 241.021L325.064 230.296L343.618 219.592L362.151 230.296L343.618 241.021Z" fill="#18B2A3"/>
<path opacity="0.7" d="M414.213 239.66L395.679 228.936L414.213 218.231L432.746 228.936L414.213 239.66Z" fill="#18B2A3"/>
<path opacity="0.7" d="M449.58 218.371L431.047 207.667L449.58 196.962L468.114 207.667L449.58 218.371Z" fill="#18B2A3"/>
<path opacity="0.7" d="M308.31 220.852L289.777 210.148L308.31 199.443L326.844 210.148L308.31 220.852Z" fill="#18B2A3"/>
</g>
<g opacity="0.15">
<path opacity="0.15" d="M414.213 161.408L387.042 145.721V177.114L414.213 192.821L441.383 177.114V145.721L414.213 161.408Z" fill="#42E8E0"/>
<path opacity="0.15" d="M414.213 192.821L387.042 177.114V145.721L414.213 161.408V192.821Z" fill="#42E8E0"/>
<path opacity="0.15" d="M441.383 177.114L414.213 192.821V161.408L441.383 145.721V177.114Z" fill="#2FD3C7"/>
<path opacity="0.15" d="M414.213 161.408L387.042 145.721L414.213 130.014L441.383 145.721L414.213 161.408Z" fill="#42E8E0"/>
<path opacity="0.15" d="M414.213 161.408L388.222 146.401L387.042 147.082L414.213 162.788L441.383 147.082L440.204 146.401L414.213 161.408Z" fill="white"/>
</g>
<g opacity="0.15">
<path opacity="0.15" d="M449.5 181.576L422.33 165.869V197.283L449.5 212.969L476.691 197.283V165.869L449.5 181.576Z" fill="#42E8E0"/>
<path opacity="0.15" d="M449.5 212.969L422.33 197.283V165.869L449.5 181.576V212.969Z" fill="#42E8E0"/>
<path opacity="0.15" d="M476.691 197.283L449.5 212.969V181.576L476.691 165.869V197.283Z" fill="#2FD3C7"/>
<path opacity="0.15" d="M449.5 181.576L422.33 165.869L449.5 150.163L476.691 165.869L449.5 181.576Z" fill="#42E8E0"/>
<path opacity="0.15" d="M449.5 181.576L423.509 166.55L422.33 167.23L449.5 182.937L476.691 167.23V165.869L449.5 181.576Z" fill="white"/>
</g>
<g opacity="0.15">
<path opacity="0.15" d="M343.618 162.788L316.428 147.082V178.475L343.618 194.181L370.788 178.475V147.082L343.618 162.788Z" fill="#42E8E0"/>
<path opacity="0.15" d="M343.618 194.181L316.428 178.475V147.082L343.618 162.788V194.181Z" fill="#42E8E0"/>
<path opacity="0.15" d="M370.788 178.475L343.618 194.181V162.788L370.788 147.082V178.475Z" fill="#2FD3C7"/>
<path opacity="0.15" d="M343.618 162.788L316.428 147.082L343.618 131.375L370.788 147.082L343.618 162.788Z" fill="#42E8E0"/>
<path opacity="0.15" d="M343.618 162.788L317.607 147.762L316.428 148.442L343.618 164.149L370.788 148.442L369.609 147.762L343.618 162.788Z" fill="white"/>
</g>
<g opacity="0.15">
<path opacity="0.15" d="M378.905 182.937L351.735 167.23V198.643L378.905 214.33L406.096 198.643V167.23L378.905 182.937Z" fill="#42E8E0"/>
<path opacity="0.15" d="M378.905 214.33L351.735 198.643V167.23L378.905 182.937V214.33Z" fill="#42E8E0"/>
<path opacity="0.15" d="M406.096 198.643L378.905 214.33V182.937L406.096 167.23V198.643Z" fill="#2FD3C7"/>
<path opacity="0.15" d="M378.905 182.937L351.735 167.23L378.905 151.523L406.076 167.23L378.905 182.937Z" fill="#42E8E0"/>
<path opacity="0.15" d="M378.905 182.937L352.915 167.91L351.735 168.591L378.905 184.297L406.076 168.591L404.916 167.91L378.905 182.937Z" fill="white"/>
</g>
<g opacity="0.15">
<path opacity="0.15" d="M414.213 203.085L387.042 187.398V218.792L414.213 234.498L441.383 218.792V187.398L414.213 203.085Z" fill="#42E8E0"/>
<path opacity="0.15" d="M414.213 234.498L387.042 218.792V187.398L414.213 203.085V234.498Z" fill="#42E8E0"/>
<path opacity="0.15" d="M441.383 218.792L414.213 234.498V203.085L441.383 187.398V218.792Z" fill="#2FD3C7"/>
<path opacity="0.15" d="M414.213 203.085L387.042 187.398L414.213 171.692L441.383 187.398L414.213 203.085Z" fill="#42E8E0"/>
<path opacity="0.15" d="M414.213 203.085L388.222 188.079L387.042 188.759L414.213 204.446L441.383 188.759V187.398L414.213 203.085Z" fill="white"/>
</g>
<g opacity="0.15">
<path opacity="0.15" d="M308.31 184.297L281.14 168.591V200.004L308.31 215.71L335.481 200.004V168.591L308.31 184.297Z" fill="#42E8E0"/>
<path opacity="0.15" d="M308.31 215.71L281.14 200.004V168.591L308.31 184.297V215.71Z" fill="#42E8E0"/>
<path opacity="0.15" d="M335.481 200.004L308.31 215.71V184.297L335.481 168.591V200.004Z" fill="#2FD3C7"/>
<path opacity="0.15" d="M308.31 184.297L281.14 168.591L308.31 152.884L335.481 168.591L308.31 184.297Z" fill="#42E8E0"/>
<path opacity="0.15" d="M308.31 184.297L282.32 169.271L281.14 169.951L308.31 185.658L335.481 169.951L334.301 169.271L308.31 184.297Z" fill="white"/>
</g>
<g opacity="0.15">
<path opacity="0.15" d="M343.618 204.446L316.428 188.759V220.152L343.618 235.859L370.788 220.152V188.759L343.618 204.446Z" fill="#42E8E0"/>
<path opacity="0.15" d="M343.618 235.859L316.428 220.152V188.759L343.618 204.446V235.859Z" fill="#42E8E0"/>
<path opacity="0.15" d="M370.788 220.152L343.618 235.859V204.446L370.788 188.759V220.152Z" fill="#2FD3C7"/>
<path opacity="0.15" d="M343.618 204.446L316.428 188.759L343.618 173.052L370.788 188.759L343.618 204.446Z" fill="#42E8E0"/>
<path opacity="0.15" d="M343.618 204.446L316.428 188.759V190.12L343.618 205.826L370.788 190.12L369.609 189.439L343.618 204.446Z" fill="white"/>
</g>
<g opacity="0.15">
<path opacity="0.15" d="M378.905 224.614L351.735 208.907V240.321L378.905 256.007L406.096 240.321V208.907L378.905 224.614Z" fill="#42E8E0"/>
<path opacity="0.15" d="M378.905 256.007L351.735 240.321V208.907L378.905 224.614V256.007Z" fill="#42E8E0"/>
<path opacity="0.15" d="M406.096 240.321L378.905 256.007V224.614L406.096 208.907V240.321Z" fill="#2FD3C7"/>
<path opacity="0.15" d="M378.905 224.614L351.735 208.908L378.905 193.201L406.076 208.908L378.905 224.614Z" fill="#42E8E0"/>
<path opacity="0.15" d="M378.905 224.614L351.735 208.907V210.268L378.905 225.975L406.076 210.268L406.096 208.907L378.905 224.614Z" fill="white"/>
</g>
<g opacity="0.15">
<path opacity="0.7" d="M308.31 179.375L289.777 168.651L308.31 157.946L326.844 168.651L308.31 179.375Z" fill="#18B2A3"/>
</g>
<g opacity="0.15">
<path opacity="0.15" d="M378.905 99.5816L351.735 83.875V115.288L378.905 130.995L406.096 115.288V83.875L378.905 99.5816Z" fill="#42E8E0"/>
<path opacity="0.15" d="M378.905 130.995L351.735 115.288V83.875L378.905 99.5816V130.995Z" fill="#42E8E0"/>
<path opacity="0.15" d="M406.096 115.288L378.905 130.995V99.5816L406.096 83.875V115.288Z" fill="#2FD3C7"/>
<path opacity="0.15" d="M378.905 99.5816L351.735 83.8751L378.905 68.1885L406.076 83.8751L378.905 99.5816Z" fill="#42E8E0"/>
<path opacity="0.15" d="M378.905 99.5816L351.735 83.875V85.2356L378.905 100.942L406.076 85.2356L406.096 83.875L378.905 99.5816Z" fill="white"/>
</g>
<g opacity="0.15">
<path opacity="0.15" d="M343.618 121.111L316.428 105.404V136.797L343.618 152.504L370.788 136.797V105.404L343.618 121.111Z" fill="#42E8E0"/>
<path opacity="0.15" d="M343.618 152.504L316.428 136.797V105.404L343.618 121.111V152.504Z" fill="#42E8E0"/>
<path opacity="0.15" d="M370.788 136.797L343.618 152.504V121.111L370.788 105.404V136.797Z" fill="#2FD3C7"/>
<path opacity="0.15" d="M343.618 121.111L316.428 105.404L343.618 89.6975L370.788 105.404L343.618 121.111Z" fill="#42E8E0"/>
<path opacity="0.15" d="M343.618 121.111L316.428 105.404V106.765L343.618 122.471L370.788 106.765V105.404L343.618 121.111Z" fill="white"/>
</g>
<g opacity="0.15">
<path opacity="0.15" d="M308.31 142.62L281.14 126.913V158.326L308.31 174.033L335.481 158.326V126.913L308.31 142.62Z" fill="#42E8E0"/>
<path opacity="0.15" d="M308.31 174.033L281.14 158.326V126.913L308.31 142.62V174.033Z" fill="#42E8E0"/>
<path opacity="0.15" d="M335.481 158.326L308.31 174.033V142.62L335.481 126.913V158.326Z" fill="#2FD3C7"/>
<path opacity="0.15" d="M308.31 142.62L281.14 126.913L308.31 111.227L335.481 126.913L308.31 142.62Z" fill="#42E8E0"/>
<path opacity="0.15" d="M308.31 142.62L281.14 126.913V128.274L308.31 143.98L335.481 128.274V126.913L308.31 142.62Z" fill="white"/>
</g>
<g opacity="0.15">
<path opacity="0.15" d="M343.618 164.089L316.428 148.382V179.775L343.618 195.482L370.788 179.775V148.382L343.618 164.089Z" fill="#42E8E0"/>
<path opacity="0.15" d="M343.618 195.482L316.428 179.775V148.382L343.618 164.089V195.482Z" fill="#42E8E0"/>
<path opacity="0.15" d="M370.788 179.775L343.618 195.482V164.089L370.788 148.382V179.775Z" fill="#2FD3C7"/>
<path opacity="0.15" d="M343.618 164.089L316.428 148.382L343.618 132.676L370.788 148.382L343.618 164.089Z" fill="#42E8E0"/>
<path opacity="0.15" d="M343.618 164.089L316.428 148.382V149.743L343.618 165.449L370.788 149.743V148.382L343.618 164.089Z" fill="white"/>
</g>
<g opacity="0.15">
<path opacity="0.15" d="M378.905 184.237L351.735 168.531V199.944L378.905 215.65L406.096 199.944V168.531L378.905 184.237Z" fill="#42E8E0"/>
<path opacity="0.15" d="M378.905 215.65L351.735 199.944V168.531L378.905 184.237V215.65Z" fill="#42E8E0"/>
<path opacity="0.15" d="M406.096 199.944L378.905 215.65V184.237L406.096 168.531V199.944Z" fill="#2FD3C7"/>
<path opacity="0.15" d="M378.905 184.237L351.735 168.531L378.905 152.824L406.076 168.531L378.905 184.237Z" fill="#42E8E0"/>
<path opacity="0.15" d="M378.905 184.237L351.735 168.531V169.891L378.905 185.598L406.076 169.891L406.096 168.531L378.905 184.237Z" fill="white"/>
</g>
</g>
</g>
<path d="M442.083 172.332C441.463 172.332 440.783 172.152 440.144 171.772C438.184 170.632 436.965 168.071 437.445 166.05C437.664 165.069 438.244 164.349 439.064 163.989C439.984 163.589 441.103 163.709 442.143 164.309C444.142 165.469 445.322 167.97 444.842 170.031C444.622 171.012 444.042 171.732 443.222 172.092C442.863 172.272 442.483 172.332 442.083 172.332ZM440.204 164.649C439.924 164.649 439.664 164.709 439.404 164.809C438.844 165.049 438.444 165.569 438.284 166.25C437.904 167.91 438.924 170.051 440.563 170.992C441.363 171.452 442.183 171.552 442.843 171.272C443.402 171.032 443.802 170.512 443.962 169.831C444.342 168.171 443.322 166.03 441.683 165.089C441.183 164.809 440.683 164.649 440.204 164.649Z" fill="#42E8E0"/>
<path d="M452.639 178.435C452.019 178.435 451.34 178.255 450.7 177.875C448.741 176.734 447.521 174.173 448.001 172.152C448.221 171.172 448.801 170.452 449.62 170.091C450.54 169.691 451.659 169.811 452.699 170.411C454.698 171.572 455.878 174.073 455.398 176.134C455.178 177.114 454.598 177.835 453.779 178.195C453.419 178.375 453.039 178.435 452.639 178.435ZM450.76 170.752C450.48 170.752 450.22 170.812 449.98 170.912C449.42 171.152 449.02 171.672 448.86 172.352C448.481 174.013 449.5 176.154 451.14 177.094C451.939 177.554 452.759 177.655 453.419 177.374C453.979 177.134 454.379 176.614 454.538 175.934C454.918 174.273 453.899 172.132 452.259 171.192C451.759 170.912 451.24 170.752 450.76 170.752Z" fill="#42E8E0"/>
<path d="M465.535 182.157C465.115 183.997 463.295 184.658 461.496 183.617C459.697 182.577 458.577 180.236 458.997 178.375C459.417 176.534 461.236 175.874 463.035 176.914C464.855 177.955 465.954 180.296 465.535 182.157Z" fill="#42E8E0"/>
<path d="M263.007 65.5075L257.369 62.2461L257.788 59.625L263.446 62.9064L263.007 65.5075Z" fill="#42E8E0"/>
<path d="M271.224 70.2494L265.566 66.9881L266.006 64.387L271.664 67.6483L271.224 70.2494Z" fill="#42E8E0"/>
<path d="M254.889 60.8054L242.494 53.6624L242.934 51.0413L255.309 58.2043L254.889 60.8054Z" fill="#42E8E0"/>
<path d="M245.833 409.972L245.613 409.852L115.399 334.62L245.833 259.249L246.053 259.369L376.266 334.6L245.833 409.972ZM117.178 334.62L245.833 408.952L374.487 334.62L245.833 260.289L117.178 334.62Z" fill="#42E8E0"/>
<path d="M185.034 300.526C184.954 300.526 184.894 300.506 184.814 300.466L184.414 300.226C184.215 300.106 184.155 299.846 184.274 299.646C184.394 299.446 184.654 299.386 184.854 299.506L185.254 299.746C185.454 299.866 185.514 300.126 185.394 300.326C185.314 300.446 185.174 300.526 185.034 300.526ZM177.157 295.784C177.077 295.784 177.017 295.764 176.937 295.724L169.46 291.222C169.26 291.102 169.2 290.842 169.32 290.642C169.44 290.442 169.7 290.382 169.9 290.502L177.377 295.004C177.577 295.124 177.637 295.384 177.517 295.584C177.437 295.704 177.297 295.784 177.157 295.784ZM162.202 286.8C162.122 286.8 162.062 286.78 161.982 286.74L154.505 282.239C154.305 282.118 154.245 281.858 154.365 281.658C154.485 281.458 154.745 281.398 154.945 281.518L162.422 286.02C162.622 286.14 162.682 286.4 162.562 286.6C162.482 286.72 162.342 286.8 162.202 286.8ZM147.268 277.797C147.188 277.797 147.128 277.777 147.048 277.737L139.57 273.235C139.37 273.115 139.31 272.855 139.43 272.655C139.55 272.454 139.81 272.394 140.01 272.514L147.488 277.016C147.687 277.136 147.747 277.397 147.628 277.597C147.548 277.737 147.408 277.797 147.268 277.797ZM132.333 268.813C132.253 268.813 132.193 268.793 132.113 268.753L124.636 264.251C124.436 264.131 124.376 263.871 124.496 263.671C124.616 263.471 124.876 263.411 125.076 263.531L132.553 268.033C132.753 268.153 132.813 268.413 132.693 268.613C132.613 268.733 132.473 268.813 132.333 268.813ZM117.378 259.809C117.298 259.809 117.238 259.789 117.158 259.749L109.681 255.247C109.481 255.127 109.421 254.867 109.541 254.667C109.661 254.467 109.921 254.407 110.121 254.527L117.598 259.029C117.798 259.149 117.858 259.409 117.738 259.609C117.658 259.749 117.518 259.809 117.378 259.809ZM102.444 250.825C102.364 250.825 102.304 250.805 102.224 250.765L94.7463 246.263C94.5464 246.143 94.4864 245.883 94.6064 245.683C94.7263 245.483 94.9862 245.423 95.1861 245.543L102.663 250.045C102.863 250.165 102.923 250.425 102.803 250.625C102.723 250.745 102.584 250.825 102.444 250.825ZM87.5089 241.822C87.4289 241.822 87.3689 241.802 87.289 241.762L79.8116 237.26C79.6117 237.14 79.5517 236.88 79.6717 236.679C79.7916 236.479 80.0515 236.419 80.2515 236.539L87.7288 241.041C87.9287 241.161 87.9887 241.421 87.8687 241.622C87.7888 241.762 87.6488 241.822 87.5089 241.822Z" fill="white"/>
<path d="M245.833 258.428L218.662 242.742V274.135L245.833 289.841L273.003 274.135V242.742L245.833 258.428Z" fill="#42E8E0"/>
<path d="M245.833 289.841L218.662 274.135V242.742L245.833 258.428V289.841Z" fill="#42E8E0"/>
<path d="M273.003 274.135L245.833 289.841V258.428L273.003 242.742V274.135Z" fill="#2FD3C7"/>
<path d="M245.833 258.428L218.662 242.742L245.833 227.035L273.003 242.742L245.833 258.428Z" fill="#42E8E0"/>
<path d="M245.833 258.428L219.842 243.422L218.662 244.102L245.833 259.789L273.003 244.102L271.823 243.422L245.833 258.428Z" fill="white"/>
<path d="M281.14 278.597L253.95 262.89V294.303L281.14 309.99L308.31 294.303V262.89L281.14 278.597Z" fill="#42E8E0"/>
<path d="M281.14 309.99L253.95 294.303V262.89L281.14 278.597V309.99Z" fill="#42E8E0"/>
<path d="M308.31 294.303L281.14 309.99V278.597L308.31 262.89V294.303Z" fill="#2FD3C7"/>
<path d="M281.14 278.597L253.95 262.89L281.14 247.184L308.31 262.89L281.14 278.597Z" fill="#42E8E0"/>
<path d="M281.14 278.597L255.129 263.571L253.95 264.251L281.14 279.957L308.31 264.251L307.131 263.571L281.14 278.597Z" fill="white"/>
<path d="M316.428 298.745L289.257 283.039V314.452L316.428 330.159L343.618 314.452V283.039L316.428 298.745Z" fill="#42E8E0"/>
<path d="M316.428 330.159L289.257 314.452V283.039L316.428 298.745V330.159Z" fill="#42E8E0"/>
<path d="M343.618 314.452L316.428 330.159V298.745L343.618 283.039V314.452Z" fill="#2FD3C7"/>
<path d="M316.428 298.745L289.257 283.039L316.428 267.352L343.618 283.039L316.428 298.745Z" fill="#42E8E0"/>
<path d="M316.428 298.745L290.437 283.739L289.257 284.419L316.428 300.106L343.618 284.419V283.039L316.428 298.745Z" fill="white"/>
<path d="M210.525 279.957L183.355 264.251V295.664L210.525 311.35L237.716 295.664V264.251L210.525 279.957Z" fill="#42E8E0"/>
<path d="M210.525 311.35L183.355 295.664V264.251L210.525 279.957V311.35Z" fill="#42E8E0"/>
<path d="M237.715 295.664L210.525 311.35V279.957L237.715 264.251V295.664Z" fill="#2FD3C7"/>
<path d="M210.525 279.957L183.355 264.251L210.525 248.544L237.716 264.251L210.525 279.957Z" fill="#42E8E0"/>
<path d="M210.525 279.957L184.534 264.931L183.355 265.611L210.525 281.318L237.716 265.611L236.536 264.931L210.525 279.957Z" fill="white"/>
<path d="M245.833 300.106L218.662 284.419V315.812L245.833 331.519L273.003 315.812V284.419L245.833 300.106Z" fill="#42E8E0"/>
<path d="M245.833 331.519L218.662 315.812V284.419L245.833 300.106V331.519Z" fill="#42E8E0"/>
<path d="M273.003 315.812L245.833 331.519V300.106L273.003 284.419V315.812Z" fill="#2FD3C7"/>
<path d="M245.833 300.106L218.662 284.419L245.833 268.713L273.003 284.419L245.833 300.106Z" fill="#42E8E0"/>
<path d="M245.833 300.106L219.842 285.1L218.662 285.78L245.833 301.466L273.003 285.78L271.823 285.1L245.833 300.106Z" fill="white"/>
<path d="M281.14 320.274L253.95 304.568V335.981L281.14 351.667L308.31 335.981V304.568L281.14 320.274Z" fill="#42E8E0"/>
<path d="M281.14 351.667L253.95 335.981V304.568L281.14 320.274V351.667Z" fill="#42E8E0"/>
<path d="M308.31 335.981L281.14 351.667V320.274L308.31 304.568V335.981Z" fill="#2FD3C7"/>
<path d="M281.14 320.274L253.95 304.568L281.14 288.861L308.31 304.568L281.14 320.274Z" fill="#42E8E0"/>
<path d="M281.14 320.274L255.129 305.248L253.95 305.928L281.14 321.635L308.31 305.928V304.568L281.14 320.274Z" fill="white"/>
<path d="M175.238 301.466L148.047 285.78V317.173L175.238 332.88L202.408 317.173V285.78L175.238 301.466Z" fill="#42E8E0"/>
<path d="M175.238 332.88L148.047 317.173V285.78L175.238 301.466V332.88Z" fill="#42E8E0"/>
<path d="M202.408 317.173L175.238 332.88V301.466L202.408 285.78V317.173Z" fill="#2FD3C7"/>
<path d="M175.238 301.466L148.047 285.78L175.238 270.073L202.408 285.78L175.238 301.466Z" fill="#42E8E0"/>
<path d="M175.238 301.466L148.047 285.78V287.14L175.238 302.847L202.408 287.14L201.228 286.46L175.238 301.466Z" fill="white"/>
<path d="M210.525 321.635L183.355 305.928V337.341L210.525 353.028L237.716 337.341V305.928L210.525 321.635Z" fill="#42E8E0"/>
<path d="M210.525 353.028L183.355 337.341V305.928L210.525 321.635V353.028Z" fill="#42E8E0"/>
<path d="M237.715 337.341L210.525 353.028V321.635L237.715 305.928V337.341Z" fill="#2FD3C7"/>
<path d="M210.525 321.635L183.355 305.928L210.525 290.222L237.716 305.928L210.525 321.635Z" fill="#42E8E0"/>
<path d="M210.525 321.635L183.355 305.928V307.289L210.525 322.995L237.716 307.289L236.536 306.609L210.525 321.635Z" fill="white"/>
<path d="M245.833 341.783L218.662 326.077V357.49L245.833 373.196L273.003 357.49V326.077L245.833 341.783Z" fill="#42E8E0"/>
<path d="M245.833 373.196L218.662 357.49V326.077L245.833 341.783V373.196Z" fill="#42E8E0"/>
<path d="M273.003 357.49L245.833 373.196V341.783L273.003 326.077V357.49Z" fill="#2FD3C7"/>
<path d="M245.833 341.783L218.662 326.077L245.833 310.39L273.003 326.097L245.833 341.783Z" fill="#42E8E0"/>
<path d="M245.833 341.783L218.662 326.077V327.457L245.833 343.144L273.003 327.457V326.077L245.833 341.783Z" fill="white"/>
<path d="M245.833 216.751L218.662 201.064V232.457L245.833 248.164L273.003 232.457V201.064L245.833 216.751Z" fill="#42E8E0"/>
<path d="M245.833 248.164L218.662 232.457V201.064L245.833 216.751V248.164Z" fill="#42E8E0"/>
<path d="M273.003 232.457L245.833 248.164V216.751L273.003 201.064V232.457Z" fill="#2FD3C7"/>
<path d="M245.833 216.751L218.662 201.064L245.833 185.358L273.003 201.064L245.833 216.751Z" fill="#42E8E0"/>
<path d="M245.833 216.751L219.842 201.745L218.662 202.425L245.833 218.132L273.003 202.425L271.823 201.745L245.833 216.751Z" fill="white"/>
<path opacity="0.7" d="M245.833 336.681L227.299 325.957L245.833 315.252L264.366 325.957L245.833 336.681Z" fill="#18B2A3"/>
<path opacity="0.7" d="M210.525 316.513L191.992 305.808L210.525 295.104L229.079 305.808L210.525 316.513Z" fill="#18B2A3"/>
<path opacity="0.7" d="M281.14 315.152L262.587 304.448L281.14 293.723L299.674 304.448L281.14 315.152Z" fill="#18B2A3"/>
<path opacity="0.7" d="M316.507 293.883L297.954 283.179L316.507 272.454L335.041 283.179L316.507 293.883Z" fill="#18B2A3"/>
<path opacity="0.7" d="M175.238 296.364L156.704 285.64L175.238 274.935L193.771 285.64L175.238 296.364Z" fill="#18B2A3"/>
<path d="M281.14 236.919L253.95 221.213V252.626L281.14 268.312L308.31 252.626V221.213L281.14 236.919Z" fill="#42E8E0"/>
<path d="M281.14 268.312L253.95 252.626V221.213L281.14 236.919V268.312Z" fill="#42E8E0"/>
<path d="M308.31 252.626L281.14 268.312V236.919L308.31 221.213V252.626Z" fill="#2FD3C7"/>
<path d="M281.14 236.919L253.95 221.213L281.14 205.506L308.31 221.213L281.14 236.919Z" fill="#42E8E0"/>
<path d="M281.14 236.919L255.129 221.893L253.95 222.573L281.14 238.28L308.31 222.573L307.131 221.893L281.14 236.919Z" fill="white"/>
<path d="M316.428 257.068L289.257 241.381V272.774L316.428 288.481L343.618 272.774V241.381L316.428 257.068Z" fill="#42E8E0"/>
<path d="M316.428 288.481L289.257 272.774V241.381L316.428 257.068V288.481Z" fill="#42E8E0"/>
<path d="M343.618 272.774L316.428 288.481V257.068L343.618 241.381V272.774Z" fill="#2FD3C7"/>
<path d="M316.428 257.068L289.257 241.381L316.428 225.675L343.618 241.381L316.428 257.068Z" fill="#42E8E0"/>
<path d="M316.428 257.068L290.437 242.061L289.257 242.742L316.428 258.428L343.618 242.742V241.381L316.428 257.068Z" fill="white"/>
<path d="M210.525 238.28L183.355 222.573V253.986L210.525 269.693L237.716 253.986V222.573L210.525 238.28Z" fill="#42E8E0"/>
<path d="M210.525 269.693L183.355 253.986V222.573L210.525 238.28V269.693Z" fill="#42E8E0"/>
<path d="M237.715 253.986L210.525 269.693V238.28L237.715 222.573V253.986Z" fill="#2FD3C7"/>
<path d="M210.525 238.28L183.355 222.573L210.525 206.867L237.716 222.573L210.525 238.28Z" fill="#42E8E0"/>
<path d="M210.525 238.28L184.534 223.254L183.355 223.934L210.525 239.641L237.716 223.934L236.536 223.254L210.525 238.28Z" fill="white"/>
<path d="M245.833 258.428L218.662 242.742V274.135L245.833 289.841L273.003 274.135V242.742L245.833 258.428Z" fill="#42E8E0"/>
<path d="M245.833 289.841L218.662 274.135V242.742L245.833 258.428V289.841Z" fill="#42E8E0"/>
<path d="M273.003 274.135L245.833 289.841V258.428L273.003 242.742V274.135Z" fill="#2FD3C7"/>
<path d="M245.833 258.428L218.662 242.742L245.833 227.035L273.003 242.742L245.833 258.428Z" fill="#42E8E0"/>
<path d="M245.833 258.428L219.842 243.422L218.662 244.102L245.833 259.789L273.003 244.102L271.823 243.422L245.833 258.428Z" fill="white"/>
<path d="M281.14 278.597L253.95 262.89V294.303L281.14 309.99L308.31 294.303V262.89L281.14 278.597Z" fill="#42E8E0"/>
<path d="M281.14 309.99L253.95 294.303V262.89L281.14 278.597V309.99Z" fill="#42E8E0"/>
<path d="M308.31 294.303L281.14 309.99V278.597L308.31 262.89V294.303Z" fill="#2FD3C7"/>
<path d="M281.14 278.597L253.95 262.89L281.14 247.184L308.31 262.89L281.14 278.597Z" fill="#42E8E0"/>
<path d="M281.14 278.597L255.129 263.57L253.95 264.251L281.14 279.957L308.31 264.251V262.89L281.14 278.597Z" fill="white"/>
<path d="M175.238 259.809L148.047 244.102V275.495L175.238 291.202L202.408 275.495V244.102L175.238 259.809Z" fill="#42E8E0"/>
<path d="M175.238 291.202L148.047 275.495V244.102L175.238 259.809V291.202Z" fill="#42E8E0"/>
<path d="M202.408 275.495L175.238 291.202V259.809L202.408 244.102V275.495Z" fill="#2FD3C7"/>
<path d="M175.238 259.809L148.047 244.102L175.238 228.396L202.408 244.102L175.238 259.809Z" fill="#42E8E0"/>
<path d="M175.238 259.809L149.227 244.783L148.047 245.463L175.238 261.17L202.408 245.463L201.228 244.783L175.238 259.809Z" fill="white"/>
<path d="M210.525 279.957L183.355 264.251V295.664L210.525 311.35L237.716 295.664V264.251L210.525 279.957Z" fill="#42E8E0"/>
<path d="M210.525 311.35L183.355 295.664V264.251L210.525 279.957V311.35Z" fill="#42E8E0"/>
<path d="M237.715 295.664L210.525 311.35V279.957L237.715 264.251V295.664Z" fill="#2FD3C7"/>
<path d="M210.525 279.957L183.355 264.251L210.525 248.544L237.716 264.251L210.525 279.957Z" fill="#42E8E0"/>
<path d="M210.525 279.957L183.355 264.251V265.611L210.525 281.318L237.716 265.611L236.536 264.931L210.525 279.957Z" fill="white"/>
<path d="M245.833 300.106L218.662 284.419V315.812L245.833 331.519L273.003 315.812V284.419L245.833 300.106Z" fill="#42E8E0"/>
<path d="M245.833 331.519L218.662 315.812V284.419L245.833 300.106V331.519Z" fill="#42E8E0"/>
<path d="M273.003 315.812L245.833 331.519V300.106L273.003 284.419V315.812Z" fill="#2FD3C7"/>
<path d="M245.833 300.106L218.662 284.419L245.833 268.713L273.003 284.419L245.833 300.106Z" fill="#42E8E0"/>
<path d="M245.833 300.106L218.662 284.419V285.78L245.833 301.466L273.003 285.78V284.419L245.833 300.106Z" fill="white"/>
<path opacity="0.7" d="M316.507 252.386L297.954 241.681L316.507 230.977L335.041 241.681L316.507 252.386Z" fill="#18B2A3"/>
<path opacity="0.7" d="M175.238 254.867L156.704 244.162L175.238 233.438L193.771 244.162L175.238 254.867Z" fill="#18B2A3"/>
<path d="M245.833 175.093L218.662 159.387V190.78L245.833 206.486L273.003 190.78V159.387L245.833 175.093Z" fill="#42E8E0"/>
<path d="M245.833 206.486L218.662 190.78V159.387L245.833 175.093V206.486Z" fill="#42E8E0"/>
<path d="M273.003 190.78L245.833 206.486V175.093L273.003 159.387V190.78Z" fill="#2FD3C7"/>
<path d="M245.833 175.093L218.662 159.387L245.833 143.68L273.003 159.387L245.833 175.093Z" fill="#42E8E0"/>
<path d="M245.833 175.093L218.662 159.387V160.747L245.833 176.454L273.003 160.747V159.387L245.833 175.093Z" fill="white"/>
<path d="M281.14 195.242L253.95 179.535V210.948L281.14 226.655L308.31 210.948V179.535L281.14 195.242Z" fill="#42E8E0"/>
<path d="M281.14 226.655L253.95 210.948V179.535L281.14 195.242V226.655Z" fill="#42E8E0"/>
<path d="M308.31 210.948L281.14 226.655V195.242L308.31 179.535V210.948Z" fill="#2FD3C7"/>
<path d="M281.14 195.242L253.95 179.535L281.14 163.829L308.31 179.535L281.14 195.242Z" fill="#42E8E0"/>
<path d="M281.14 195.242L253.95 179.535V180.896L281.14 196.602L308.31 180.896V179.535L281.14 195.242Z" fill="white"/>
<path d="M316.428 215.39L289.257 199.704V231.097L316.428 246.803L343.618 231.097V199.704L316.428 215.39Z" fill="#42E8E0"/>
<path d="M316.428 246.803L289.257 231.097V199.704L316.428 215.39V246.803Z" fill="#42E8E0"/>
<path d="M343.618 231.097L316.428 246.803V215.39L343.618 199.704V231.097Z" fill="#2FD3C7"/>
<path d="M316.428 215.39L289.257 199.704L316.428 183.997L343.618 199.704L316.428 215.39Z" fill="#42E8E0"/>
<path d="M316.428 215.39L289.257 199.704V201.064L316.428 216.751L343.618 201.064V199.704L316.428 215.39Z" fill="white"/>
<path d="M210.525 196.602L183.355 180.896V212.309L210.525 228.016L237.716 212.309V180.896L210.525 196.602Z" fill="#42E8E0"/>
<path d="M210.525 228.016L183.355 212.309V180.896L210.525 196.602V228.016Z" fill="#42E8E0"/>
<path d="M237.715 212.309L210.525 228.016V196.602L237.715 180.896V212.309Z" fill="#2FD3C7"/>
<path d="M210.525 196.602L183.355 180.896L210.525 165.209L237.716 180.896L210.525 196.602Z" fill="#42E8E0"/>
<path d="M210.525 196.602L183.355 180.896V182.256L210.525 197.963L237.716 182.256V180.896L210.525 196.602Z" fill="white"/>
<path d="M175.238 218.131L148.047 202.425V233.818L175.238 249.525L202.408 233.818V202.425L175.238 218.131Z" fill="#42E8E0"/>
<path d="M175.238 249.525L148.047 233.818V202.425L175.238 218.131V249.525Z" fill="#42E8E0"/>
<path d="M202.408 233.818L175.238 249.525V218.131L202.408 202.425V233.818Z" fill="#2FD3C7"/>
<path d="M175.238 218.131L148.047 202.425L175.238 186.718L202.408 202.425L175.238 218.131Z" fill="#42E8E0"/>
<path d="M175.238 218.131L148.047 202.425V203.785L175.238 219.492L202.408 203.785V202.425L175.238 218.131Z" fill="white"/>
<path d="M20.7526 267.752C18.3335 267.752 15.8943 267.472 13.5352 266.912C13.3153 266.852 13.1753 266.632 13.2153 266.412C13.2753 266.192 13.4952 266.072 13.7151 266.092C16.0143 266.632 18.3735 266.912 20.7326 266.912C21.2524 266.952 21.7523 266.892 22.2521 266.872C22.512 266.892 22.6719 267.032 22.6919 267.272C22.7119 267.512 22.532 267.692 22.2921 267.712C21.7922 267.732 21.2724 267.752 20.7526 267.752C20.7526 267.752 20.7726 267.752 20.7526 267.752ZM30.7291 265.771C30.5691 265.771 30.4292 265.691 30.3492 265.531C30.2492 265.331 30.3292 265.071 30.5491 264.971C30.889 264.811 31.2089 264.631 31.5288 264.451L39.0861 260.089C39.286 259.969 39.5459 260.049 39.6459 260.249C39.7659 260.449 39.6859 260.709 39.486 260.829L31.9286 265.191C31.5888 265.371 31.2489 265.571 30.889 265.731C30.849 265.751 30.789 265.771 30.7291 265.771ZM5.59799 263.651C5.51802 263.651 5.43805 263.631 5.37807 263.591C2.31916 261.61 0.419832 259.129 -1.88239e-05 256.608C-0.0400046 256.387 0.119939 256.167 0.33986 256.127C0.559782 256.087 0.779704 256.247 0.81969 256.468C1.19955 258.768 2.97892 261.049 5.81791 262.89C6.01784 263.01 6.05783 263.27 5.93787 263.47C5.87789 263.57 5.73794 263.651 5.59799 263.651ZM46.8233 256.508C46.6834 256.508 46.5434 256.428 46.4635 256.307C46.3435 256.107 46.4235 255.847 46.6234 255.727L54.1807 251.365C54.3807 251.245 54.6406 251.325 54.7405 251.525C54.8605 251.726 54.7805 251.986 54.5806 252.106L47.0233 256.468C46.9633 256.508 46.9033 256.508 46.8233 256.508ZM4.39842 249.785C4.25847 249.785 4.11852 249.705 4.03855 249.585C3.91859 249.385 3.97857 249.124 4.1785 249.004C4.27846 248.944 4.37843 248.884 4.47839 248.824L11.7358 244.623C11.9357 244.503 12.1956 244.583 12.2956 244.783C12.4156 244.983 12.3356 245.243 12.1357 245.363L4.87825 249.565C4.77828 249.625 4.69831 249.665 4.59835 249.725C4.55836 249.765 4.47839 249.785 4.39842 249.785ZM61.938 247.784C61.798 247.784 61.6581 247.704 61.5781 247.584C61.4581 247.384 61.5381 247.124 61.738 247.004L69.2954 242.642C69.4953 242.522 69.7552 242.602 69.8552 242.802C69.9751 243.002 69.8951 243.262 69.6952 243.382L62.1379 247.744C62.0779 247.784 61.998 247.784 61.938 247.784ZM19.513 241.061C19.3731 241.061 19.2331 240.981 19.1532 240.861C19.0332 240.661 19.1132 240.401 19.3131 240.281L26.8704 235.919C27.0704 235.799 27.3303 235.879 27.4302 236.079C27.5502 236.279 27.4702 236.539 27.2703 236.659L19.713 241.021C19.653 241.041 19.573 241.061 19.513 241.061ZM77.0326 239.06C76.8927 239.06 76.7527 238.98 76.6727 238.86C76.5528 238.66 76.6328 238.4 76.8327 238.28L84.39 233.918C84.5899 233.798 84.8498 233.878 84.9498 234.078C85.0698 234.278 84.9898 234.538 84.7899 234.658L77.2325 239.02C77.1726 239.06 77.0926 239.06 77.0326 239.06ZM34.6077 232.337C34.4677 232.337 34.3278 232.257 34.2478 232.137C34.1279 231.937 34.2078 231.677 34.4078 231.557L41.9651 227.195C42.165 227.075 42.4249 227.155 42.5249 227.355C42.6448 227.555 42.5649 227.815 42.3649 227.936L34.8076 232.297C34.7476 232.317 34.6677 232.337 34.6077 232.337ZM92.1273 230.337C91.9873 230.337 91.8474 230.257 91.7674 230.136C91.6474 229.936 91.7274 229.676 91.9273 229.556L99.4846 225.194C99.6846 225.074 99.9445 225.154 100.044 225.354C100.164 225.555 100.084 225.815 99.8845 225.935L92.3272 230.297C92.2672 230.317 92.2072 230.337 92.1273 230.337ZM49.7023 223.614C49.5624 223.614 49.4224 223.534 49.3425 223.414C49.2225 223.214 49.3025 222.953 49.5024 222.833L57.0597 218.472C57.2596 218.352 57.5195 218.432 57.6195 218.632C57.7395 218.832 57.6595 219.092 57.4596 219.212L49.9022 223.574C49.8423 223.594 49.7823 223.614 49.7023 223.614ZM107.222 221.613C107.082 221.613 106.942 221.533 106.862 221.413C106.742 221.213 106.822 220.953 107.022 220.833L114.579 216.471C114.779 216.351 115.039 216.431 115.139 216.631C115.259 216.831 115.179 217.091 114.979 217.191L107.422 221.553C107.362 221.593 107.302 221.613 107.222 221.613ZM64.797 214.89C64.657 214.89 64.5171 214.81 64.4371 214.69C64.3171 214.49 64.3971 214.23 64.597 214.13L72.1543 209.768C72.3543 209.648 72.6142 209.728 72.7141 209.928C72.8341 210.128 72.7541 210.388 72.5542 210.488L64.9969 214.85C64.9569 214.87 64.8769 214.89 64.797 214.89ZM122.317 212.869C122.177 212.869 122.057 212.809 121.977 212.689C121.857 212.489 121.897 212.249 122.097 212.109C124.336 210.608 125.515 208.707 125.515 206.607C125.515 206.126 125.455 205.646 125.335 205.166C125.275 204.946 125.415 204.726 125.635 204.666C125.855 204.606 126.075 204.746 126.135 204.966C126.275 205.506 126.355 206.066 126.355 206.607C126.355 208.988 125.056 211.128 122.576 212.809C122.476 212.849 122.396 212.869 122.317 212.869ZM79.9116 206.166C79.7716 206.166 79.6317 206.086 79.5517 205.966C79.4318 205.766 79.5117 205.506 79.7117 205.406L87.269 201.044C87.4689 200.924 87.7288 201.004 87.8288 201.204C87.9487 201.404 87.8688 201.664 87.6688 201.765L80.1115 206.126C80.0515 206.146 79.9716 206.166 79.9116 206.166ZM120.157 199.023C120.077 199.023 120.017 199.003 119.937 198.963C119.797 198.883 119.657 198.803 119.518 198.723C117.358 197.463 114.739 196.502 111.96 195.902C111.74 195.862 111.6 195.642 111.64 195.402C111.68 195.182 111.9 195.022 112.14 195.082C114.999 195.702 117.698 196.702 119.937 198.003C120.077 198.083 120.217 198.163 120.377 198.263C120.577 198.383 120.637 198.643 120.517 198.843C120.437 198.943 120.297 199.023 120.157 199.023ZM95.0062 197.463C94.8663 197.463 94.7063 197.383 94.6464 197.243C94.5464 197.043 94.6264 196.782 94.8263 196.682C97.1455 195.462 100.104 194.682 103.363 194.461C103.583 194.441 103.783 194.622 103.803 194.842C103.823 195.062 103.643 195.262 103.423 195.282C100.264 195.502 97.4254 196.242 95.2062 197.403C95.1462 197.443 95.0662 197.463 95.0062 197.463Z" fill="white"/>
<path d="M125.895 80.5337V188.719C125.855 191.06 124.436 193.301 121.537 194.982L31.7287 246.884C25.271 250.625 13.975 250.145 6.49768 245.843C2.31917 243.422 0.219912 240.301 0.319877 237.38V129.154L125.895 80.5337Z" fill="#42E8E0"/>
<path d="M31.7287 138.698L121.537 86.7964C127.994 83.0548 127.195 76.5321 119.717 72.2303C112.26 67.9085 100.964 67.4483 94.4864 71.1899L4.6983 123.072C-1.75941 126.813 -0.959692 133.336 6.51765 137.638C13.975 141.96 25.271 142.42 31.7287 138.698Z" fill="#9FFFF8"/>
<path d="M22.7719 131.735C27.0503 131.735 30.5291 128.254 30.5291 123.972V75.9118C30.5291 59.525 42.5049 38.7362 56.6998 30.5528L77.3125 18.6478C82.7505 15.5065 87.6688 14.7262 90.8077 16.5469C93.9266 18.3477 95.7259 22.9896 95.7259 29.2923V77.3525C95.7259 81.6343 99.2047 85.1157 103.483 85.1157C107.762 85.1157 111.24 81.6343 111.24 77.3525V29.2723C111.24 17.1072 106.742 7.80326 98.5649 3.08128C90.3878 -1.6407 80.0915 -0.900393 69.5552 5.18216L48.9426 17.0872C29.9093 28.0718 14.9946 53.9226 14.9946 75.9118V123.972C14.9946 128.254 18.4734 131.735 22.7719 131.735Z" fill="#42E8E0"/>
</g>
<defs>
<linearGradient id="paint0_linear_54_2165" x1="445.279" y1="383.023" x2="14.3385" y2="383.023" gradientUnits="userSpaceOnUse">
<stop stop-color="#5761D7"/>
<stop offset="0.1779" stop-color="#5C66D9"/>
<stop offset="0.3876" stop-color="#6A73DF"/>
<stop offset="0.6134" stop-color="#8289E8"/>
<stop offset="0.849" stop-color="#A3A7F5"/>
<stop offset="1" stop-color="#BCBEFF"/>
</linearGradient>
<linearGradient id="paint1_linear_54_2165" x1="308.559" y1="372.983" x2="-122.381" y2="372.983" gradientUnits="userSpaceOnUse">
<stop stop-color="#C0BFF6"/>
<stop offset="0.2938" stop-color="#C5C4F7"/>
<stop offset="0.6399" stop-color="#D3D2F9"/>
<stop offset="1" stop-color="#E9E9FD"/>
</linearGradient>
<linearGradient id="paint2_linear_54_2165" x1="494.138" y1="183.8" x2="189.172" y2="183.8" gradientUnits="userSpaceOnUse">
<stop stop-color="#C0BFF6"/>
<stop offset="0.2938" stop-color="#C5C4F7"/>
<stop offset="0.6399" stop-color="#D3D2F9"/>
<stop offset="1" stop-color="#E9E9FD"/>
</linearGradient>
<linearGradient id="paint3_linear_54_2165" x1="494.136" y1="262.07" x2="441.77" y2="262.07" gradientUnits="userSpaceOnUse">
<stop stop-color="#5761D7"/>
<stop offset="0.1779" stop-color="#5C66D9"/>
<stop offset="0.3876" stop-color="#6A73DF"/>
<stop offset="0.6134" stop-color="#8289E8"/>
<stop offset="0.849" stop-color="#A3A7F5"/>
<stop offset="1" stop-color="#BCBEFF"/>
</linearGradient>
<linearGradient id="paint4_linear_54_2165" x1="453.28" y1="347.469" x2="22.5686" y2="347.469" gradientUnits="userSpaceOnUse">
<stop stop-color="#5761D7"/>
<stop offset="0.1779" stop-color="#5C66D9"/>
<stop offset="0.3876" stop-color="#6A73DF"/>
<stop offset="0.6134" stop-color="#8289E8"/>
<stop offset="0.849" stop-color="#A3A7F5"/>
<stop offset="1" stop-color="#BCBEFF"/>
</linearGradient>
<linearGradient id="paint5_linear_54_2165" x1="308.559" y1="335.682" x2="-122.381" y2="335.682" gradientUnits="userSpaceOnUse">
<stop stop-color="#C0BFF6"/>
<stop offset="0.2938" stop-color="#C5C4F7"/>
<stop offset="0.6399" stop-color="#D3D2F9"/>
<stop offset="1" stop-color="#E9E9FD"/>
</linearGradient>
<radialGradient id="paint6_radial_54_2165" cx="0" cy="0" r="1" gradientUnits="userSpaceOnUse" gradientTransform="translate(243.287 318.264) scale(321.869 322.118)">
<stop stop-color="#42E8E0"/>
<stop offset="0.1055" stop-color="#37B6BF"/>
<stop offset="0.2197" stop-color="#2C87A1"/>
<stop offset="0.338" stop-color="#235F87"/>
<stop offset="0.4587" stop-color="#1C3F72"/>
<stop offset="0.5824" stop-color="#162561"/>
<stop offset="0.7105" stop-color="#121355"/>
<stop offset="0.8458" stop-color="#10084E"/>
<stop offset="1" stop-color="#0F054C"/>
</radialGradient>
<linearGradient id="paint7_linear_54_2165" x1="21.8133" y1="330.125" x2="453.987" y2="330.125" gradientUnits="userSpaceOnUse">
<stop stop-color="#42E8E0"/>
<stop offset="0.1055" stop-color="#37B6BF"/>
<stop offset="0.2197" stop-color="#2C87A1"/>
<stop offset="0.338" stop-color="#235F87"/>
<stop offset="0.4587" stop-color="#1C3F72"/>
<stop offset="0.5824" stop-color="#162561"/>
<stop offset="0.7105" stop-color="#121355"/>
<stop offset="0.8458" stop-color="#10084E"/>
<stop offset="1" stop-color="#0F054C"/>
</linearGradient>
<linearGradient id="paint8_linear_54_2165" x1="618.901" y1="252.604" x2="188.191" y2="252.604" gradientUnits="userSpaceOnUse">
<stop stop-color="#5761D7"/>
<stop offset="0.1779" stop-color="#5C66D9"/>
<stop offset="0.3876" stop-color="#6A73DF"/>
<stop offset="0.6134" stop-color="#8289E8"/>
<stop offset="0.849" stop-color="#A3A7F5"/>
<stop offset="1" stop-color="#BCBEFF"/>
</linearGradient>
<linearGradient id="paint9_linear_54_2165" x1="474.181" y1="240.818" x2="43.2407" y2="240.818" gradientUnits="userSpaceOnUse">
<stop stop-color="#C0BFF6"/>
<stop offset="0.2938" stop-color="#C5C4F7"/>
<stop offset="0.6399" stop-color="#D3D2F9"/>
<stop offset="1" stop-color="#E9E9FD"/>
</linearGradient>
<clipPath id="clip0_54_2165">
<rect width="619" height="524" fill="white"/>
</clipPath>
</defs>
</svg>
