<svg width="558" height="484" viewBox="0 0 558 484" fill="none" xmlns="http://www.w3.org/2000/svg">
<path d="M487.797 384.733L479.043 379.699L480.946 378.589L489.715 383.639L487.797 384.733Z" fill="#42E8E0"/>
<path d="M495.276 389.043L490.892 386.518L492.81 385.424L497.179 387.949L495.276 389.043Z" fill="#42E8E0"/>
<path d="M485.911 388.802L482.171 386.663L484.089 385.553L487.813 387.708L485.911 388.802Z" fill="#42E8E0"/>
<path d="M492.165 392.405L487.781 389.88L489.683 388.786L494.067 391.311L492.165 392.405Z" fill="#42E8E0"/>
<path d="M494.906 399.143L477.705 389.236L479.608 388.142L496.824 398.05L494.906 399.143Z" fill="#42E8E0"/>
<path d="M445.804 418.765L428.587 408.858L430.506 407.748L447.706 417.672L445.804 418.765Z" fill="#42E8E0"/>
<path d="M452.413 422.577L448.044 420.052L449.946 418.958L454.331 421.483L452.413 422.577Z" fill="#42E8E0"/>
<path d="M476.948 393.965L473.224 391.81L475.126 390.716L478.866 392.871L476.948 393.965Z" fill="#42E8E0"/>
<path d="M483.202 397.567L478.818 395.042L480.736 393.948L485.105 396.458L483.202 397.567Z" fill="#42E8E0"/>
<path d="M478.205 399.851L468.743 394.399L470.661 393.289L480.107 398.741L478.205 399.851Z" fill="#42E8E0"/>
<path d="M484.54 403.486L480.156 400.961L482.074 399.867L486.443 402.392L484.54 403.486Z" fill="#42E8E0"/>
<path d="M490.908 407.153L486.523 404.628L488.425 403.534L492.81 406.059L490.908 407.153Z" fill="#42E8E0"/>
<path d="M501.176 413.072L492.891 408.295L494.793 407.201L503.078 411.978L501.176 413.072Z" fill="#42E8E0"/>
<path d="M487.249 415.372L482.88 412.847L484.782 411.753L489.167 414.278L487.249 415.372Z" fill="#42E8E0"/>
<path d="M497.517 421.29L489.231 416.514L491.15 415.42L499.435 420.197L497.517 421.29Z" fill="#42E8E0"/>
<path d="M464.164 402.071L459.796 399.546L461.698 398.452L466.083 400.977L464.164 402.071Z" fill="#42E8E0"/>
<path d="M470.532 405.738L466.147 403.213L468.065 402.119L472.45 404.644L470.532 405.738Z" fill="#42E8E0"/>
<path d="M480.8 411.657L472.515 406.88L474.433 405.786L482.719 410.563L480.8 411.657Z" fill="#42E8E0"/>
<path d="M497.952 416.369L493.568 413.86L495.47 412.75L499.854 415.275L497.952 416.369Z" fill="#42E8E0"/>
<path d="M504.32 420.036L499.935 417.511L501.837 416.417L506.222 418.942L504.32 420.036Z" fill="#42E8E0"/>
<path d="M459.264 426.518L454.895 423.993L456.798 422.899L461.182 425.424L459.264 426.518Z" fill="#42E8E0"/>
<path d="M469.549 432.436L461.263 427.66L463.165 426.566L471.451 431.343L469.549 432.436Z" fill="#42E8E0"/>
<path d="M455.218 407.234L450.833 404.708L452.751 403.615L457.12 406.14L455.218 407.234Z" fill="#42E8E0"/>
<path d="M465.486 413.152L457.201 408.375L459.103 407.282L467.389 412.042L465.486 413.152Z" fill="#42E8E0"/>
<path d="M460.36 432.308L455.975 429.783L457.894 428.689L462.262 431.214L460.36 432.308Z" fill="#42E8E0"/>
<path d="M470.629 438.226L462.343 433.45L464.261 432.356L472.531 437.117L470.629 438.226Z" fill="#42E8E0"/>
<path d="M507.995 406.687L503.611 404.162L505.529 403.068L509.897 405.593L507.995 406.687Z" fill="#42E8E0"/>
<path d="M501.37 402.875L497.001 400.35L498.903 399.256L503.288 401.781L501.37 402.875Z" fill="#42E8E0"/>
<path d="M518.264 412.605L509.978 407.829L511.896 406.735L520.182 411.512L518.264 412.605Z" fill="#42E8E0"/>
<path d="M468.211 399.256L464.261 396.972L466.179 395.879L470.129 398.146L468.211 399.256Z" fill="#42E8E0"/>
<path d="M479.93 405.995L470.338 400.462L472.241 399.369L481.848 404.901L479.93 405.995Z" fill="#42E8E0"/>
<path d="M491.649 412.75L482.042 407.217L483.96 406.108L493.552 411.64L491.649 412.75Z" fill="#42E8E0"/>
<path d="M465.003 407.716L455.395 402.183L457.313 401.073L466.905 406.606L465.003 407.716Z" fill="#42E8E0"/>
<path d="M470.064 410.627L467.114 408.922L469.017 407.829L471.967 409.533L470.064 410.627Z" fill="#42E8E0"/>
<path d="M475.142 413.554L472.192 411.85L474.094 410.756L477.044 412.445L475.142 413.554Z" fill="#42E8E0"/>
<path d="M484.508 418.958L477.254 414.777L479.172 413.667L486.426 417.849L484.508 418.958Z" fill="#42E8E0"/>
<path d="M486.491 420.084L479.237 415.903L481.139 414.809L488.393 418.991L486.491 420.084Z" fill="#42E8E0"/>
<path d="M506.077 415.902L503.127 414.198L505.029 413.104L507.979 414.793L506.077 415.902Z" fill="#42E8E0"/>
<path d="M436.712 423.848L427.249 418.395L429.168 417.302L438.614 422.738L436.712 423.848Z" fill="#42E8E0"/>
<path d="M443.047 427.499L438.662 424.974L440.581 423.864L444.949 426.389L443.047 427.499Z" fill="#42E8E0"/>
<path d="M449.415 431.15L445.03 428.641L446.932 427.531L451.317 430.056L449.415 431.15Z" fill="#42E8E0"/>
<path d="M459.683 437.068L451.397 432.308L453.299 431.198L461.585 435.975L459.683 437.068Z" fill="#42E8E0"/>
<path d="M445.546 439.256L441.161 436.731L443.079 435.621L447.448 438.146L445.546 439.256Z" fill="#42E8E0"/>
<path d="M455.814 445.158L447.528 440.398L449.447 439.288L457.733 444.065L455.814 445.158Z" fill="#42E8E0"/>
<path d="M422.671 426.067L418.302 423.558L420.205 422.448L424.589 424.974L422.671 426.067Z" fill="#42E8E0"/>
<path d="M429.039 429.734L424.654 427.225L426.572 426.115L430.957 428.641L429.039 429.734Z" fill="#42E8E0"/>
<path d="M439.307 435.653L431.021 430.892L432.94 429.782L441.225 434.559L439.307 435.653Z" fill="#42E8E0"/>
<path d="M426.717 423.253L422.768 420.969L424.686 419.875L428.636 422.143L426.717 423.253Z" fill="#42E8E0"/>
<path d="M438.437 429.992L428.829 424.459L430.747 423.365L440.355 428.898L438.437 429.992Z" fill="#42E8E0"/>
<path d="M450.156 436.747L440.548 431.214L442.467 430.12L452.058 435.653L450.156 436.747Z" fill="#42E8E0"/>
<path d="M415.756 427.257L406.164 421.725L408.066 420.615L417.674 426.148L415.756 427.257Z" fill="#42E8E0"/>
<path d="M420.817 430.169L417.867 428.464L419.786 427.37L422.736 429.059L420.817 430.169Z" fill="#42E8E0"/>
<path d="M425.895 433.096L422.945 431.391L424.863 430.297L427.797 431.986L425.895 433.096Z" fill="#42E8E0"/>
<path d="M435.277 438.484L428.023 434.318L429.925 433.208L437.179 437.39L435.277 438.484Z" fill="#42E8E0"/>
<path d="M437.244 439.626L429.99 435.444L431.892 434.35L439.162 438.532L437.244 439.626Z" fill="#42E8E0"/>
<path d="M434.81 417.591L431.86 415.886L433.778 414.793L436.728 416.498L434.81 417.591Z" fill="#42E8E0"/>
<path d="M444.192 422.995L436.937 418.814L438.84 417.72L446.094 421.902L444.192 422.995Z" fill="#42E8E0"/>
<path d="M453.767 428.512L446.513 424.33L448.431 423.237L455.685 427.418L453.767 428.512Z" fill="#42E8E0"/>
<path d="M441.79 404.66L438.84 402.955L440.742 401.862L443.692 403.55L441.79 404.66Z" fill="#42E8E0"/>
<path d="M451.155 410.064L443.901 405.882L445.82 404.773L453.074 408.954L451.155 410.064Z" fill="#42E8E0"/>
<path d="M460.747 415.581L453.493 411.399L455.395 410.289L462.649 414.471L460.747 415.581Z" fill="#42E8E0"/>
<path opacity="0.1" d="M394.477 203.762L318.116 159.773L421.349 100.313L497.694 144.301L394.477 203.762Z" fill="#42E8E0"/>
<path d="M172.905 298.686C152.046 298.686 131.186 294.118 115.308 284.967C99.8645 276.073 91.3692 264.235 91.3692 251.626C91.3692 239.016 99.8645 227.179 115.308 218.285C147.064 199.982 198.746 199.982 230.502 218.285C245.946 227.179 254.441 239.016 254.441 251.626C254.441 264.235 245.946 276.073 230.502 284.967C214.624 294.118 193.765 298.686 172.905 298.686ZM172.905 205.112C152.142 205.112 131.396 209.664 115.582 218.767C100.332 227.549 91.9173 239.226 91.9173 251.626C91.9173 264.026 100.316 275.687 115.582 284.484C147.193 302.691 198.617 302.691 230.228 284.484L230.374 284.726L230.228 284.484C245.478 275.703 253.893 264.026 253.893 251.626C253.893 239.226 245.494 227.565 230.228 218.767C214.415 209.664 193.668 205.112 172.905 205.112Z" fill="#42E8E0"/>
<path d="M360.207 160.581L222.721 233.927L222.987 234.424L360.473 161.078L360.207 160.581Z" fill="#42E8E0"/>
<path d="M140.665 215.293C158.477 205.032 187.333 205.032 205.145 215.293C208.031 216.95 210.449 218.784 212.399 220.73C222.475 210.678 220.073 197.618 205.145 189.029C187.333 178.768 158.477 178.768 140.665 189.029C125.754 197.618 123.335 210.694 133.411 220.73C135.361 218.784 137.779 216.95 140.665 215.293Z" fill="#5351AF"/>
<path d="M241.641 207.718C238.401 204.695 234.516 201.832 229.97 199.21C222.878 195.125 214.769 191.957 206.129 189.721C222.732 200.223 222.233 216.5 204.613 226.649C186.478 237.103 157.059 237.103 138.908 226.649C121.885 216.854 120.837 201.333 135.732 190.815C128.575 192.954 121.852 195.752 115.84 199.21C111.294 201.832 107.393 204.695 104.169 207.718H92.2074V232.085C92.2074 243.987 100.09 255.872 115.84 264.959C147.355 283.118 198.456 283.118 229.97 264.959C245.736 255.888 253.603 243.987 253.603 232.085V207.718H241.641Z" fill="url(#paint0_linear_54_2942)"/>
<path opacity="0.3" d="M229.97 199.21C222.878 195.125 214.769 191.957 206.129 189.721C222.733 200.223 222.233 216.5 204.613 226.649C195.828 231.699 184.415 234.304 172.905 234.465V278.566C193.555 278.566 214.205 274.03 229.97 264.943C245.736 255.872 253.603 243.97 253.603 232.069V207.702H241.641C238.417 204.695 234.516 201.832 229.97 199.21Z" fill="#0F054C"/>
<path opacity="0.5" d="M229.97 199.21C222.878 195.125 214.769 191.957 206.129 189.721C222.733 200.223 222.233 216.5 204.613 226.649C195.828 231.699 184.415 234.304 172.905 234.465V278.566C193.555 278.566 214.205 274.03 229.97 264.943C245.736 255.872 253.603 243.97 253.603 232.069V207.702H241.641C238.417 204.695 234.516 201.832 229.97 199.21Z" fill="url(#paint1_radial_54_2942)"/>
<path d="M229.97 176.854C198.456 158.696 147.355 158.696 115.84 176.854C84.3246 195.012 84.3246 224.445 115.84 242.603C147.355 260.762 198.456 260.762 229.97 242.603C261.485 224.445 261.485 195.012 229.97 176.854ZM205.178 228.643C187.042 239.097 157.623 239.097 139.472 228.643C121.32 218.189 121.32 201.253 139.472 190.798C157.623 180.344 187.026 180.344 205.178 190.798C223.329 201.253 223.329 218.205 205.178 228.643Z" fill="#5351AF"/>
<path d="M229.97 240.094C198.456 258.252 147.355 258.252 115.84 240.094C100.638 231.329 92.7716 219.958 92.2396 208.474C91.6593 220.778 99.5259 233.21 115.84 242.603C147.355 260.761 198.456 260.761 229.97 242.603C246.284 233.21 254.151 220.794 253.57 208.474C253.038 219.942 245.172 231.329 229.97 240.094Z" fill="white"/>
<path d="M205.178 188.289C187.026 177.835 157.623 177.835 139.472 188.289C129.848 193.838 125.334 201.204 125.915 208.474C126.431 202.057 130.96 195.704 139.472 190.798C157.623 180.344 187.026 180.344 205.178 190.798C213.689 195.704 218.219 202.041 218.735 208.474C219.331 201.204 214.801 193.838 205.178 188.289Z" fill="white"/>
<path d="M226.311 176.838C196.972 159.934 149.402 159.934 120.063 176.838C90.7243 193.742 90.7243 221.132 120.063 238.036C149.402 254.939 196.972 254.939 226.311 238.036C255.65 221.132 255.65 193.726 226.311 176.838ZM204.92 225.716C187.397 235.816 158.993 235.816 141.455 225.716C123.932 215.615 123.932 199.258 141.455 189.158C158.977 179.057 187.381 179.057 204.92 189.158C222.442 199.242 222.442 215.615 204.92 225.716Z" fill="url(#paint2_linear_54_2942)"/>
<path opacity="0.4" d="M241.641 185.362C238.401 182.338 234.516 179.476 229.97 176.854C222.878 172.769 214.769 169.6 206.129 167.365C222.732 177.867 222.233 194.144 204.613 204.292C186.478 214.747 157.059 214.747 138.908 204.292C121.885 194.498 120.837 178.977 135.732 168.458C128.575 170.598 121.852 173.396 115.84 176.854C111.294 179.476 107.393 182.338 104.169 185.362H92.2074V209.729C92.2074 221.63 100.09 233.516 115.84 242.603C147.355 260.761 198.456 260.761 229.97 242.603C245.736 233.532 253.603 221.63 253.603 209.729V185.362H241.641Z" fill="#42E8E0"/>
<path d="M140.665 178.72C158.477 168.458 187.333 168.458 205.145 178.72C208.031 180.376 210.449 182.21 212.399 184.156C222.475 174.104 220.073 161.044 205.145 152.455C187.333 142.194 158.477 142.194 140.665 152.455C125.754 161.044 123.335 174.12 133.411 184.156C135.361 182.226 137.779 180.392 140.665 178.72Z" fill="#5351AF"/>
<path d="M241.641 171.16C238.401 168.137 234.516 165.274 229.97 162.652C222.878 158.567 214.769 155.398 206.129 153.163C222.732 163.665 222.233 179.942 204.613 190.091C186.478 200.545 157.059 200.545 138.908 190.091C121.885 180.296 120.837 164.775 135.732 154.257C128.575 156.396 121.852 159.194 115.84 162.652C111.294 165.274 107.393 168.137 104.169 171.16H92.2074V195.527C92.2074 207.428 100.09 219.314 115.84 228.401C147.355 246.56 198.456 246.56 229.97 228.401C245.736 219.33 253.603 207.428 253.603 195.527V171.16H241.641Z" fill="url(#paint3_linear_54_2942)"/>
<path opacity="0.3" d="M229.97 162.652C222.878 158.567 214.769 155.398 206.129 153.163C222.733 163.665 222.233 179.942 204.613 190.09C195.828 195.141 184.415 197.746 172.905 197.907V242.008C193.555 242.008 214.205 237.472 229.97 228.385C245.736 219.314 253.603 207.412 253.603 195.511V171.144H241.641C238.417 168.137 234.516 165.274 229.97 162.652Z" fill="#0F054C"/>
<path opacity="0.5" d="M229.97 162.652C222.878 158.567 214.769 155.398 206.129 153.163C222.733 163.665 222.233 179.942 204.613 190.09C195.828 195.141 184.415 197.746 172.905 197.907V242.008C193.555 242.008 214.205 237.472 229.97 228.385C245.736 219.314 253.603 207.412 253.603 195.511V171.144H241.641C238.417 168.137 234.516 165.274 229.97 162.652Z" fill="url(#paint4_radial_54_2942)"/>
<path d="M229.97 140.296C198.456 122.138 147.355 122.138 115.84 140.296C84.3246 158.454 84.3246 187.887 115.84 206.045C147.355 224.204 198.456 224.204 229.97 206.045C261.485 187.887 261.485 158.454 229.97 140.296ZM205.178 192.085C187.042 202.539 157.623 202.539 139.472 192.085C121.32 181.631 121.32 164.695 139.472 154.241C157.623 143.786 187.026 143.786 205.178 154.241C223.329 164.695 223.329 181.631 205.178 192.085Z" fill="#5351AF"/>
<path d="M229.97 203.536C198.456 221.695 147.355 221.695 115.84 203.536C100.638 194.771 92.7716 183.4 92.2396 171.916C91.6593 184.22 99.5259 196.653 115.84 206.045C147.355 224.204 198.456 224.204 229.97 206.045C246.284 196.653 254.151 184.236 253.57 171.916C253.038 183.384 245.172 194.771 229.97 203.536Z" fill="white"/>
<path d="M205.178 151.732C187.026 141.277 157.623 141.277 139.472 151.732C129.848 157.28 125.334 164.647 125.915 171.916C126.431 165.499 130.96 159.146 139.472 154.241C157.623 143.786 187.026 143.786 205.178 154.241C213.689 159.146 218.219 165.483 218.735 171.916C219.331 164.647 214.801 157.28 205.178 151.732Z" fill="white"/>
<path d="M226.311 140.28C196.972 123.376 149.402 123.376 120.063 140.28C90.7243 157.184 90.7243 184.574 120.063 201.478C149.402 218.381 196.972 218.381 226.311 201.478C255.65 184.574 255.65 157.168 226.311 140.28ZM204.92 189.142C187.397 199.242 158.993 199.242 141.455 189.142C123.932 179.041 123.932 162.684 141.455 152.584C158.977 142.484 187.381 142.484 204.92 152.584C222.442 162.684 222.442 179.057 204.92 189.142Z" fill="url(#paint5_linear_54_2942)"/>
<path opacity="0.4" d="M241.641 148.804C238.401 145.781 234.516 142.918 229.97 140.296C222.878 136.211 214.769 133.042 206.129 130.807C222.732 141.309 222.233 157.586 204.613 167.735C186.478 178.189 157.059 178.189 138.908 167.735C121.885 157.94 120.837 142.419 135.732 131.901C128.575 134.04 121.852 136.838 115.84 140.296C111.294 142.918 107.393 145.781 104.169 148.804H92.2074V173.171C92.2074 185.073 100.09 196.958 115.84 206.045C147.355 224.204 198.456 224.204 229.97 206.045C245.736 196.974 253.603 185.073 253.603 173.171V148.804H241.641Z" fill="#42E8E0"/>
<path d="M140.665 142.162C158.477 131.901 187.333 131.901 205.145 142.162C208.031 143.819 210.449 145.652 212.399 147.598C222.475 137.546 220.073 124.486 205.145 115.898C187.333 105.636 158.477 105.636 140.665 115.898C125.754 124.486 123.335 137.562 133.411 147.598C135.361 145.668 137.779 143.835 140.665 142.162Z" fill="#5351AF"/>
<path d="M241.641 134.603C238.401 131.579 234.516 128.716 229.97 126.094C222.878 122.009 214.769 118.841 206.129 116.605C222.732 127.108 222.233 143.384 204.613 153.533C186.478 163.987 157.059 163.987 138.908 153.533C121.885 143.738 120.837 128.217 135.732 117.699C128.575 119.838 121.852 122.637 115.84 126.094C111.294 128.716 107.393 131.579 104.169 134.603H92.2074V158.969C92.2074 170.871 100.09 182.757 115.84 191.844C147.355 210.002 198.456 210.002 229.97 191.844C245.736 182.773 253.603 170.871 253.603 158.969V134.603H241.641Z" fill="url(#paint6_linear_54_2942)"/>
<path opacity="0.3" d="M229.97 126.094C222.878 122.009 214.769 118.841 206.129 116.605C222.733 127.108 222.233 143.384 204.613 153.533C195.828 158.583 184.415 161.189 172.905 161.349V205.45C193.555 205.45 214.205 200.915 229.97 191.828C245.736 182.757 253.603 170.855 253.603 158.953V134.603H241.641C238.417 131.579 234.516 128.716 229.97 126.094Z" fill="#0F054C"/>
<path opacity="0.5" d="M229.97 126.094C222.878 122.009 214.769 118.841 206.129 116.605C222.733 127.108 222.233 143.384 204.613 153.533C195.828 158.583 184.415 161.189 172.905 161.349V205.45C193.555 205.45 214.205 200.915 229.97 191.828C245.736 182.757 253.603 170.855 253.603 158.953V134.603H241.641C238.417 131.579 234.516 128.716 229.97 126.094Z" fill="url(#paint7_radial_54_2942)"/>
<path d="M229.97 103.739C198.456 85.5803 147.355 85.5803 115.84 103.739C84.3246 121.897 84.3246 151.33 115.84 169.488C147.355 187.646 198.456 187.646 229.97 169.488C261.485 151.33 261.485 121.897 229.97 103.739ZM205.178 155.527C187.042 165.982 157.623 165.982 139.472 155.527C121.32 145.073 121.32 128.137 139.472 117.683C157.623 107.229 187.026 107.229 205.178 117.683C223.329 128.137 223.329 145.073 205.178 155.527Z" fill="#5351AF"/>
<path d="M229.97 166.963C198.456 185.121 147.355 185.121 115.84 166.963C100.638 158.197 92.7716 146.826 92.2396 135.343C91.6593 147.646 99.5259 160.079 115.84 169.472C147.355 187.63 198.456 187.63 229.97 169.472C246.284 160.079 254.151 147.662 253.57 135.343C253.038 146.826 245.172 158.213 229.97 166.963Z" fill="white"/>
<path d="M205.178 115.174C187.026 104.72 157.623 104.72 139.472 115.174C129.848 120.723 125.334 128.089 125.915 135.359C126.431 128.941 130.96 122.588 139.472 117.683C157.623 107.229 187.026 107.229 205.178 117.683C213.689 122.588 218.219 128.925 218.735 135.359C219.331 128.089 214.801 120.723 205.178 115.174Z" fill="white"/>
<path d="M226.311 103.706C196.972 86.8026 149.402 86.8026 120.063 103.706C90.7243 120.61 90.7243 148 120.063 164.904C149.402 181.808 196.972 181.808 226.311 164.904C255.65 148.016 255.65 120.61 226.311 103.706ZM204.92 152.584C187.397 162.684 158.993 162.684 141.455 152.584C123.932 142.484 123.932 126.127 141.455 116.026C158.977 105.926 187.381 105.926 204.92 116.026C222.442 126.127 222.442 142.5 204.92 152.584Z" fill="url(#paint8_linear_54_2942)"/>
<path opacity="0.4" d="M241.641 112.247C238.401 109.223 234.516 106.36 229.97 103.739C222.878 99.6533 214.769 96.4849 206.129 94.2493C222.732 104.752 222.233 121.028 204.613 131.177C186.478 141.631 157.059 141.631 138.908 131.177C121.885 121.382 120.837 105.862 135.732 95.3429C128.575 97.482 121.852 100.281 115.84 103.739C111.294 106.36 107.393 109.223 104.169 112.247H92.2074V136.613C92.2074 148.515 100.09 160.401 115.84 169.488C147.355 187.646 198.456 187.646 229.97 169.488C245.736 160.417 253.603 148.515 253.603 136.613V112.247H241.641Z" fill="#42E8E0"/>
<path d="M140.665 105.604C158.477 95.3428 187.333 95.3428 205.145 105.604C208.031 107.261 210.449 109.094 212.399 111.04C222.475 100.988 220.073 87.9283 205.145 79.3397C187.333 69.0785 158.477 69.0785 140.665 79.3397C125.754 87.9283 123.335 101.004 133.411 111.04C135.361 109.11 137.779 107.277 140.665 105.604Z" fill="#5351AF"/>
<path d="M241.641 98.0448C238.401 95.0211 234.516 92.1582 229.97 89.5366C222.878 85.4514 214.769 82.283 206.129 80.0474C222.732 90.5499 222.233 106.826 204.613 116.975C186.478 127.429 157.059 127.429 138.908 116.975C121.885 107.18 120.837 91.6596 135.732 81.141C128.575 83.2801 121.852 86.0787 115.84 89.5366C111.294 92.1582 107.393 95.0211 104.169 98.0448H92.2074V122.411C92.2074 134.313 100.09 146.199 115.84 155.286C147.355 173.444 198.456 173.444 229.97 155.286C245.736 146.215 253.603 134.313 253.603 122.411V98.0448H241.641Z" fill="url(#paint9_linear_54_2942)"/>
<path d="M241.641 98.0448C238.401 95.0211 234.516 92.1582 229.97 89.5366C222.878 85.4514 214.769 82.283 206.129 80.0474C222.732 90.5499 222.233 106.826 204.613 116.975C186.478 127.429 157.059 127.429 138.908 116.975C121.885 107.18 120.837 91.6596 135.732 81.141C128.575 83.2801 121.852 86.0787 115.84 89.5366C111.294 92.1582 107.393 95.0211 104.169 98.0448H92.2074V122.411C92.2074 134.313 100.09 146.199 115.84 155.286C147.355 173.444 198.456 173.444 229.97 155.286C245.736 146.215 253.603 134.313 253.603 122.411V98.0448H241.641Z" fill="url(#paint10_linear_54_2942)"/>
<path opacity="0.3" d="M229.97 89.5366C222.878 85.4514 214.769 82.283 206.129 80.0474C222.733 90.5499 222.233 106.826 204.613 116.975C195.828 122.025 184.415 124.631 172.905 124.792V168.892C193.555 168.892 214.205 164.357 229.97 155.27C245.736 146.199 253.603 134.297 253.603 122.395V98.0448H241.641C238.417 95.0211 234.516 92.1582 229.97 89.5366Z" fill="#0F054C"/>
<path opacity="0.5" d="M229.97 89.5366C222.878 85.4514 214.769 82.283 206.129 80.0474C222.733 90.5499 222.233 106.826 204.613 116.975C195.828 122.025 184.415 124.631 172.905 124.792V168.892C193.555 168.892 214.205 164.357 229.97 155.27C245.736 146.199 253.603 134.297 253.603 122.395V98.0448H241.641C238.417 95.0211 234.516 92.1582 229.97 89.5366Z" fill="url(#paint11_radial_54_2942)"/>
<path d="M229.97 67.1807C198.456 49.0225 147.355 49.0225 115.84 67.1807C84.3246 85.3389 84.3246 114.772 115.84 132.93C147.355 151.088 198.456 151.088 229.97 132.93C261.485 114.772 261.485 85.3229 229.97 67.1807ZM205.178 118.969C187.042 129.424 157.623 129.424 139.472 118.969C121.32 108.515 121.32 91.5793 139.472 81.1251C157.623 70.6708 187.026 70.6708 205.178 81.1251C223.329 91.5793 223.329 108.515 205.178 118.969Z" fill="url(#paint12_linear_54_2942)"/>
<path d="M229.97 130.405C198.456 148.563 147.355 148.563 115.84 130.405C100.638 121.639 92.7716 110.268 92.2396 98.7847C91.6593 111.105 99.5259 123.521 115.84 132.914C147.355 151.072 198.456 151.072 229.97 132.914C246.284 123.521 254.151 111.105 253.57 98.7847C253.038 110.268 245.172 121.655 229.97 130.405Z" fill="white"/>
<path d="M226.311 68.8695C196.972 51.9657 149.402 51.9657 120.063 68.8695C90.7243 85.7732 90.7243 113.163 120.063 130.067C149.402 146.971 196.972 146.971 226.311 130.067C255.65 113.163 255.65 85.7571 226.311 68.8695ZM204.92 117.731C187.397 127.831 158.993 127.831 141.455 117.731C123.932 107.631 123.932 91.2737 141.455 81.1733C158.977 71.0729 187.381 71.0729 204.92 81.1733C222.442 91.2737 222.442 107.647 204.92 117.731Z" fill="#24126A"/>
<path d="M257.858 458.878C254.151 458.878 250.604 458.138 247.944 456.61L118.274 381.918C115.678 380.422 114.244 378.331 114.244 376.048C114.244 373.297 116.307 370.547 119.886 368.472L367.202 226.005C373.924 222.129 384.144 221.711 389.979 225.072L519.65 299.764C522.245 301.259 523.68 303.35 523.68 305.634C523.68 308.384 521.617 311.135 518.038 313.21L270.722 455.677C267.063 457.8 262.34 458.878 257.858 458.878ZM380.082 223.351C375.713 223.351 371.087 224.413 367.492 226.487L120.176 368.955C116.758 370.917 114.808 373.506 114.808 376.048C114.808 378.122 116.146 380.036 118.564 381.436L248.235 456.127C253.909 459.408 263.887 458.99 270.448 455.194L517.764 312.727C521.182 310.765 523.132 308.175 523.132 305.634C523.132 303.559 521.794 301.645 519.376 300.246L389.705 225.555C387.142 224.075 383.693 223.351 380.082 223.351Z" fill="#42E8E0"/>
<path d="M523.422 271.135L504.787 274.336L389.85 208.12C384.079 204.791 374.004 205.209 367.347 209.053L147.451 335.726L114.518 341.388V353.032H114.534C114.518 355.155 115.775 357.182 118.419 358.694L248.09 433.385C253.861 436.715 263.936 436.296 270.593 432.452L517.909 289.985C521.488 287.926 523.342 285.289 523.406 282.78H523.422V271.135Z" fill="url(#paint13_linear_54_2942)"/>
<path d="M248.089 421.661L118.419 346.969C112.648 343.64 113.373 337.849 120.031 334.006L367.347 191.538C374.004 187.71 384.079 187.292 389.85 190.605L519.521 265.297C525.292 268.626 524.567 274.416 517.909 278.26L270.593 420.744C263.936 424.572 253.861 424.99 248.089 421.661Z" fill="#24126A"/>
<path d="M517.909 278.276L270.593 420.744C263.936 424.571 253.861 424.99 248.09 421.676L118.419 346.985C116.114 345.65 114.856 343.913 114.598 342.079C114.244 344.476 115.485 346.808 118.419 348.497L248.09 423.188C253.861 426.518 263.936 426.099 270.593 422.255L517.909 279.788C521.891 277.488 523.745 274.497 523.342 271.73C523.003 274.03 521.182 276.394 517.909 278.276Z" fill="white"/>
<path opacity="0.51" d="M248.347 418.766L123.287 346.712C117.71 343.495 118.403 337.882 124.851 334.166L367.588 194.385C374.036 190.67 383.773 190.268 389.351 193.484L514.411 265.538C519.989 268.755 519.295 274.368 512.847 278.083L270.11 417.865C263.678 421.58 253.925 421.982 248.347 418.766Z" fill="#453C9E"/>
<g opacity="0.3">
<path opacity="0.5" d="M248.347 418.766L123.287 346.712C117.71 343.495 118.403 337.882 124.851 334.166L367.588 194.385C374.036 190.67 383.773 190.268 389.351 193.484L514.411 265.538C519.989 268.755 519.295 274.368 512.847 278.083L270.11 417.865C263.678 421.58 253.925 421.982 248.347 418.766Z" fill="url(#paint14_radial_54_2942)"/>
<g opacity="0.3">
<g opacity="0.3">
<path opacity="0.3" d="M140.665 362.763C158.477 352.501 187.333 352.501 205.145 362.763C208.031 364.419 210.449 366.253 212.399 368.199C222.475 358.147 220.073 345.087 205.145 336.498C187.333 326.237 158.477 326.237 140.665 336.498C125.754 345.087 123.335 358.163 133.411 368.199C135.361 366.253 137.779 364.419 140.665 362.763Z" fill="#5351AF"/>
<path opacity="0.3" d="M241.641 355.187C238.401 352.164 234.516 349.301 229.97 346.679C222.878 342.594 214.769 339.426 206.129 337.19C222.732 347.692 222.233 363.969 204.613 374.118C186.478 384.572 157.059 384.572 138.908 374.118C121.885 364.323 120.837 348.802 135.732 338.284C128.575 340.423 121.852 343.221 115.84 346.679C111.294 349.301 107.393 352.164 104.169 355.187H92.2074V379.554C92.2074 391.456 100.09 403.341 115.84 412.428C147.355 430.587 198.456 430.587 229.97 412.428C245.736 403.357 253.603 391.456 253.603 379.554V355.187H241.641Z" fill="url(#paint15_linear_54_2942)"/>
<path opacity="0.3" d="M229.97 346.679C222.878 342.594 214.769 339.426 206.129 337.19C222.733 347.692 222.233 363.969 204.613 374.118C195.828 379.168 184.415 381.773 172.905 381.934V426.035C193.555 426.035 214.205 421.5 229.97 412.412C245.736 403.341 253.603 391.44 253.603 379.538V355.171H241.641C238.417 352.164 234.516 349.301 229.97 346.679Z" fill="#0F054C"/>
<path opacity="0.5" d="M229.97 346.679C222.878 342.594 214.769 339.426 206.129 337.19C222.733 347.692 222.233 363.969 204.613 374.118C195.828 379.168 184.415 381.773 172.905 381.934V426.035C193.555 426.035 214.205 421.5 229.97 412.412C245.736 403.341 253.603 391.44 253.603 379.538V355.171H241.641C238.417 352.164 234.516 349.301 229.97 346.679Z" fill="url(#paint16_radial_54_2942)"/>
<path opacity="0.3" d="M229.97 324.323C198.456 306.165 147.355 306.165 115.84 324.323C84.3246 342.482 84.3246 371.914 115.84 390.073C147.355 408.231 198.456 408.231 229.97 390.073C261.485 371.914 261.485 342.482 229.97 324.323ZM205.178 376.112C187.042 386.566 157.623 386.566 139.472 376.112C121.32 365.658 121.32 348.722 139.472 338.268C157.623 327.813 187.026 327.813 205.178 338.268C223.329 348.722 223.329 365.674 205.178 376.112Z" fill="#5351AF"/>
<g opacity="0.3">
<path opacity="0.3" d="M229.97 387.563C198.456 405.722 147.355 405.722 115.84 387.563C100.638 378.798 92.7716 367.427 92.2396 355.943C91.6593 368.247 99.5259 380.68 115.84 390.073C147.355 408.231 198.456 408.231 229.97 390.073C246.284 380.68 254.151 368.263 253.57 355.943C253.038 367.411 245.172 378.798 229.97 387.563Z" fill="white"/>
<path opacity="0.3" d="M205.178 335.759C187.026 325.304 157.623 325.304 139.472 335.759C129.848 341.307 125.334 348.674 125.915 355.943C126.431 349.526 130.96 343.173 139.472 338.268C157.623 327.813 187.026 327.813 205.178 338.268C213.689 343.173 218.219 349.51 218.735 355.943C219.331 348.674 214.801 341.307 205.178 335.759Z" fill="white"/>
</g>
<path opacity="0.3" d="M226.311 324.307C196.972 307.403 149.402 307.403 120.063 324.307C90.7243 341.211 90.7243 368.601 120.063 385.505C149.402 402.409 196.972 402.409 226.311 385.505C255.65 368.601 255.65 341.195 226.311 324.307ZM204.92 373.185C187.397 383.285 158.993 383.285 141.455 373.185C123.932 363.084 123.932 346.728 141.455 336.627C158.977 326.527 187.381 326.527 204.92 336.627C222.442 346.711 222.442 363.084 204.92 373.185Z" fill="url(#paint17_linear_54_2942)"/>
</g>
<path opacity="0.4" d="M241.641 332.832C238.401 329.808 234.516 326.945 229.97 324.323C222.878 320.238 214.769 317.07 206.129 314.834C222.732 325.337 222.233 341.613 204.613 351.762C186.478 362.216 157.059 362.216 138.908 351.762C121.885 341.967 120.837 326.446 135.732 315.928C128.575 318.067 121.852 320.866 115.84 324.323C111.294 326.945 107.393 329.808 104.169 332.832H92.2074V357.198C92.2074 369.1 100.09 380.986 115.84 390.073C147.355 408.231 198.456 408.231 229.97 390.073C245.736 381.002 253.603 369.1 253.603 357.198V332.832H241.641Z" fill="#42E8E0"/>
<g opacity="0.3">
<path opacity="0.3" d="M140.665 326.189C158.477 315.928 187.333 315.928 205.145 326.189C208.031 327.846 210.449 329.679 212.399 331.625C222.475 321.573 220.073 308.513 205.145 299.925C187.333 289.663 158.477 289.663 140.665 299.925C125.754 308.513 123.335 321.589 133.411 331.625C135.361 329.695 137.779 327.862 140.665 326.189Z" fill="#5351AF"/>
<path opacity="0.3" d="M241.641 318.63C238.401 315.606 234.516 312.743 229.97 310.122C222.878 306.036 214.769 302.868 206.129 300.632C222.732 311.135 222.233 327.411 204.613 337.56C186.478 348.014 157.059 348.014 138.908 337.56C121.885 327.765 120.837 312.245 135.732 301.726C128.575 303.865 121.852 306.664 115.84 310.122C111.294 312.743 107.393 315.606 104.169 318.63H92.2074V342.996C92.2074 354.898 100.09 366.784 115.84 375.871C147.355 394.029 198.456 394.029 229.97 375.871C245.736 366.8 253.603 354.898 253.603 342.996V318.63H241.641Z" fill="url(#paint18_linear_54_2942)"/>
<path opacity="0.3" d="M229.97 310.122C222.878 306.036 214.769 302.868 206.129 300.632C222.733 311.135 222.233 327.411 204.613 337.56C195.828 342.61 184.415 345.216 172.905 345.377V389.477C193.555 389.477 214.205 384.942 229.97 375.855C245.736 366.784 253.603 354.882 253.603 342.98V318.614H241.641C238.417 315.606 234.516 312.743 229.97 310.122Z" fill="#0F054C"/>
<path opacity="0.5" d="M229.97 310.122C222.878 306.036 214.769 302.868 206.129 300.632C222.733 311.135 222.233 327.411 204.613 337.56C195.828 342.61 184.415 345.216 172.905 345.377V389.477C193.555 389.477 214.205 384.942 229.97 375.855C245.736 366.784 253.603 354.882 253.603 342.98V318.614H241.641C238.417 315.606 234.516 312.743 229.97 310.122Z" fill="url(#paint19_radial_54_2942)"/>
<path opacity="0.3" d="M229.97 287.766C198.456 269.607 147.355 269.607 115.84 287.766C84.3246 305.924 84.3246 335.357 115.84 353.515C147.355 371.673 198.456 371.673 229.97 353.515C261.485 335.357 261.485 305.924 229.97 287.766ZM205.178 339.554C187.042 350.009 157.623 350.009 139.472 339.554C121.32 329.1 121.32 312.164 139.472 301.71C157.623 291.256 187.026 291.256 205.178 301.71C223.329 312.164 223.329 329.1 205.178 339.554Z" fill="#5351AF"/>
<g opacity="0.3">
<path opacity="0.3" d="M229.97 351.006C198.456 369.164 147.355 369.164 115.84 351.006C100.638 342.24 92.7716 330.869 92.2396 319.386C91.6593 331.69 99.5259 344.122 115.84 353.515C147.355 371.673 198.456 371.673 229.97 353.515C246.284 344.122 254.151 331.706 253.57 319.386C253.038 330.853 245.172 342.24 229.97 351.006Z" fill="white"/>
<path opacity="0.3" d="M205.178 299.201C187.026 288.747 157.623 288.747 139.472 299.201C129.848 304.75 125.334 312.116 125.915 319.386C126.431 312.969 130.96 306.616 139.472 301.71C157.623 291.256 187.026 291.256 205.178 301.71C213.689 306.616 218.219 312.952 218.735 319.386C219.331 312.116 214.801 304.75 205.178 299.201Z" fill="white"/>
</g>
<path opacity="0.3" d="M226.311 287.75C196.972 270.846 149.402 270.846 120.063 287.75C90.7243 304.653 90.7243 332.043 120.063 348.947C149.402 365.851 196.972 365.851 226.311 348.947C255.65 332.043 255.65 304.637 226.311 287.75ZM204.92 336.611C187.397 346.712 158.993 346.712 141.455 336.611C123.932 326.511 123.932 310.154 141.455 300.053C158.977 289.953 187.381 289.953 204.92 300.053C222.442 310.154 222.442 326.527 204.92 336.611Z" fill="url(#paint20_linear_54_2942)"/>
</g>
<path opacity="0.4" d="M241.641 296.274C238.401 293.25 234.516 290.387 229.97 287.766C222.878 283.68 214.769 280.512 206.129 278.276C222.732 288.779 222.233 305.055 204.613 315.204C186.478 325.658 157.059 325.658 138.908 315.204C121.885 305.409 120.837 289.889 135.732 279.37C128.575 281.509 121.852 284.308 115.84 287.766C111.294 290.387 107.393 293.25 104.169 296.274H92.2074V320.64C92.2074 332.542 100.09 344.428 115.84 353.515C147.355 371.673 198.456 371.673 229.97 353.515C245.736 344.444 253.603 332.542 253.603 320.64V296.274H241.641Z" fill="#42E8E0"/>
<g opacity="0.3">
<path opacity="0.3" d="M140.665 289.631C158.477 279.37 187.333 279.37 205.145 289.631C208.031 291.288 210.449 293.121 212.399 295.067C222.475 285.015 220.073 271.955 205.145 263.367C187.333 253.106 158.477 253.106 140.665 263.367C125.754 271.955 123.335 285.031 133.411 295.067C135.361 293.137 137.779 291.304 140.665 289.631Z" fill="#5351AF"/>
<path opacity="0.3" d="M241.641 282.072C238.401 279.048 234.516 276.186 229.97 273.564C222.878 269.479 214.769 266.31 206.129 264.075C222.732 274.577 222.233 290.854 204.613 301.002C186.478 311.457 157.059 311.457 138.908 301.002C121.885 291.208 120.837 275.687 135.732 265.168C128.575 267.307 121.852 270.106 115.84 273.564C111.294 276.186 107.393 279.048 104.169 282.072H92.2074V306.439C92.2074 318.34 100.09 330.226 115.84 339.313C147.355 357.471 198.456 357.471 229.97 339.313C245.736 330.242 253.603 318.34 253.603 306.439V282.072H241.641Z" fill="url(#paint21_linear_54_2942)"/>
<path opacity="0.3" d="M229.97 273.564C222.878 269.479 214.769 266.31 206.129 264.075C222.733 274.577 222.233 290.854 204.613 301.002C195.828 306.053 184.415 308.658 172.905 308.819V352.92C193.555 352.92 214.205 348.384 229.97 339.297C245.736 330.226 253.603 318.324 253.603 306.422V282.056H241.641C238.417 279.048 234.516 276.186 229.97 273.564Z" fill="#0F054C"/>
<path opacity="0.5" d="M229.97 273.564C222.878 269.479 214.769 266.31 206.129 264.075C222.733 274.577 222.233 290.854 204.613 301.002C195.828 306.053 184.415 308.658 172.905 308.819V352.92C193.555 352.92 214.205 348.384 229.97 339.297C245.736 330.226 253.603 318.324 253.603 306.422V282.056H241.641C238.417 279.048 234.516 276.186 229.97 273.564Z" fill="url(#paint22_radial_54_2942)"/>
<path opacity="0.3" d="M229.97 251.208C198.456 233.05 147.355 233.05 115.84 251.208C84.3246 269.366 84.3246 298.799 115.84 316.957C147.355 335.115 198.456 335.115 229.97 316.957C261.485 298.799 261.485 269.366 229.97 251.208ZM205.178 302.997C187.042 313.451 157.623 313.451 139.472 302.997C121.32 292.542 121.32 275.606 139.472 265.152C157.623 254.698 187.026 254.698 205.178 265.152C223.329 275.606 223.329 292.542 205.178 302.997Z" fill="#5351AF"/>
<g opacity="0.3">
<path opacity="0.3" d="M229.97 314.432C198.456 332.59 147.355 332.59 115.84 314.432C100.638 305.666 92.7716 294.295 92.2396 282.812C91.6593 295.116 99.5259 307.548 115.84 316.941C147.355 335.099 198.456 335.099 229.97 316.941C246.284 307.548 254.151 295.132 253.57 282.812C253.038 294.295 245.172 305.682 229.97 314.432Z" fill="white"/>
<path opacity="0.3" d="M205.178 262.643C187.026 252.189 157.623 252.189 139.472 262.643C129.848 268.192 125.334 275.558 125.915 282.828C126.431 276.411 130.96 270.058 139.472 265.152C157.623 254.698 187.026 254.698 205.178 265.152C213.689 270.058 218.219 276.395 218.735 282.828C219.331 275.558 214.801 268.192 205.178 262.643Z" fill="white"/>
</g>
<path opacity="0.3" d="M226.311 251.176C196.972 234.272 149.402 234.272 120.063 251.176C90.7243 268.079 90.7243 295.47 120.063 312.373C149.402 329.277 196.972 329.277 226.311 312.373C255.65 295.47 255.65 268.079 226.311 251.176ZM204.92 300.053C187.397 310.154 158.993 310.154 141.455 300.053C123.932 289.953 123.932 273.596 141.455 263.496C158.977 253.395 187.381 253.395 204.92 263.496C222.442 273.596 222.442 289.969 204.92 300.053Z" fill="url(#paint23_linear_54_2942)"/>
</g>
<path opacity="0.4" d="M241.641 259.7C238.401 256.676 234.516 253.813 229.97 251.192C222.878 247.107 214.769 243.938 206.129 241.703C222.732 252.205 222.233 268.482 204.613 278.63C186.478 289.085 157.059 289.085 138.908 278.63C121.885 268.835 120.837 253.315 135.732 242.796C128.575 244.935 121.852 247.734 115.84 251.192C111.294 253.813 107.393 256.676 104.169 259.7H92.2074V284.067C92.2074 295.968 100.09 307.854 115.84 316.941C147.355 335.099 198.456 335.099 229.97 316.941C245.736 307.87 253.603 295.968 253.603 284.067V259.7H241.641Z" fill="#42E8E0"/>
<g opacity="0.3">
<path opacity="0.3" d="M140.665 253.074C158.477 242.812 187.333 242.812 205.145 253.074C208.031 254.73 210.449 256.564 212.399 258.51C222.475 248.458 220.073 235.398 205.145 226.809C187.333 216.548 158.477 216.548 140.665 226.809C125.754 235.398 123.335 248.474 133.411 258.51C135.361 256.58 137.779 254.746 140.665 253.074Z" fill="#5351AF"/>
<path opacity="0.3" d="M241.641 245.514C238.401 242.491 234.516 239.628 229.97 237.006C222.878 232.921 214.769 229.753 206.129 227.517C222.732 238.02 222.233 254.296 204.613 264.445C186.478 274.899 157.059 274.899 138.908 264.445C121.885 254.65 120.837 239.129 135.732 228.611C128.575 230.75 121.852 233.548 115.84 237.006C111.294 239.628 107.393 242.491 104.169 245.514H92.2074V269.881C92.2074 281.783 100.09 293.668 115.84 302.756C147.355 320.914 198.456 320.914 229.97 302.756C245.736 293.684 253.603 281.783 253.603 269.881V245.514H241.641Z" fill="url(#paint24_linear_54_2942)"/>
<path opacity="0.3" d="M241.641 245.514C238.401 242.491 234.516 239.628 229.97 237.006C222.878 232.921 214.769 229.753 206.129 227.517C222.732 238.02 222.233 254.296 204.613 264.445C186.478 274.899 157.059 274.899 138.908 264.445C121.885 254.65 120.837 239.129 135.732 228.611C128.575 230.75 121.852 233.548 115.84 237.006C111.294 239.628 107.393 242.491 104.169 245.514H92.2074V269.881C92.2074 281.783 100.09 293.668 115.84 302.756C147.355 320.914 198.456 320.914 229.97 302.756C245.736 293.684 253.603 281.783 253.603 269.881V245.514H241.641Z" fill="url(#paint25_linear_54_2942)"/>
<path opacity="0.3" d="M229.97 237.006C222.878 232.921 214.769 229.753 206.129 227.517C222.733 238.02 222.233 254.296 204.613 264.445C195.828 269.495 184.415 272.1 172.905 272.261V316.362C193.555 316.362 214.205 311.827 229.97 302.739C245.736 293.668 253.603 281.767 253.603 269.865V245.498H241.641C238.417 242.491 234.516 239.628 229.97 237.006Z" fill="#0F054C"/>
<path opacity="0.5" d="M229.97 237.006C222.878 232.921 214.769 229.753 206.129 227.517C222.733 238.02 222.233 254.296 204.613 264.445C195.828 269.495 184.415 272.1 172.905 272.261V316.362C193.555 316.362 214.205 311.827 229.97 302.739C245.736 293.668 253.603 281.767 253.603 269.865V245.498H241.641C238.417 242.491 234.516 239.628 229.97 237.006Z" fill="url(#paint26_radial_54_2942)"/>
<path opacity="0.3" d="M229.97 214.65C198.456 196.492 147.355 196.492 115.84 214.65C84.3246 232.808 84.3246 262.241 115.84 280.399C147.355 298.558 198.456 298.558 229.97 280.399C261.485 262.241 261.485 232.792 229.97 214.65ZM205.178 266.439C187.042 276.893 157.623 276.893 139.472 266.439C121.32 255.985 121.32 239.049 139.472 228.595C157.623 218.14 187.026 218.14 205.178 228.595C223.329 239.049 223.329 255.985 205.178 266.439Z" fill="#5351AF"/>
<g opacity="0.3">
<path opacity="0.3" d="M229.97 277.874C198.456 296.033 147.355 296.033 115.84 277.874C100.638 269.109 92.7716 257.738 92.2396 246.254C91.6593 258.558 99.5259 270.991 115.84 280.383C147.355 298.542 198.456 298.542 229.97 280.383C246.284 270.991 254.151 258.574 253.57 246.254C253.038 257.738 245.172 269.125 229.97 277.874Z" fill="white"/>
<path opacity="0.3" d="M205.178 226.086C187.026 215.631 157.623 215.631 139.472 226.086C129.848 231.634 125.334 239.001 125.915 246.27C126.431 239.853 130.96 233.5 139.472 228.595C157.623 218.14 187.026 218.14 205.178 228.595C213.689 233.5 218.219 239.837 218.735 246.27C219.331 239.001 214.801 231.634 205.178 226.086Z" fill="white"/>
</g>
<path opacity="0.3" d="M226.311 214.618C196.972 197.714 149.402 197.714 120.063 214.618C90.7243 231.522 90.7243 258.912 120.063 275.816C149.402 292.719 196.972 292.719 226.311 275.816C255.65 258.912 255.65 231.522 226.311 214.618ZM204.92 263.496C187.397 273.596 158.993 273.596 141.455 263.496C123.932 253.395 123.932 237.038 141.455 226.938C158.977 216.838 187.381 216.838 204.92 226.938C222.442 237.038 222.442 253.411 204.92 263.496Z" fill="url(#paint27_linear_54_2942)"/>
</g>
</g>
</g>
<path opacity="0.5" d="M248.347 415.549L123.287 343.495C117.71 340.278 118.403 334.665 124.851 330.949L367.588 191.168C374.036 187.453 383.773 187.051 389.351 190.267L514.411 262.321C519.989 265.538 519.295 271.151 512.847 274.866L270.11 414.648C263.678 418.363 253.925 418.765 248.347 415.549Z" fill="url(#paint28_radial_54_2942)"/>
<path opacity="0.8" d="M257.81 418.122C254.199 418.122 250.733 417.398 248.154 415.902L123.094 343.848C120.531 342.369 119.128 340.31 119.128 338.058C119.128 335.356 121.143 332.638 124.657 330.612L367.395 190.83C373.94 187.067 383.886 186.665 389.56 189.93L514.621 261.984C517.184 263.463 518.586 265.522 518.586 267.774C518.586 270.476 516.571 273.194 513.057 275.22L270.319 415.002C266.741 417.06 262.162 418.122 257.81 418.122ZM248.557 415.211C254.022 418.363 263.597 417.945 269.916 414.31L512.654 274.529C515.91 272.647 517.78 270.186 517.78 267.79C517.78 265.828 516.507 264.01 514.218 262.691L389.157 190.637C383.692 187.485 374.117 187.903 367.798 191.538L125.06 331.303C121.804 333.185 119.934 335.646 119.934 338.042C119.934 340.005 121.208 341.822 123.497 343.141L248.557 415.211Z" fill="url(#paint29_linear_54_2942)"/>
<path d="M365.702 337.528C361.898 337.528 358.271 336.772 355.579 335.212L268.981 285.321C266.321 283.793 264.855 281.654 264.855 279.322C264.855 276.523 266.966 273.693 270.626 271.586C277.509 267.629 287.955 267.195 293.919 270.637L380.517 320.528C383.177 322.055 384.644 324.195 384.644 326.527C384.644 329.325 382.532 332.156 378.873 334.263C375.1 336.418 370.281 337.528 365.702 337.528ZM283.78 268.851C279.298 268.851 274.575 269.945 270.9 272.068C267.402 274.079 265.403 276.716 265.403 279.322C265.403 281.445 266.773 283.407 269.239 284.838L355.837 334.729C361.64 338.075 371.844 337.656 378.566 333.78C382.064 331.77 384.063 329.132 384.063 326.527C384.063 324.404 382.693 322.441 380.227 321.01L293.629 271.119C291.001 269.591 287.471 268.851 283.78 268.851Z" fill="#42E8E0"/>
<path opacity="0.4" d="M223.813 70.301C195.86 54.2014 150.53 54.2014 122.578 70.301C94.6254 86.4006 94.6254 112.52 122.578 128.62C150.53 144.719 195.86 144.719 223.813 128.62C251.765 112.52 251.765 86.4006 223.813 70.301Z" fill="#42E8E0"/>
<path opacity="0.4" d="M173.195 125.258C197.928 125.258 217.977 113.708 217.977 99.4603C217.977 85.2125 197.928 73.6624 173.195 73.6624C148.463 73.6624 128.413 85.2125 128.413 99.4603C128.413 113.708 148.463 125.258 173.195 125.258Z" fill="#42E8E0"/>
<path d="M143.905 443.357C141.455 443.357 138.988 442.73 136.796 441.459L2.90163 364.484C1.08005 363.438 0 361.557 0 359.466C0 357.375 1.08005 355.509 2.90163 354.464L120.031 286.994L120.305 287.476L3.17568 354.946C1.53142 355.895 0.564206 357.584 0.564206 359.466C0.564206 361.364 1.54754 363.052 3.17568 363.985L137.07 440.961C141.293 443.389 146.532 443.389 150.756 440.945L186.091 420.454L186.365 420.937L151.03 441.427C148.838 442.714 146.371 443.357 143.905 443.357Z" fill="#42E8E0"/>
<path opacity="0.4" d="M194.151 85.0816C194.151 86.0788 193.329 86.899 192.33 86.899C191.33 86.899 190.508 86.0788 190.508 85.0816C190.508 84.0844 191.33 83.2641 192.33 83.2641C193.345 83.2481 194.151 84.0683 194.151 85.0816Z" fill="#42E8E0"/>
<path opacity="0.4" d="M162.282 1.81743C162.282 2.81461 161.46 3.63487 160.46 3.63487C159.445 3.63487 158.639 2.81461 158.639 1.81743C158.639 0.804174 159.461 0 160.46 0C161.46 0 162.282 0.820257 162.282 1.81743Z" fill="#42E8E0"/>
<path opacity="0.4" d="M165.844 64.0443C165.844 65.524 164.635 66.7303 163.152 66.7303C161.669 66.7303 160.46 65.524 160.46 64.0443C160.46 62.5647 161.669 61.3584 163.152 61.3584C164.635 61.3584 165.844 62.5486 165.844 64.0443Z" fill="#42E8E0"/>
<path opacity="0.8" d="M160.944 109.882C160.944 110.928 160.09 111.78 159.042 111.78C157.994 111.78 157.14 110.928 157.14 109.882C157.14 108.837 157.994 107.984 159.042 107.984C160.09 107.968 160.944 108.821 160.944 109.882Z" fill="#42E8E0"/>
<path opacity="0.8" d="M188.042 33.1479C188.042 34.7563 186.736 36.059 185.124 36.059C183.512 36.059 182.206 34.7563 182.206 33.1479C182.206 31.5396 183.512 30.2368 185.124 30.2368C186.736 30.2368 188.042 31.5396 188.042 33.1479Z" fill="#42E8E0"/>
<path opacity="0.8" d="M183.786 44.5191C184.872 44.5191 185.753 43.6406 185.753 42.5569C185.753 41.4732 184.872 40.5947 183.786 40.5947C182.7 40.5947 181.82 41.4732 181.82 42.5569C181.82 43.6406 182.7 44.5191 183.786 44.5191Z" fill="#42E8E0"/>
<path opacity="0.5" d="M394.477 187.019L318.116 143.03L421.349 83.5698L497.694 127.558L394.477 187.019Z" fill="url(#paint30_radial_54_2942)"/>
<path d="M394.38 179.266C392.72 179.266 391.059 178.848 389.592 177.996L333.156 145.491C332.285 144.993 331.769 144.092 331.769 143.095C331.769 142.098 332.285 141.197 333.156 140.698L416.626 92.6087C419.576 90.9039 423.251 90.9039 426.218 92.6087L482.638 125.113C483.509 125.612 484.025 126.513 484.025 127.51C484.025 128.507 483.509 129.408 482.638 129.906L399.168 177.996C397.701 178.832 396.041 179.266 394.38 179.266ZM421.43 91.885C419.866 91.885 418.303 92.287 416.916 93.0912L333.446 141.181C332.753 141.583 332.334 142.291 332.334 143.095C332.334 143.899 332.753 144.607 333.446 145.009L389.883 177.513C392.671 179.122 396.121 179.122 398.91 177.513L482.38 129.424C483.073 129.022 483.493 128.314 483.493 127.51C483.493 126.706 483.073 125.998 482.38 125.596L425.96 93.0912C424.557 92.287 422.994 91.885 421.43 91.885Z" fill="#42E8E0"/>
<path d="M407.921 124.631L399.071 119.533L401.28 118.262L410.13 123.36L407.921 124.631Z" fill="#42E8E0"/>
<path opacity="0.5" d="M415.481 128.99L411.065 126.432L413.257 125.178L417.69 127.719L415.481 128.99Z" fill="#42E8E0"/>
<path opacity="0.5" d="M402.763 127.606L393.913 122.508L396.121 121.237L404.971 126.336L402.763 127.606Z" fill="#42E8E0"/>
<path opacity="0.5" d="M410.323 131.965L405.89 129.408L408.098 128.137L412.532 130.694L410.323 131.965Z" fill="#42E8E0"/>
<path d="M397.604 130.582L388.754 125.483L390.963 124.213L399.813 129.311L397.604 130.582Z" fill="#42E8E0"/>
<path d="M405.165 134.924L400.732 132.383L402.94 131.113L407.373 133.67L405.165 134.924Z" fill="#42E8E0"/>
<path d="M392.446 133.557L383.596 128.443L385.788 127.188L394.654 132.287L392.446 133.557Z" fill="#42E8E0"/>
<path d="M400.006 137.9L395.573 135.359L397.782 134.088L402.215 136.629L400.006 137.9Z" fill="#42E8E0"/>
<path d="M387.287 136.517L378.437 131.418L380.63 130.148L389.496 135.262L387.287 136.517Z" fill="#42E8E0"/>
<path d="M394.848 140.875L390.415 138.318L392.623 137.063L397.04 139.605L394.848 140.875Z" fill="#42E8E0"/>
<path d="M382.129 139.492L373.279 134.394L375.471 133.123L384.337 138.222L382.129 139.492Z" fill="#42E8E0"/>
<path d="M389.689 143.851L385.256 141.294L387.465 140.023L391.882 142.58L389.689 143.851Z" fill="#42E8E0"/>
<path d="M376.97 142.468L368.12 137.369L370.313 136.099L379.179 141.197L376.97 142.468Z" fill="#42E8E0"/>
<path opacity="0.5" d="M384.531 146.826L380.098 144.269L382.306 142.998L386.723 145.556L384.531 146.826Z" fill="#42E8E0"/>
<path d="M371.812 145.443L362.962 140.345L365.154 139.074L374.02 144.172L371.812 145.443Z" fill="#42E8E0"/>
<path opacity="0.5" d="M379.372 149.786L374.939 147.244L377.148 145.974L381.565 148.531L379.372 149.786Z" fill="#42E8E0"/>
<path d="M427.588 136.082L418.738 130.968L420.946 129.713L429.796 134.812L427.588 136.082Z" fill="#42E8E0"/>
<path d="M435.148 140.425L430.731 137.884L432.924 136.613L437.357 139.154L435.148 140.425Z" fill="#42E8E0"/>
<path d="M422.429 139.042L413.579 133.943L415.788 132.673L424.638 137.787L422.429 139.042Z" fill="#42E8E0"/>
<path d="M429.99 143.4L425.573 140.843L427.765 139.589L432.198 142.13L429.99 143.4Z" fill="#42E8E0"/>
<path d="M417.271 142.017L408.421 136.919L410.629 135.648L419.479 140.747L417.271 142.017Z" fill="#42E8E0"/>
<path d="M424.831 146.376L420.398 143.818L422.607 142.548L427.04 145.105L424.831 146.376Z" fill="#42E8E0"/>
<path d="M423.316 115.769L414.466 110.67L416.658 109.4L425.524 114.498L423.316 115.769Z" fill="#42E8E0"/>
<path d="M430.876 120.128L426.443 117.57L428.652 116.3L433.069 118.857L430.876 120.128Z" fill="#42E8E0"/>
<path d="M418.157 118.744L409.307 113.646L411.5 112.375L420.366 117.474L418.157 118.744Z" fill="#42E8E0"/>
<path d="M425.718 123.087L421.285 120.546L423.493 119.275L427.91 121.832L425.718 123.087Z" fill="#42E8E0"/>
<path d="M412.999 121.72L404.149 116.605L406.341 115.351L415.207 120.449L412.999 121.72Z" fill="#42E8E0"/>
<path d="M420.559 126.062L416.126 123.521L418.335 122.25L422.752 124.792L420.559 126.062Z" fill="#42E8E0"/>
<path d="M442.983 127.204L434.133 122.106L436.325 120.835L445.191 125.95L442.983 127.204Z" fill="#42E8E0"/>
<path d="M450.543 131.563L446.11 129.006L448.318 127.751L452.751 130.292L450.543 131.563Z" fill="#42E8E0"/>
<path opacity="0.5" d="M437.824 130.18L428.974 125.081L431.166 123.811L440.033 128.909L437.824 130.18Z" fill="#42E8E0"/>
<path d="M445.384 134.538L440.951 131.981L443.16 130.71L447.577 133.268L445.384 134.538Z" fill="#42E8E0"/>
<path d="M432.666 133.155L423.816 128.057L426.008 126.786L434.874 131.885L432.666 133.155Z" fill="#42E8E0"/>
<path d="M440.226 137.514L435.793 134.957L438.001 133.686L442.418 136.243L440.226 137.514Z" fill="#42E8E0"/>
<path d="M412.112 144.993L403.262 139.894L405.471 138.624L414.321 143.722L412.112 144.993Z" fill="#42E8E0"/>
<path d="M419.673 149.351L415.24 146.794L417.448 145.523L421.881 148.081L419.673 149.351Z" fill="#42E8E0"/>
<path opacity="0.5" d="M406.954 147.968L398.104 142.87L400.296 141.599L409.162 146.698L406.954 147.968Z" fill="#42E8E0"/>
<path d="M414.514 152.311L410.081 149.769L412.29 148.499L416.723 151.056L414.514 152.311Z" fill="#42E8E0"/>
<path d="M401.796 150.927L392.945 145.829L395.138 144.574L404.004 149.673L401.796 150.927Z" fill="#42E8E0"/>
<path d="M409.356 155.286L404.923 152.745L407.131 151.474L411.548 154.016L409.356 155.286Z" fill="#42E8E0"/>
<path d="M396.637 153.903L387.787 148.805L389.979 147.534L398.846 152.632L396.637 153.903Z" fill="#42E8E0"/>
<path d="M404.197 158.262L399.764 155.704L401.973 154.45L406.39 156.991L404.197 158.262Z" fill="#42E8E0"/>
<path d="M391.575 156.83L382.725 151.715L384.918 150.461L393.784 155.559L391.575 156.83Z" fill="#42E8E0"/>
<path d="M399.136 161.173L394.703 158.631L396.911 157.361L401.328 159.902L399.136 161.173Z" fill="#42E8E0"/>
<path d="M187.01 394.769L180.127 390.796C179.482 390.426 178.95 389.429 178.95 388.561C178.95 387.692 179.482 387.306 180.127 387.676L187.01 391.649C187.655 392.019 188.187 393.016 188.187 393.884C188.187 394.753 187.671 395.139 187.01 394.769Z" fill="#24126A"/>
<path opacity="0.1" d="M454.782 484L378.421 440.012L481.639 380.551L558 424.539L454.782 484Z" fill="#42E8E0"/>
<path opacity="0.5" d="M454.782 467.257L378.421 423.269L481.639 363.808L558 407.796L454.782 467.257Z" fill="url(#paint31_radial_54_2942)"/>
<path d="M454.686 459.505C453.025 459.505 451.365 459.087 449.898 458.234L393.477 425.729C392.607 425.231 392.091 424.33 392.091 423.333C392.091 422.336 392.607 421.435 393.477 420.937L476.948 372.847C479.898 371.142 483.573 371.142 486.539 372.847L542.96 405.352C543.83 405.85 544.346 406.751 544.346 407.748C544.346 408.745 543.83 409.646 542.96 410.145L459.49 458.234C458.007 459.087 456.346 459.505 454.686 459.505ZM481.735 372.123C480.172 372.123 478.608 372.525 477.222 373.329L393.752 421.419C393.058 421.821 392.639 422.529 392.639 423.333C392.639 424.137 393.058 424.845 393.752 425.247L450.172 457.752C452.961 459.36 456.411 459.36 459.199 457.752L542.67 409.662C543.363 409.26 543.782 408.552 543.782 407.748C543.782 406.944 543.363 406.236 542.67 405.834L486.249 373.329C484.863 372.525 483.299 372.123 481.735 372.123Z" fill="#42E8E0"/>
<path d="M430.973 393.161L423.122 388.705C418.996 386.357 416.433 381.95 416.433 377.222V361.138C416.433 356.603 413.982 352.405 410.049 350.153L380.291 333.137L380.565 332.655L410.323 349.671C414.434 352.019 416.981 356.426 416.981 361.154V377.238C416.981 381.773 419.431 386.003 423.397 388.239L431.247 392.694L430.973 393.161Z" fill="#42E8E0"/>
<path d="M336.009 295.357L335.735 294.874L453.364 226.391C454.621 225.651 456.121 225.651 457.394 226.375C458.651 227.099 459.409 228.401 459.409 229.849H458.845C458.845 228.594 458.2 227.485 457.104 226.857C456.024 226.23 454.718 226.246 453.638 226.873L336.009 295.357Z" fill="#42E8E0"/>
<path d="M463.616 233.21L463.326 232.728L512.041 203.987C513.718 202.99 514.717 201.237 514.701 199.29C514.685 197.344 513.653 195.607 511.961 194.642L440.307 154.128L440.581 153.646L512.235 194.16C514.105 195.221 515.233 197.135 515.265 199.29C515.282 201.446 514.185 203.376 512.332 204.469L463.616 233.21Z" fill="#42E8E0"/>
<path d="M295.902 289.502L293.629 288.184L295.902 286.881L298.191 288.184L295.902 289.502Z" fill="#42E8E0"/>
<path d="M302.092 289.695L299.819 288.393L302.092 287.074L304.381 288.393L302.092 289.695Z" fill="#42E8E0"/>
<path d="M299.11 295.421L296.821 294.102L299.11 292.8L301.383 294.102L299.11 295.421Z" fill="#42E8E0"/>
<path d="M289.228 285.015L286.955 283.712L289.228 282.394L291.517 283.712L289.228 285.015Z" fill="#42E8E0"/>
<path d="M306.993 294.569L304.72 293.266L306.993 291.947L309.282 293.266L306.993 294.569Z" fill="#42E8E0"/>
<path d="M312.216 293.459L309.927 292.14L312.216 290.837L314.489 292.14L312.216 293.459Z" fill="#42E8E0"/>
<path d="M306.912 297.818L304.639 296.515L306.912 295.196L309.185 296.515L306.912 297.818Z" fill="#42E8E0"/>
<path d="M315.972 301.726L313.699 300.423L315.972 299.104L318.245 300.423L315.972 301.726Z" fill="#42E8E0"/>
<path d="M322.984 303.045L320.711 301.742L322.984 300.423L325.273 301.742L322.984 303.045Z" fill="#42E8E0"/>
<path d="M322.984 308.754L320.711 307.436L322.984 306.133L325.273 307.436L322.984 308.754Z" fill="#42E8E0"/>
<path d="M327.111 306.84L324.838 305.521L327.111 304.203L329.384 305.521L327.111 306.84Z" fill="#42E8E0"/>
<path d="M336.073 309.832L333.801 308.513L336.073 307.21L338.346 308.513L336.073 309.832Z" fill="#42E8E0"/>
<path d="M343.989 312.003L341.699 310.684L343.989 309.382L346.262 310.684L343.989 312.003Z" fill="#42E8E0"/>
<path d="M336.622 314.93L334.333 313.628L336.622 312.309L338.895 313.628L336.622 314.93Z" fill="#42E8E0"/>
<path d="M347.696 319.337L345.423 318.019L347.696 316.7L349.969 318.019L347.696 319.337Z" fill="#42E8E0"/>
<path d="M354.451 319.852L352.161 318.549L354.451 317.23L356.723 318.549L354.451 319.852Z" fill="#42E8E0"/>
<path d="M347.1 316.185L344.811 314.866L347.1 313.547L349.373 314.866L347.1 316.185Z" fill="#42E8E0"/>
<path d="M360.238 326.559L357.965 325.24L360.238 323.937L362.511 325.24L360.238 326.559Z" fill="#42E8E0"/>
<defs>
<linearGradient id="paint0_linear_54_2942" x1="92.204" y1="234.146" x2="253.609" y2="234.146" gradientUnits="userSpaceOnUse">
<stop stop-color="#BCBEFF"/>
<stop offset="0.151" stop-color="#A3A7F5"/>
<stop offset="0.3866" stop-color="#8289E8"/>
<stop offset="0.6124" stop-color="#6A73DF"/>
<stop offset="0.8221" stop-color="#5C66D9"/>
<stop offset="1" stop-color="#5761D7"/>
</linearGradient>
<radialGradient id="paint1_radial_54_2942" cx="0" cy="0" r="1" gradientUnits="userSpaceOnUse" gradientTransform="translate(249.534 258.734) scale(93.7974 93.5837)">
<stop stop-color="#42E8E0"/>
<stop offset="0.0347" stop-color="#3FDCD8"/>
<stop offset="0.2363" stop-color="#319CAE"/>
<stop offset="0.4286" stop-color="#25668B"/>
<stop offset="0.6062" stop-color="#1B3C70"/>
<stop offset="0.7662" stop-color="#151E5C"/>
<stop offset="0.9028" stop-color="#100C50"/>
<stop offset="1" stop-color="#0F054C"/>
</radialGradient>
<linearGradient id="paint2_linear_54_2942" x1="98.0687" y1="207.432" x2="248.319" y2="207.432" gradientUnits="userSpaceOnUse">
<stop stop-color="#C0BFF6"/>
<stop offset="0.2938" stop-color="#C5C4F7"/>
<stop offset="0.6399" stop-color="#D3D2F9"/>
<stop offset="1" stop-color="#E9E9FD"/>
</linearGradient>
<linearGradient id="paint3_linear_54_2942" x1="92.204" y1="197.586" x2="253.609" y2="197.586" gradientUnits="userSpaceOnUse">
<stop stop-color="#BCBEFF"/>
<stop offset="0.151" stop-color="#A3A7F5"/>
<stop offset="0.3866" stop-color="#8289E8"/>
<stop offset="0.6124" stop-color="#6A73DF"/>
<stop offset="0.8221" stop-color="#5C66D9"/>
<stop offset="1" stop-color="#5761D7"/>
</linearGradient>
<radialGradient id="paint4_radial_54_2942" cx="0" cy="0" r="1" gradientUnits="userSpaceOnUse" gradientTransform="translate(249.534 222.174) scale(93.7974 93.5838)">
<stop stop-color="#42E8E0"/>
<stop offset="0.0347" stop-color="#3FDCD8"/>
<stop offset="0.2363" stop-color="#319CAE"/>
<stop offset="0.4286" stop-color="#25668B"/>
<stop offset="0.6062" stop-color="#1B3C70"/>
<stop offset="0.7662" stop-color="#151E5C"/>
<stop offset="0.9028" stop-color="#100C50"/>
<stop offset="1" stop-color="#0F054C"/>
</radialGradient>
<linearGradient id="paint5_linear_54_2942" x1="98.0687" y1="170.872" x2="248.319" y2="170.872" gradientUnits="userSpaceOnUse">
<stop stop-color="#C0BFF6"/>
<stop offset="0.2938" stop-color="#C5C4F7"/>
<stop offset="0.6399" stop-color="#D3D2F9"/>
<stop offset="1" stop-color="#E9E9FD"/>
</linearGradient>
<linearGradient id="paint6_linear_54_2942" x1="92.204" y1="161.026" x2="253.609" y2="161.026" gradientUnits="userSpaceOnUse">
<stop stop-color="#BCBEFF"/>
<stop offset="0.151" stop-color="#A3A7F5"/>
<stop offset="0.3866" stop-color="#8289E8"/>
<stop offset="0.6124" stop-color="#6A73DF"/>
<stop offset="0.8221" stop-color="#5C66D9"/>
<stop offset="1" stop-color="#5761D7"/>
</linearGradient>
<radialGradient id="paint7_radial_54_2942" cx="0" cy="0" r="1" gradientUnits="userSpaceOnUse" gradientTransform="translate(249.534 185.615) scale(93.7972 93.5836)">
<stop stop-color="#42E8E0"/>
<stop offset="0.0347" stop-color="#3FDCD8"/>
<stop offset="0.2363" stop-color="#319CAE"/>
<stop offset="0.4286" stop-color="#25668B"/>
<stop offset="0.6062" stop-color="#1B3C70"/>
<stop offset="0.7662" stop-color="#151E5C"/>
<stop offset="0.9028" stop-color="#100C50"/>
<stop offset="1" stop-color="#0F054C"/>
</radialGradient>
<linearGradient id="paint8_linear_54_2942" x1="98.0687" y1="134.313" x2="248.319" y2="134.313" gradientUnits="userSpaceOnUse">
<stop stop-color="#C0BFF6"/>
<stop offset="0.2938" stop-color="#C5C4F7"/>
<stop offset="0.6399" stop-color="#D3D2F9"/>
<stop offset="1" stop-color="#E9E9FD"/>
</linearGradient>
<linearGradient id="paint9_linear_54_2942" x1="92.204" y1="124.467" x2="253.609" y2="124.467" gradientUnits="userSpaceOnUse">
<stop stop-color="#BCBEFF"/>
<stop offset="0.151" stop-color="#A3A7F5"/>
<stop offset="0.3866" stop-color="#8289E8"/>
<stop offset="0.6124" stop-color="#6A73DF"/>
<stop offset="0.8221" stop-color="#5C66D9"/>
<stop offset="1" stop-color="#5761D7"/>
</linearGradient>
<linearGradient id="paint10_linear_54_2942" x1="92.204" y1="124.467" x2="253.609" y2="124.467" gradientUnits="userSpaceOnUse">
<stop stop-color="#BCBEFF"/>
<stop offset="0.151" stop-color="#A3A7F5"/>
<stop offset="0.3866" stop-color="#8289E8"/>
<stop offset="0.6124" stop-color="#6A73DF"/>
<stop offset="0.8221" stop-color="#5C66D9"/>
<stop offset="1" stop-color="#5761D7"/>
</linearGradient>
<radialGradient id="paint11_radial_54_2942" cx="0" cy="0" r="1" gradientUnits="userSpaceOnUse" gradientTransform="translate(249.534 149.055) scale(93.7972 93.5836)">
<stop stop-color="#42E8E0"/>
<stop offset="0.0347" stop-color="#3FDCD8"/>
<stop offset="0.2363" stop-color="#319CAE"/>
<stop offset="0.4286" stop-color="#25668B"/>
<stop offset="0.6062" stop-color="#1B3C70"/>
<stop offset="0.7662" stop-color="#151E5C"/>
<stop offset="0.9028" stop-color="#100C50"/>
<stop offset="1" stop-color="#0F054C"/>
</radialGradient>
<linearGradient id="paint12_linear_54_2942" x1="92.204" y1="100.046" x2="253.609" y2="100.046" gradientUnits="userSpaceOnUse">
<stop stop-color="#C0BFF6"/>
<stop offset="0.2938" stop-color="#C5C4F7"/>
<stop offset="0.6399" stop-color="#D3D2F9"/>
<stop offset="1" stop-color="#E9E9FD"/>
</linearGradient>
<linearGradient id="paint13_linear_54_2942" x1="114.525" y1="320.759" x2="523.424" y2="320.759" gradientUnits="userSpaceOnUse">
<stop stop-color="#BCBEFF"/>
<stop offset="0.151" stop-color="#A3A7F5"/>
<stop offset="0.3866" stop-color="#8289E8"/>
<stop offset="0.6124" stop-color="#6A73DF"/>
<stop offset="0.8221" stop-color="#5C66D9"/>
<stop offset="1" stop-color="#5761D7"/>
</linearGradient>
<radialGradient id="paint14_radial_54_2942" cx="0" cy="0" r="1" gradientUnits="userSpaceOnUse" gradientTransform="translate(243.092 240.188) scale(262.471 261.873)">
<stop stop-color="#42E8E0"/>
<stop offset="0.1055" stop-color="#37B6BF"/>
<stop offset="0.2197" stop-color="#2C87A1"/>
<stop offset="0.338" stop-color="#235F87"/>
<stop offset="0.4587" stop-color="#1C3F72"/>
<stop offset="0.5824" stop-color="#162561"/>
<stop offset="0.7105" stop-color="#121355"/>
<stop offset="0.8458" stop-color="#10084E"/>
<stop offset="1" stop-color="#0F054C"/>
</radialGradient>
<linearGradient id="paint15_linear_54_2942" x1="92.204" y1="381.615" x2="253.609" y2="381.615" gradientUnits="userSpaceOnUse">
<stop stop-color="#BCBEFF"/>
<stop offset="0.151" stop-color="#A3A7F5"/>
<stop offset="0.3866" stop-color="#8289E8"/>
<stop offset="0.6124" stop-color="#6A73DF"/>
<stop offset="0.8221" stop-color="#5C66D9"/>
<stop offset="1" stop-color="#5761D7"/>
</linearGradient>
<radialGradient id="paint16_radial_54_2942" cx="0" cy="0" r="1" gradientUnits="userSpaceOnUse" gradientTransform="translate(249.534 406.203) scale(93.7974 93.5839)">
<stop stop-color="#42E8E0"/>
<stop offset="0.0347" stop-color="#3FDCD8"/>
<stop offset="0.2363" stop-color="#319CAE"/>
<stop offset="0.4286" stop-color="#25668B"/>
<stop offset="0.6062" stop-color="#1B3C70"/>
<stop offset="0.7662" stop-color="#151E5C"/>
<stop offset="0.9028" stop-color="#100C50"/>
<stop offset="1" stop-color="#0F054C"/>
</radialGradient>
<linearGradient id="paint17_linear_54_2942" x1="98.0687" y1="354.901" x2="248.319" y2="354.901" gradientUnits="userSpaceOnUse">
<stop stop-color="#C0BFF6"/>
<stop offset="0.2938" stop-color="#C5C4F7"/>
<stop offset="0.6399" stop-color="#D3D2F9"/>
<stop offset="1" stop-color="#E9E9FD"/>
</linearGradient>
<linearGradient id="paint18_linear_54_2942" x1="92.204" y1="345.055" x2="253.609" y2="345.055" gradientUnits="userSpaceOnUse">
<stop stop-color="#BCBEFF"/>
<stop offset="0.151" stop-color="#A3A7F5"/>
<stop offset="0.3866" stop-color="#8289E8"/>
<stop offset="0.6124" stop-color="#6A73DF"/>
<stop offset="0.8221" stop-color="#5C66D9"/>
<stop offset="1" stop-color="#5761D7"/>
</linearGradient>
<radialGradient id="paint19_radial_54_2942" cx="0" cy="0" r="1" gradientUnits="userSpaceOnUse" gradientTransform="translate(249.534 369.643) scale(93.7972 93.5836)">
<stop stop-color="#42E8E0"/>
<stop offset="0.0347" stop-color="#3FDCD8"/>
<stop offset="0.2363" stop-color="#319CAE"/>
<stop offset="0.4286" stop-color="#25668B"/>
<stop offset="0.6062" stop-color="#1B3C70"/>
<stop offset="0.7662" stop-color="#151E5C"/>
<stop offset="0.9028" stop-color="#100C50"/>
<stop offset="1" stop-color="#0F054C"/>
</radialGradient>
<linearGradient id="paint20_linear_54_2942" x1="98.0687" y1="318.341" x2="248.319" y2="318.341" gradientUnits="userSpaceOnUse">
<stop stop-color="#C0BFF6"/>
<stop offset="0.2938" stop-color="#C5C4F7"/>
<stop offset="0.6399" stop-color="#D3D2F9"/>
<stop offset="1" stop-color="#E9E9FD"/>
</linearGradient>
<linearGradient id="paint21_linear_54_2942" x1="92.204" y1="308.496" x2="253.609" y2="308.496" gradientUnits="userSpaceOnUse">
<stop stop-color="#BCBEFF"/>
<stop offset="0.151" stop-color="#A3A7F5"/>
<stop offset="0.3866" stop-color="#8289E8"/>
<stop offset="0.6124" stop-color="#6A73DF"/>
<stop offset="0.8221" stop-color="#5C66D9"/>
<stop offset="1" stop-color="#5761D7"/>
</linearGradient>
<radialGradient id="paint22_radial_54_2942" cx="0" cy="0" r="1" gradientUnits="userSpaceOnUse" gradientTransform="translate(249.534 333.084) scale(93.7972 93.5836)">
<stop stop-color="#42E8E0"/>
<stop offset="0.0347" stop-color="#3FDCD8"/>
<stop offset="0.2363" stop-color="#319CAE"/>
<stop offset="0.4286" stop-color="#25668B"/>
<stop offset="0.6062" stop-color="#1B3C70"/>
<stop offset="0.7662" stop-color="#151E5C"/>
<stop offset="0.9028" stop-color="#100C50"/>
<stop offset="1" stop-color="#0F054C"/>
</radialGradient>
<linearGradient id="paint23_linear_54_2942" x1="98.0687" y1="281.782" x2="248.319" y2="281.782" gradientUnits="userSpaceOnUse">
<stop stop-color="#C0BFF6"/>
<stop offset="0.2938" stop-color="#C5C4F7"/>
<stop offset="0.6399" stop-color="#D3D2F9"/>
<stop offset="1" stop-color="#E9E9FD"/>
</linearGradient>
<linearGradient id="paint24_linear_54_2942" x1="92.204" y1="271.936" x2="253.609" y2="271.936" gradientUnits="userSpaceOnUse">
<stop stop-color="#BCBEFF"/>
<stop offset="0.151" stop-color="#A3A7F5"/>
<stop offset="0.3866" stop-color="#8289E8"/>
<stop offset="0.6124" stop-color="#6A73DF"/>
<stop offset="0.8221" stop-color="#5C66D9"/>
<stop offset="1" stop-color="#5761D7"/>
</linearGradient>
<linearGradient id="paint25_linear_54_2942" x1="92.204" y1="271.936" x2="253.609" y2="271.936" gradientUnits="userSpaceOnUse">
<stop stop-color="#BCBEFF"/>
<stop offset="0.151" stop-color="#A3A7F5"/>
<stop offset="0.3866" stop-color="#8289E8"/>
<stop offset="0.6124" stop-color="#6A73DF"/>
<stop offset="0.8221" stop-color="#5C66D9"/>
<stop offset="1" stop-color="#5761D7"/>
</linearGradient>
<radialGradient id="paint26_radial_54_2942" cx="0" cy="0" r="1" gradientUnits="userSpaceOnUse" gradientTransform="translate(249.534 296.525) scale(93.7974 93.5838)">
<stop stop-color="#42E8E0"/>
<stop offset="0.0347" stop-color="#3FDCD8"/>
<stop offset="0.2363" stop-color="#319CAE"/>
<stop offset="0.4286" stop-color="#25668B"/>
<stop offset="0.6062" stop-color="#1B3C70"/>
<stop offset="0.7662" stop-color="#151E5C"/>
<stop offset="0.9028" stop-color="#100C50"/>
<stop offset="1" stop-color="#0F054C"/>
</radialGradient>
<linearGradient id="paint27_linear_54_2942" x1="98.0687" y1="245.222" x2="248.319" y2="245.222" gradientUnits="userSpaceOnUse">
<stop stop-color="#C0BFF6"/>
<stop offset="0.2938" stop-color="#C5C4F7"/>
<stop offset="0.6399" stop-color="#D3D2F9"/>
<stop offset="1" stop-color="#E9E9FD"/>
</linearGradient>
<radialGradient id="paint28_radial_54_2942" cx="0" cy="0" r="1" gradientUnits="userSpaceOnUse" gradientTransform="translate(243.092 236.971) scale(262.471 261.873)">
<stop stop-color="#42E8E0"/>
<stop offset="0.1055" stop-color="#37B6BF"/>
<stop offset="0.2197" stop-color="#2C87A1"/>
<stop offset="0.338" stop-color="#235F87"/>
<stop offset="0.4587" stop-color="#1C3F72"/>
<stop offset="0.5824" stop-color="#162561"/>
<stop offset="0.7105" stop-color="#121355"/>
<stop offset="0.8458" stop-color="#10084E"/>
<stop offset="1" stop-color="#0F054C"/>
</radialGradient>
<linearGradient id="paint29_linear_54_2942" x1="375.927" y1="378.475" x2="262.119" y2="227.101" gradientUnits="userSpaceOnUse">
<stop stop-color="#42E8E0"/>
<stop offset="0.1055" stop-color="#37B6BF"/>
<stop offset="0.2197" stop-color="#2C87A1"/>
<stop offset="0.338" stop-color="#235F87"/>
<stop offset="0.4587" stop-color="#1C3F72"/>
<stop offset="0.5824" stop-color="#162561"/>
<stop offset="0.7105" stop-color="#121355"/>
<stop offset="0.8458" stop-color="#10084E"/>
<stop offset="1" stop-color="#0F054C"/>
</linearGradient>
<radialGradient id="paint30_radial_54_2942" cx="0" cy="0" r="1" gradientUnits="userSpaceOnUse" gradientTransform="translate(337.25 175.772) scale(316.297 315.576)">
<stop stop-color="#42E8E0"/>
<stop offset="0.1055" stop-color="#37B6BF"/>
<stop offset="0.2197" stop-color="#2C87A1"/>
<stop offset="0.338" stop-color="#235F87"/>
<stop offset="0.4587" stop-color="#1C3F72"/>
<stop offset="0.5824" stop-color="#162561"/>
<stop offset="0.7105" stop-color="#121355"/>
<stop offset="0.8458" stop-color="#10084E"/>
<stop offset="1" stop-color="#0F054C"/>
</radialGradient>
<radialGradient id="paint31_radial_54_2942" cx="0" cy="0" r="1" gradientUnits="userSpaceOnUse" gradientTransform="translate(397.552 456.015) scale(316.297 315.576)">
<stop stop-color="#42E8E0"/>
<stop offset="0.1055" stop-color="#37B6BF"/>
<stop offset="0.2197" stop-color="#2C87A1"/>
<stop offset="0.338" stop-color="#235F87"/>
<stop offset="0.4587" stop-color="#1C3F72"/>
<stop offset="0.5824" stop-color="#162561"/>
<stop offset="0.7105" stop-color="#121355"/>
<stop offset="0.8458" stop-color="#10084E"/>
<stop offset="1" stop-color="#0F054C"/>
</radialGradient>
</defs>
</svg>
