<svg width="50" height="50" viewBox="0 0 50 50" fill="none" xmlns="http://www.w3.org/2000/svg">
<rect opacity="0.2" width="50" height="50" rx="12" fill="url(#paint0_linear_128_189)"/>
<path d="M19.5857 15.5253V18.4654V21.5379V30.1857C18.8091 29.7137 17.899 29.4367 16.9215 29.4367C14.0969 29.4367 11.8057 31.7086 11.8057 34.5084C11.8057 37.3113 14.0963 39.5832 16.9215 39.5832C19.745 39.5832 22.0349 37.3119 22.0355 34.5096V20.8393L35.0503 17.1283V25.8078C34.2737 25.3358 33.3636 25.0588 32.3861 25.0588C29.5602 25.0588 27.2702 27.3301 27.2702 30.1299C27.2702 32.9321 29.5602 35.2046 32.3861 35.2046C35.0466 35.2046 37.2331 33.1848 37.4756 30.6061H37.5001V16.4298V14.2514V10.4165L19.5857 15.5253Z" fill="url(#paint1_linear_128_189)"/>
<defs>
<linearGradient id="paint0_linear_128_189" x1="1.40641e-07" y1="25.5556" x2="55.5257" y2="28.3255" gradientUnits="userSpaceOnUse">
<stop stop-color="#37E0C2"/>
<stop offset="1" stop-color="#41D1FF"/>
</linearGradient>
<linearGradient id="paint1_linear_128_189" x1="11.8057" y1="25.3239" x2="40.3556" y2="26.5786" gradientUnits="userSpaceOnUse">
<stop stop-color="#37E0C2"/>
<stop offset="1" stop-color="#41D1FF"/>
</linearGradient>
</defs>
</svg>
