<svg width="236" height="81" viewBox="0 0 236 81" fill="none" xmlns="http://www.w3.org/2000/svg">
<path d="M99.6843 62.0387V38.4519H91.0785V33.4603H114.324V38.4519H105.669V62.0387H99.6843Z" fill="white"/>
<path d="M121.808 62.5994C120.084 62.5994 118.554 62.3251 117.201 61.7827C115.854 61.2403 114.708 60.4784 113.775 59.5033C112.843 58.5281 112.13 57.3518 111.642 55.9744C111.155 54.597 110.911 53.0916 110.911 51.4521C110.911 49.7882 111.161 48.2645 111.667 46.8871C112.166 45.5097 112.892 44.3334 113.842 43.3582C114.787 42.383 115.933 41.6273 117.268 41.097C118.602 40.5668 120.114 40.2986 121.808 40.2986C123.472 40.2986 124.965 40.5668 126.288 41.097C127.604 41.6273 128.732 42.3769 129.665 43.3338C130.597 44.2968 131.316 45.467 131.816 46.8444C132.316 48.2218 132.572 49.7577 132.572 51.4521C132.572 53.1464 132.322 54.6762 131.816 56.0353C131.316 57.4006 130.597 58.5707 129.665 59.5459C128.732 60.5211 127.598 61.2768 126.264 61.8071C124.929 62.3312 123.442 62.5994 121.808 62.5994ZM121.808 57.9064C125.221 57.9064 126.928 55.755 126.928 51.4521C126.928 47.1735 125.221 45.0404 121.808 45.0404C118.395 45.0404 116.689 47.1796 116.689 51.4521C116.689 55.755 118.395 57.9064 121.808 57.9064Z" fill="white"/>
<path d="M134.595 62.0387V40.8593H139.849V43.4009C140.306 42.6817 140.788 42.1271 141.293 41.7248C141.793 41.3225 142.311 41.0117 142.841 40.7984C143.372 40.5851 143.908 40.4449 144.457 40.39C144.999 40.3352 145.56 40.3047 146.133 40.3047H146.864V46.0277C146.346 45.9424 145.828 45.8997 145.316 45.8997C141.903 45.8997 140.196 47.6063 140.196 51.0254V62.0448H134.595V62.0387Z" fill="white"/>
<path d="M164.466 41.8955C164.325 40.4327 163.789 39.3417 162.875 38.6226C161.955 37.9034 160.595 37.5438 158.785 37.5438C157.091 37.5438 155.817 37.8302 154.952 38.4032C154.092 38.9761 153.66 39.811 153.66 40.902C153.66 41.8223 153.995 42.5537 154.671 43.0961C155.348 43.6447 156.488 44.114 158.097 44.5162C159.73 44.9185 161.29 45.3146 162.765 45.6986C164.24 46.0887 165.514 46.5214 166.574 47.009C167.208 47.2954 167.793 47.6245 168.342 47.9963C168.884 48.3681 169.36 48.8313 169.762 49.3737C170.164 49.9223 170.481 50.5683 170.707 51.3119C170.938 52.0554 171.048 52.9331 171.048 53.9387C171.048 55.5173 170.768 56.8764 170.207 58.0039C169.646 59.1376 168.86 60.0762 167.842 60.8258C166.824 61.5694 165.618 62.124 164.228 62.4836C162.832 62.8432 161.309 63.0199 159.645 63.0199C157.865 63.0199 156.244 62.8249 154.781 62.4409C153.318 62.0509 152.057 61.4597 150.996 60.6552C149.936 59.8507 149.101 58.8572 148.497 57.6626C147.894 56.4742 147.577 55.0724 147.553 53.4633H153.318C153.373 54.9261 153.97 56.0841 155.104 56.9313C156.238 57.7784 157.768 58.199 159.687 58.199C161.467 58.199 162.838 57.8455 163.795 57.1446C164.758 56.4437 165.24 55.4441 165.24 54.152C165.24 53.7193 165.173 53.3353 165.045 52.9879C164.917 52.6466 164.685 52.3236 164.356 52.0189C164.027 51.7141 163.576 51.446 163.003 51.2022C162.43 50.9584 161.699 50.739 160.809 50.5378C159.029 50.1356 157.53 49.7821 156.311 49.4834C155.092 49.1848 153.977 48.8008 152.977 48.3437C151.429 47.655 150.247 46.7591 149.424 45.6559C148.601 44.5528 148.199 43.0961 148.199 41.286C148.199 39.9939 148.412 38.8115 148.845 37.7327C149.277 36.654 149.93 35.7336 150.801 34.9596C151.679 34.1856 152.764 33.5822 154.074 33.1495C155.378 32.7167 156.908 32.5034 158.657 32.5034C160.461 32.5034 162.07 32.735 163.478 33.1921C164.886 33.6492 166.069 34.2953 167.032 35.1303C167.995 35.9652 168.738 36.9526 169.268 38.0984C169.799 39.2442 170.091 40.5119 170.152 41.8833H164.466V41.8955Z" fill="white"/>
<path d="M177.764 52.9148C177.85 54.5238 178.319 55.7976 179.16 56.7484C180.001 57.6992 181.117 58.1685 182.494 58.1685C183.414 58.1685 184.225 57.9613 184.926 57.5468C185.627 57.1324 186.078 56.5534 186.279 55.8037H192.045C191.386 57.9856 190.234 59.6617 188.601 60.838C186.968 62.0143 185.011 62.6055 182.744 62.6055C175.686 62.6055 172.151 58.7597 172.151 51.0681C172.151 49.4347 172.383 47.9537 172.84 46.6372C173.297 45.3146 173.967 44.181 174.839 43.2363C175.711 42.2916 176.783 41.5663 178.045 41.0605C179.306 40.5607 180.757 40.3047 182.39 40.3047C185.663 40.3047 188.138 41.353 189.814 43.4496C191.496 45.5462 192.331 48.7033 192.331 52.9209H177.764V52.9148ZM186.59 49.3859C186.559 48.6119 186.425 47.9293 186.181 47.3442C185.938 46.7591 185.615 46.2654 185.212 45.8814C184.81 45.4914 184.353 45.2049 183.835 45.0221C183.317 44.8331 182.787 44.7417 182.244 44.7417C181.123 44.7417 180.154 45.1501 179.337 45.9668C178.52 46.7835 178.051 47.9232 177.941 49.3859H186.59Z" fill="white"/>
<path d="M207.854 62.0387V49.2092C207.854 47.5758 207.58 46.4665 207.038 45.8936C206.495 45.3207 205.557 45.0343 204.24 45.0343C201.339 45.0343 199.895 46.6555 199.895 49.8979V62.0387H194.3V40.8593H199.639V43.9555C200.297 42.7487 201.174 41.8406 202.265 41.2189C203.356 40.6034 204.764 40.2925 206.483 40.2925C207.489 40.2925 208.421 40.4449 209.281 40.7435C210.14 41.0422 210.877 41.4993 211.499 42.0966C212.115 42.7 212.602 43.4374 212.962 44.3151C213.321 45.1927 213.498 46.2045 213.498 47.3503V62.0265H207.854V62.0387Z" fill="white"/>
<path d="M230.624 62.0387L230.582 59.4545C229.29 61.5511 227.321 62.5994 224.682 62.5994C223.335 62.5994 222.098 62.3434 220.982 61.8254C219.861 61.3073 218.904 60.5637 218.1 59.5886C217.295 58.6134 216.661 57.4249 216.204 56.017C215.747 54.6092 215.515 53.0184 215.515 51.2387C215.515 49.6297 215.71 48.1609 216.094 46.8261C216.485 45.4914 217.051 44.3395 217.795 43.3582C218.538 42.383 219.453 41.6273 220.525 41.097C221.604 40.5668 222.829 40.2986 224.207 40.2986C226.815 40.2986 228.912 41.4018 230.49 43.6142V33.1129H236V62.0387H230.624ZM225.974 58.0344C227.321 58.0344 228.449 57.4737 229.351 56.3584C230.253 55.2369 230.704 53.7742 230.704 51.9701C230.704 47.3808 229.137 45.083 226.011 45.083C222.793 45.083 221.19 47.265 221.19 51.6288C221.19 53.5243 221.635 55.0663 222.524 56.2547C223.42 57.4371 224.572 58.0344 225.974 58.0344Z" fill="white"/>
<path d="M37.4323 80.2864L35.3906 79.1528C16.637 68.7551 8.00676 53.8351 4.07563 43.151C-0.196803 31.5526 -0.00786488 22.3861 0.00432466 22.0021L0.0713671 19.5276L37.4323 0L74.7994 19.5276L74.8664 22.0021C74.8786 22.3861 75.0614 31.5526 70.7951 43.151C66.864 53.8351 58.2338 68.7551 39.4741 79.1589L37.4323 80.2864ZM8.50653 24.6046C8.73813 27.7495 9.51217 33.698 12.0903 40.5668C16.8625 53.3049 25.383 63.4039 37.4323 70.6262C62.0796 55.8342 65.8096 32.1499 66.3642 24.6046L37.4323 9.48956L8.50653 24.6046Z" fill="white"/>
<path fill-rule="evenodd" clip-rule="evenodd" d="M25.5536 47.1552H30.0272H30.6793C31.3132 47.1552 31.8312 46.6372 31.8312 46.0033C31.8312 45.3695 31.3132 44.8514 30.6793 44.8514H30.0272H24.5602H21.6895C21.0557 44.8514 20.5376 44.3334 20.5376 43.6995C20.5376 43.0657 21.0557 42.5476 21.6895 42.5476H24.5541H27.8635C28.4974 42.5476 29.0154 42.0295 29.0154 41.3957C29.0154 40.7618 28.4974 40.2438 27.8635 40.2438H25.5841H25.5475C24.9319 40.2255 24.4383 39.7135 24.4383 39.098C24.4383 38.4641 24.9563 37.946 25.5902 37.946H29.6676C30.0089 33.9113 33.2696 30.7481 37.2434 30.7481C40.7905 30.7481 43.7648 33.2653 44.612 36.6722C45.1788 36.4955 45.7822 36.398 46.4099 36.398C49.8717 36.398 52.6814 39.3174 52.6814 42.9133C52.6814 46.5153 49.8717 49.4286 46.4099 49.4286H30.0272H29.9845H25.5536C24.9198 49.4286 24.4017 48.9105 24.4017 48.2767C24.4017 47.6733 24.9198 47.1552 25.5536 47.1552ZM22.0186 37.9643H20.5498C19.9159 37.9643 19.3979 38.4824 19.3979 39.1162C19.3979 39.7501 19.9159 40.2682 20.5498 40.2682H22.0186C22.6525 40.2682 23.1706 39.7501 23.1706 39.1162C23.1706 38.4824 22.6525 37.9643 22.0186 37.9643ZM32.8003 42.5598C33.4341 42.5598 33.9522 42.0417 33.9522 41.4079C33.9522 40.774 33.4341 40.256 32.8003 40.256H31.429C30.7951 40.256 30.2771 40.774 30.2771 41.4079C30.2771 42.0417 30.7951 42.5598 31.429 42.5598H32.8003Z" fill="white"/>
</svg>
